<?xml version="1.0" encoding="UTF-8" standalone="no"?>
<!-- Created with Inkscape (http://www.inkscape.org/) -->

<svg
   version="1.1"
   id="svg2"
   width="144.38934"
   height="180.17825"
   viewBox="0 0 144.38934 180.17826"
   xmlns="http://www.w3.org/2000/svg"
   xmlns:svg="http://www.w3.org/2000/svg">
  <defs
     id="defs6">
    <clipPath
       clipPathUnits="userSpaceOnUse"
       id="clipPath782">
      <path
         d="M 0,1600 H 1200 V 0 H 0 Z"
         id="path780" />
    </clipPath>
  </defs>
  <g
     id="g8"
     transform="matrix(1.3333333,0,0,-1.3333333,-152.07156,1642.7272)">
    <g
       id="g732"
       transform="translate(157.22097,1116.1035)">
      <path
         d="m 0,0 -0.021,-7.336 -35.473,20.48 0.021,7.336 z"
         style="fill:#cdcdcd;fill-opacity:1;fill-rule:nonzero;stroke:none"
         id="path734" />
    </g>
    <g
       id="g736"
       transform="translate(150.01997,1104.7484)">
      <path
         d="m 0,0 -0.021,-7.336 -35.467,20.476 0.021,7.337 z"
         style="fill:#cdcdcd;fill-opacity:1;fill-rule:nonzero;stroke:none"
         id="path738" />
    </g>
    <g
       id="g740"
       transform="translate(164.41577,1127.4623)">
      <path
         d="m 0,0 -0.021,-7.336 -35.467,20.476 0.021,7.337 z"
         style="fill:#cdcdcd;fill-opacity:1;fill-rule:nonzero;stroke:none"
         id="path742" />
    </g>
    <g
       id="g744"
       transform="translate(171.61677,1138.8174)">
      <path
         d="m 0,0 -0.021,-7.336 -35.473,20.48 0.021,7.336 z"
         style="fill:#cdcdcd;fill-opacity:1;fill-rule:nonzero;stroke:none"
         id="path746" />
    </g>
    <g
       id="g748"
       transform="translate(178.81157,1150.1761)">
      <path
         d="m 0,0 -0.021,-7.336 -35.473,20.48 0.021,7.336 z"
         style="fill:#cdcdcd;fill-opacity:1;fill-rule:nonzero;stroke:none"
         id="path750" />
    </g>
    <g
       id="g752"
       transform="translate(186.00637,1161.5421)">
      <path
         d="m 0,0 -0.021,-7.336 -35.467,20.476 0.021,7.337 z"
         style="fill:#cdcdcd;fill-opacity:1;fill-rule:nonzero;stroke:none"
         id="path754" />
    </g>
    <g
       id="g756"
       transform="translate(193.20737,1172.8972)">
      <path
         d="m 0,0 -0.021,-7.336 -35.473,20.48 0.021,7.336 z"
         style="fill:#cdcdcd;fill-opacity:1;fill-rule:nonzero;stroke:none"
         id="path758" />
    </g>
    <g
       id="g760"
       transform="translate(200.40217,1184.2559)">
      <path
         d="m 0,0 -0.021,-7.336 -35.466,20.476 0.02,7.337 z"
         style="fill:#cdcdcd;fill-opacity:1;fill-rule:nonzero;stroke:none"
         id="path762" />
    </g>
    <g
       id="g764"
       transform="translate(207.60337,1195.6109)">
      <path
         d="m 0,0 -0.021,-7.336 -35.473,20.48 0.021,7.337 z"
         style="fill:#cdcdcd;fill-opacity:1;fill-rule:nonzero;stroke:none"
         id="path766" />
    </g>
    <g
       id="g768"
       transform="translate(214.79797,1206.9698)">
      <path
         d="m 0,0 -0.021,-7.336 -35.473,20.48 0.021,7.336 z"
         style="fill:#cdcdcd;fill-opacity:1;fill-rule:nonzero;stroke:none"
         id="path770" />
    </g>
    <g
       id="g772"
       transform="translate(157.22097,1116.1035)">
      <path
         d="M 0,0 7.048,4.096 7.027,-3.241 -0.021,-7.336 Z"
         style="fill:#ffffff;fill-opacity:1;fill-rule:nonzero;stroke:none"
         id="path774" />
    </g>
    <g
       id="g776">
      <g
         id="g778"
         clip-path="url(#clipPath782)"
         transform="translate(-398.95243,622.98272)">
        <g
           id="g784"
           transform="translate(556.672,492.8325)">
          <path
             d="m 0,0 -0.018,-6.178 6.047,3.514 0.018,6.178 z m -0.52,-7.548 c -0.085,0 -0.172,0.023 -0.25,0.068 -0.155,0.088 -0.251,0.254 -0.25,0.433 l 0.021,7.336 c 0.001,0.178 0.095,0.342 0.249,0.432 L 6.299,4.816 C 6.452,4.905 6.645,4.907 6.8,4.816 6.955,4.728 7.051,4.562 7.05,4.383 L 7.028,-2.953 C 7.027,-3.131 6.933,-3.295 6.779,-3.385 L -0.269,-7.48 C -0.346,-7.525 -0.433,-7.548 -0.52,-7.548"
             style="fill:#cdcdcd;fill-opacity:1;fill-rule:nonzero;stroke:none"
             id="path786" />
        </g>
        <g
           id="g788"
           transform="translate(548.9724,481.7657)">
          <path
             d="M 0,0 7.048,4.096 7.027,-3.241 -0.021,-7.336 Z"
             style="fill:#ffffff;fill-opacity:1;fill-rule:nonzero;stroke:none"
             id="path790" />
        </g>
        <g
           id="g792"
           transform="translate(549.4718,481.478)">
          <path
             d="m 0,0 -0.018,-6.179 6.046,3.514 0.018,6.179 z m -0.521,-7.549 c -0.085,0 -0.172,0.023 -0.25,0.068 -0.155,0.088 -0.25,0.254 -0.25,0.433 l 0.022,7.338 c 0.001,0.177 0.096,0.341 0.249,0.431 l 7.048,4.095 c 0.154,0.089 0.347,0.091 0.501,0 C 6.954,4.728 7.05,4.562 7.049,4.382 L 7.027,-2.954 C 7.026,-3.132 6.932,-3.296 6.778,-3.386 L -0.27,-7.481 c -0.077,-0.045 -0.164,-0.068 -0.251,-0.068"
             style="fill:#cdcdcd;fill-opacity:1;fill-rule:nonzero;stroke:none"
             id="path794" />
        </g>
        <g
           id="g796"
           transform="translate(563.3682,504.4796)">
          <path
             d="M 0,0 7.048,4.096 7.027,-3.241 -0.021,-7.336 Z"
             style="fill:#ffffff;fill-opacity:1;fill-rule:nonzero;stroke:none"
             id="path798" />
        </g>
        <g
           id="g800"
           transform="translate(563.8673,504.1918)">
          <path
             d="m 0,0 -0.018,-6.179 6.047,3.514 0.018,6.179 z m -0.52,-7.549 c -0.085,0 -0.172,0.023 -0.25,0.068 -0.155,0.088 -0.251,0.254 -0.25,0.433 l 0.021,7.337 c 0.001,0.178 0.095,0.342 0.249,0.432 l 7.048,4.095 c 0.153,0.09 0.346,0.09 0.501,0 C 6.954,4.728 7.05,4.562 7.049,4.383 L 7.028,-2.954 C 7.027,-3.132 6.934,-3.296 6.779,-3.386 L -0.269,-7.481 C -0.346,-7.526 -0.433,-7.549 -0.52,-7.549"
             style="fill:#cdcdcd;fill-opacity:1;fill-rule:nonzero;stroke:none"
             id="path802" />
        </g>
        <g
           id="g804"
           transform="translate(570.5692,515.8347)">
          <path
             d="M 0,0 7.048,4.096 7.027,-3.241 -0.021,-7.336 Z"
             style="fill:#ffffff;fill-opacity:1;fill-rule:nonzero;stroke:none"
             id="path806" />
        </g>
        <g
           id="g808"
           transform="translate(571.0685,515.5463)">
          <path
             d="m 0,0 -0.018,-6.178 6.047,3.514 0.018,6.178 z m -0.521,-7.548 c -0.085,0 -0.172,0.023 -0.25,0.068 -0.155,0.088 -0.25,0.254 -0.25,0.433 l 0.022,7.336 c 0.001,0.178 0.096,0.342 0.249,0.432 l 7.048,4.095 c 0.153,0.09 0.346,0.09 0.501,0 C 6.954,4.728 7.05,4.562 7.049,4.383 L 7.028,-2.953 C 7.027,-3.131 6.934,-3.295 6.779,-3.385 L -0.27,-7.48 c -0.077,-0.045 -0.164,-0.068 -0.251,-0.068"
             style="fill:#cdcdcd;fill-opacity:1;fill-rule:nonzero;stroke:none"
             id="path810" />
        </g>
        <g
           id="g812"
           transform="translate(577.764,527.1934)">
          <path
             d="M 0,0 7.048,4.096 7.027,-3.241 -0.021,-7.336 Z"
             style="fill:#ffffff;fill-opacity:1;fill-rule:nonzero;stroke:none"
             id="path814" />
        </g>
        <g
           id="g816"
           transform="translate(578.2628,526.9057)">
          <path
             d="m 0,0 -0.018,-6.179 6.047,3.514 0.018,6.179 z m -0.52,-7.549 c -0.085,0 -0.172,0.023 -0.25,0.068 -0.155,0.088 -0.251,0.254 -0.25,0.433 l 0.021,7.337 c 0.001,0.178 0.095,0.342 0.249,0.432 l 7.048,4.095 c 0.153,0.089 0.346,0.091 0.501,0 C 6.954,4.728 7.05,4.562 7.049,4.383 L 7.028,-2.954 C 7.027,-3.132 6.934,-3.296 6.779,-3.386 L -0.269,-7.481 C -0.346,-7.526 -0.433,-7.549 -0.52,-7.549"
             style="fill:#cdcdcd;fill-opacity:1;fill-rule:nonzero;stroke:none"
             id="path818" />
        </g>
        <g
           id="g820"
           transform="translate(584.9588,538.5594)">
          <path
             d="M 0,0 7.048,4.096 7.027,-3.241 -0.021,-7.336 Z"
             style="fill:#ffffff;fill-opacity:1;fill-rule:nonzero;stroke:none"
             id="path822" />
        </g>
        <g
           id="g824"
           transform="translate(585.4581,538.2709)">
          <path
             d="m 0,0 -0.018,-6.178 6.047,3.514 0.018,6.179 z m -0.521,-7.548 c -0.085,0 -0.172,0.023 -0.25,0.068 -0.155,0.088 -0.25,0.254 -0.25,0.434 l 0.022,7.335 c 0.001,0.178 0.095,0.342 0.249,0.432 l 7.048,4.096 c 0.153,0.09 0.346,0.09 0.501,0 C 6.954,4.729 7.05,4.562 7.049,4.384 L 7.028,-2.953 C 7.027,-3.131 6.934,-3.295 6.779,-3.385 L -0.27,-7.48 c -0.077,-0.045 -0.164,-0.068 -0.251,-0.068"
             style="fill:#cdcdcd;fill-opacity:1;fill-rule:nonzero;stroke:none"
             id="path826" />
        </g>
        <g
           id="g828"
           transform="translate(592.1598,549.9145)">
          <path
             d="M 0,0 7.048,4.096 7.027,-3.241 -0.021,-7.336 Z"
             style="fill:#ffffff;fill-opacity:1;fill-rule:nonzero;stroke:none"
             id="path830" />
        </g>
        <g
           id="g832"
           transform="translate(592.6593,549.6264)">
          <path
             d="m 0,0 -0.018,-6.179 6.046,3.515 0.018,6.178 z m -0.521,-7.549 c -0.085,0 -0.172,0.023 -0.25,0.068 -0.155,0.088 -0.25,0.254 -0.25,0.433 l 0.022,7.338 c 0.001,0.177 0.096,0.341 0.249,0.431 l 7.048,4.095 c 0.153,0.09 0.346,0.09 0.501,0 C 6.954,4.728 7.05,4.562 7.049,4.382 L 7.027,-2.953 C 7.026,-3.131 6.933,-3.295 6.778,-3.385 L -0.27,-7.481 c -0.077,-0.045 -0.164,-0.068 -0.251,-0.068"
             style="fill:#cdcdcd;fill-opacity:1;fill-rule:nonzero;stroke:none"
             id="path834" />
        </g>
        <g
           id="g836"
           transform="translate(599.3546,561.2732)">
          <path
             d="M 0,0 7.048,4.096 7.027,-3.241 -0.021,-7.336 Z"
             style="fill:#ffffff;fill-opacity:1;fill-rule:nonzero;stroke:none"
             id="path838" />
        </g>
        <g
           id="g840"
           transform="translate(599.8536,560.9848)">
          <path
             d="m 0,0 -0.018,-6.178 6.047,3.514 0.018,6.178 z m -0.52,-7.548 c -0.085,0 -0.172,0.023 -0.25,0.068 -0.155,0.088 -0.251,0.254 -0.25,0.433 l 0.021,7.336 c 0.001,0.178 0.095,0.342 0.249,0.432 l 7.048,4.095 c 0.153,0.089 0.346,0.091 0.501,0 C 6.954,4.728 7.05,4.562 7.049,4.383 L 7.028,-2.953 C 7.027,-3.131 6.934,-3.295 6.779,-3.385 L -0.269,-7.48 C -0.346,-7.525 -0.433,-7.548 -0.52,-7.548"
             style="fill:#cdcdcd;fill-opacity:1;fill-rule:nonzero;stroke:none"
             id="path842" />
        </g>
        <g
           id="g844"
           transform="translate(606.5558,572.6282)">
          <path
             d="M 0,0 7.048,4.096 7.027,-3.241 -0.021,-7.336 Z"
             style="fill:#ffffff;fill-opacity:1;fill-rule:nonzero;stroke:none"
             id="path846" />
        </g>
        <g
           id="g848"
           transform="translate(607.0548,572.3403)">
          <path
             d="m 0,0 -0.018,-6.179 6.047,3.514 0.018,6.179 z m -0.52,-7.549 c -0.085,0 -0.172,0.023 -0.25,0.068 -0.155,0.088 -0.251,0.254 -0.25,0.433 l 0.021,7.337 c 0.001,0.178 0.095,0.342 0.249,0.432 l 7.048,4.095 c 0.153,0.089 0.346,0.091 0.501,0 C 6.954,4.728 7.05,4.562 7.049,4.383 L 7.028,-2.954 C 7.027,-3.132 6.934,-3.296 6.779,-3.386 L -0.269,-7.481 C -0.346,-7.526 -0.433,-7.549 -0.52,-7.549"
             style="fill:#cdcdcd;fill-opacity:1;fill-rule:nonzero;stroke:none"
             id="path850" />
        </g>
        <g
           id="g852"
           transform="translate(613.7504,583.9871)">
          <path
             d="M 0,0 7.048,4.096 7.027,-3.241 -0.021,-7.336 Z"
             style="fill:#ffffff;fill-opacity:1;fill-rule:nonzero;stroke:none"
             id="path854" />
        </g>
        <g
           id="g856"
           transform="translate(614.2491,583.6987)">
          <path
             d="m 0,0 -0.018,-6.178 6.047,3.514 0.018,6.178 z m -0.52,-7.548 c -0.085,0 -0.172,0.023 -0.25,0.068 -0.155,0.088 -0.251,0.254 -0.25,0.433 l 0.021,7.336 c 0.001,0.178 0.095,0.342 0.249,0.432 l 7.048,4.095 c 0.153,0.09 0.346,0.09 0.501,0 C 6.954,4.728 7.05,4.562 7.049,4.383 L 7.028,-2.953 C 7.027,-3.131 6.934,-3.295 6.779,-3.385 L -0.269,-7.48 C -0.346,-7.525 -0.433,-7.548 -0.52,-7.548"
             style="fill:#cdcdcd;fill-opacity:1;fill-rule:nonzero;stroke:none"
             id="path858" />
        </g>
        <g
           id="g860"
           transform="translate(520.7003,513.6013)">
          <path
             d="M 0,0 7.048,4.096 42.521,-16.385 35.473,-20.48 Z"
             style="fill:#ffffff;fill-opacity:1;fill-rule:nonzero;stroke:none"
             id="path862" />
        </g>
        <g
           id="g864"
           transform="translate(521.6974,513.602)">
          <path
             d="m 0,0 34.475,-19.903 6.051,3.516 L 6.052,3.517 Z m 34.476,-20.981 c -0.086,0 -0.173,0.022 -0.25,0.067 l -35.473,20.48 c -0.154,0.089 -0.25,0.254 -0.25,0.432 0,0.179 0.095,0.344 0.249,0.434 L 5.8,4.527 c 0.153,0.09 0.346,0.09 0.501,0 l 35.473,-20.48 c 0.155,-0.089 0.25,-0.254 0.25,-0.432 0,-0.178 -0.094,-0.344 -0.249,-0.433 l -7.048,-4.096 c -0.078,-0.045 -0.164,-0.067 -0.251,-0.067"
             style="fill:#cdcdcd;fill-opacity:1;fill-rule:nonzero;stroke:none"
             id="path866" />
        </g>
        <g
           id="g868"
           transform="translate(513.5056,502.2425)">
          <path
             d="m 0,0 7.048,4.096 35.467,-20.477 -7.048,-4.096 z"
             style="fill:#ffffff;fill-opacity:1;fill-rule:nonzero;stroke:none"
             id="path870" />
        </g>
        <g
           id="g872"
           transform="translate(514.5031,502.2436)">
          <path
             d="m 0,0 34.469,-19.899 6.052,3.516 -34.469,19.9 z m 34.47,-20.978 c -0.086,0 -0.173,0.023 -0.25,0.068 L -1.247,-0.434 c -0.154,0.089 -0.25,0.254 -0.25,0.432 0,0.179 0.095,0.344 0.249,0.434 L 5.8,4.527 c 0.153,0.09 0.346,0.09 0.501,0 l 35.467,-20.476 c 0.154,-0.089 0.25,-0.254 0.25,-0.432 0,-0.179 -0.095,-0.344 -0.249,-0.433 l -7.048,-4.096 c -0.077,-0.045 -0.164,-0.068 -0.251,-0.068"
             style="fill:#cdcdcd;fill-opacity:1;fill-rule:nonzero;stroke:none"
             id="path874" />
        </g>
        <g
           id="g876"
           transform="translate(527.9014,524.9564)">
          <path
             d="m 0,0 7.048,4.096 35.467,-20.477 -7.048,-4.096 z"
             style="fill:#ffffff;fill-opacity:1;fill-rule:nonzero;stroke:none"
             id="path878" />
        </g>
        <g
           id="g880"
           transform="translate(528.8986,524.9575)">
          <path
             d="m 0,0 34.469,-19.899 6.052,3.516 -34.469,19.9 z m 34.47,-20.978 c -0.086,0 -0.173,0.023 -0.25,0.068 L -1.247,-0.434 c -0.154,0.089 -0.25,0.254 -0.25,0.432 0,0.179 0.095,0.344 0.249,0.434 L 5.8,4.527 c 0.153,0.089 0.346,0.091 0.501,0 l 35.467,-20.476 c 0.154,-0.089 0.25,-0.254 0.25,-0.432 0,-0.179 -0.095,-0.344 -0.249,-0.433 l -7.048,-4.096 c -0.077,-0.045 -0.164,-0.068 -0.251,-0.068"
             style="fill:#cdcdcd;fill-opacity:1;fill-rule:nonzero;stroke:none"
             id="path882" />
        </g>
        <g
           id="g884"
           transform="translate(535.0961,536.3151)">
          <path
             d="M 0,0 7.048,4.096 42.521,-16.385 35.473,-20.48 Z"
             style="fill:#ffffff;fill-opacity:1;fill-rule:nonzero;stroke:none"
             id="path886" />
        </g>
        <g
           id="g888"
           transform="translate(536.0939,536.3159)">
          <path
             d="m 0,0 34.475,-19.903 6.05,3.516 L 6.051,3.517 Z m 34.476,-20.981 c -0.086,0 -0.173,0.022 -0.25,0.067 l -35.474,20.48 c -0.154,0.089 -0.25,0.254 -0.25,0.432 0,0.179 0.095,0.344 0.249,0.434 l 7.048,4.095 c 0.153,0.089 0.346,0.091 0.501,0 l 35.473,-20.48 c 0.155,-0.089 0.25,-0.254 0.25,-0.432 0,-0.178 -0.094,-0.344 -0.249,-0.433 l -7.047,-4.096 c -0.078,-0.045 -0.164,-0.067 -0.251,-0.067"
             style="fill:#cdcdcd;fill-opacity:1;fill-rule:nonzero;stroke:none"
             id="path890" />
        </g>
        <g
           id="g892"
           transform="translate(542.2909,547.6738)">
          <path
             d="M 0,0 7.048,4.096 42.521,-16.385 35.473,-20.48 Z"
             style="fill:#ffffff;fill-opacity:1;fill-rule:nonzero;stroke:none"
             id="path894" />
        </g>
        <g
           id="g896"
           transform="translate(543.2882,547.6752)">
          <path
             d="m 0,0 34.475,-19.903 6.051,3.516 L 6.052,3.517 Z m 34.476,-20.981 c -0.086,0 -0.173,0.022 -0.25,0.067 l -35.473,20.48 c -0.154,0.089 -0.25,0.254 -0.25,0.432 0,0.179 0.095,0.344 0.249,0.434 L 5.8,4.527 c 0.153,0.09 0.346,0.09 0.501,0 l 35.472,-20.48 c 0.155,-0.089 0.25,-0.254 0.25,-0.432 0,-0.178 -0.094,-0.344 -0.249,-0.433 l -7.047,-4.096 c -0.078,-0.045 -0.164,-0.067 -0.251,-0.067"
             style="fill:#cdcdcd;fill-opacity:1;fill-rule:nonzero;stroke:none"
             id="path898" />
        </g>
        <g
           id="g900"
           transform="translate(549.4919,559.0362)">
          <path
             d="m 0,0 7.048,4.096 35.467,-20.477 -7.048,-4.096 z"
             style="fill:#ffffff;fill-opacity:1;fill-rule:nonzero;stroke:none"
             id="path902" />
        </g>
        <g
           id="g904"
           transform="translate(550.4894,559.0375)">
          <path
             d="m 0,0 34.469,-19.9 6.052,3.517 -34.469,19.9 z m 34.47,-20.979 c -0.086,0 -0.173,0.023 -0.25,0.068 L -1.247,-0.434 c -0.154,0.089 -0.25,0.254 -0.25,0.432 0,0.179 0.095,0.344 0.249,0.434 L 5.8,4.527 c 0.154,0.089 0.346,0.091 0.501,0 l 35.467,-20.476 c 0.154,-0.089 0.25,-0.254 0.25,-0.432 0,-0.179 -0.095,-0.344 -0.249,-0.433 l -7.048,-4.097 c -0.077,-0.045 -0.164,-0.068 -0.251,-0.068"
             style="fill:#cdcdcd;fill-opacity:1;fill-rule:nonzero;stroke:none"
             id="path906" />
        </g>
        <g
           id="g908"
           transform="translate(556.6867,570.3949)">
          <path
             d="M 0,0 7.048,4.096 42.521,-16.385 35.473,-20.48 Z"
             style="fill:#ffffff;fill-opacity:1;fill-rule:nonzero;stroke:none"
             id="path910" />
        </g>
        <g
           id="g912"
           transform="translate(557.6847,570.3959)">
          <path
             d="m 0,0 34.475,-19.903 6.05,3.516 L 6.051,3.517 Z m 34.476,-20.981 c -0.086,0 -0.173,0.022 -0.25,0.067 l -35.474,20.48 c -0.154,0.089 -0.25,0.254 -0.25,0.432 0,0.179 0.095,0.344 0.249,0.434 l 7.048,4.095 c 0.153,0.089 0.346,0.091 0.501,0 l 35.473,-20.48 c 0.155,-0.089 0.25,-0.254 0.25,-0.432 0,-0.178 -0.094,-0.344 -0.249,-0.433 l -7.047,-4.096 c -0.078,-0.045 -0.164,-0.067 -0.251,-0.067"
             style="fill:#cdcdcd;fill-opacity:1;fill-rule:nonzero;stroke:none"
             id="path914" />
        </g>
        <g
           id="g916"
           transform="translate(563.8879,581.7499)">
          <path
             d="m 0,0 7.048,4.096 35.467,-20.477 -7.048,-4.096 z"
             style="fill:#ffffff;fill-opacity:1;fill-rule:nonzero;stroke:none"
             id="path918" />
        </g>
        <g
           id="g920"
           transform="translate(564.8849,581.7504)">
          <path
             d="m 0,0 34.469,-19.899 6.052,3.516 L 6.052,3.518 Z m 34.47,-20.978 c -0.086,0 -0.173,0.023 -0.25,0.068 L -1.247,-0.434 c -0.154,0.089 -0.25,0.254 -0.25,0.432 0,0.179 0.095,0.344 0.249,0.434 L 5.8,4.528 c 0.153,0.09 0.346,0.09 0.501,0 l 35.467,-20.477 c 0.154,-0.089 0.25,-0.254 0.25,-0.432 0,-0.179 -0.095,-0.344 -0.249,-0.433 l -7.048,-4.096 c -0.077,-0.045 -0.164,-0.068 -0.251,-0.068"
             style="fill:#cdcdcd;fill-opacity:1;fill-rule:nonzero;stroke:none"
             id="path922" />
        </g>
        <g
           id="g924"
           transform="translate(571.0825,593.1088)">
          <path
             d="m 0,0 7.048,4.096 35.473,-20.481 -7.048,-4.096 z"
             style="fill:#ffffff;fill-opacity:1;fill-rule:nonzero;stroke:none"
             id="path926" />
        </g>
        <g
           id="g928"
           transform="translate(572.0802,593.1098)">
          <path
             d="m 0,0 34.475,-19.903 6.05,3.516 L 6.051,3.517 Z m 34.476,-20.981 c -0.086,0 -0.173,0.022 -0.25,0.067 l -35.474,20.48 c -0.154,0.089 -0.25,0.254 -0.25,0.432 0,0.179 0.095,0.344 0.249,0.434 l 7.048,4.095 c 0.153,0.09 0.346,0.09 0.501,0 l 35.473,-20.48 c 0.155,-0.089 0.25,-0.254 0.25,-0.432 0,-0.178 -0.094,-0.344 -0.249,-0.433 l -7.047,-4.096 c -0.078,-0.045 -0.164,-0.067 -0.251,-0.067"
             style="fill:#cdcdcd;fill-opacity:1;fill-rule:nonzero;stroke:none"
             id="path930" />
        </g>
        <g
           id="g932"
           transform="translate(578.2773,604.4674)">
          <path
             d="M 0,0 7.048,4.096 42.521,-16.385 35.473,-20.48 Z"
             style="fill:#ffffff;fill-opacity:1;fill-rule:nonzero;stroke:none"
             id="path934" />
        </g>
        <g
           id="g936"
           transform="translate(579.2745,604.4682)">
          <path
             d="m 0,0 34.475,-19.903 6.051,3.516 L 6.052,3.517 Z m 34.476,-20.981 c -0.086,0 -0.173,0.022 -0.25,0.067 l -35.473,20.48 c -0.154,0.089 -0.25,0.254 -0.25,0.432 0,0.179 0.095,0.344 0.249,0.434 L 5.8,4.527 c 0.153,0.089 0.346,0.091 0.501,0 l 35.472,-20.48 c 0.155,-0.089 0.25,-0.254 0.25,-0.432 0,-0.178 -0.094,-0.344 -0.249,-0.433 l -7.047,-4.096 c -0.078,-0.045 -0.164,-0.067 -0.251,-0.067"
             style="fill:#cdcdcd;fill-opacity:1;fill-rule:nonzero;stroke:none"
             id="path938" />
        </g>
      </g>
    </g>
  </g>
</svg>
