<?xml version="1.0" encoding="UTF-8" standalone="no"?>
<!-- Created with Inkscape (http://www.inkscape.org/) -->

<svg
   version="1.1"
   id="svg2"
   width="207.79602"
   height="319.13068"
   viewBox="0 0 207.79602 319.13068"
   xmlns="http://www.w3.org/2000/svg"
   xmlns:svg="http://www.w3.org/2000/svg">
  <defs
     id="defs6">
    <clipPath
       clipPathUnits="userSpaceOnUse"
       id="clipPath442">
      <path
         d="M 0,1600 H 1200 V 0 H 0 Z"
         id="path440" />
    </clipPath>
    <clipPath
       clipPathUnits="userSpaceOnUse"
       id="clipPath462">
      <path
         d="M 0,1600 H 1200 V 0 H 0 Z"
         id="path460" />
    </clipPath>
  </defs>
  <g
     id="g8"
     transform="matrix(1.3333333,0,0,-1.3333333,-718.57184,1175.8912)">
    <g
       id="g432"
       transform="translate(620.1431,669.0511)">
      <path
         d="M 0,0 140.315,-81.011 -70.64,-202.806 -211.277,-121.609 Z"
         style="fill:#ffffff;fill-opacity:1;fill-rule:nonzero;stroke:none"
         id="path434" />
    </g>
    <g
       id="g436">
      <g
         id="g438"
         clip-path="url(#clipPath442)">
        <g
           id="g444"
           transform="translate(409.8663,547.4418)">
          <path
             d="M 0,0 139.637,-80.619 349.592,40.599 210.276,121.032 Z m 139.637,-81.696 c -0.086,0 -0.173,0.022 -0.25,0.067 L -1.251,-0.432 c -0.155,0.089 -0.25,0.254 -0.25,0.433 0,0.179 0.096,0.344 0.251,0.434 l 211.277,121.608 c 0.155,0.088 0.345,0.089 0.499,-0.001 L 350.842,41.031 c 0.154,-0.089 0.25,-0.254 0.25,-0.432 0,-0.179 -0.096,-0.344 -0.25,-0.433 L 139.887,-81.629 c -0.077,-0.045 -0.164,-0.067 -0.25,-0.067"
             style="fill:#cdcdcd;fill-opacity:1;fill-rule:nonzero;stroke:none"
             id="path446" />
        </g>
        <g
           id="g448"
           transform="translate(549.5032,466.2452)">
          <path
             d="m 0,0 v -5.532 l -140.636,81.196 0.047,5.532 z"
             style="fill:#cdcdcd;fill-opacity:1;fill-rule:nonzero;stroke:none"
             id="path450" />
        </g>
      </g>
    </g>
    <g
       id="g452"
       transform="translate(694.2759,800.2214)">
      <path
         d="m 0,0 -14.096,-8.224 v -148.927 l 14.095,8.192 z"
         style="fill:#ffffff;fill-opacity:1;fill-rule:nonzero;stroke:none"
         id="path454" />
    </g>
    <g
       id="g456">
      <g
         id="g458"
         clip-path="url(#clipPath462)">
        <g
           id="g464"
           transform="translate(680.6798,791.7104)">
          <path
             d="m 0,0 v -147.771 l 13.096,7.611 V 7.641 Z m -0.5,-149.14 c -0.086,0 -0.172,0.023 -0.249,0.067 -0.155,0.09 -0.251,0.255 -0.251,0.433 V 0.287 c 0,0.178 0.095,0.342 0.248,0.432 l 14.096,8.223 c 0.155,0.091 0.345,0.091 0.501,0.002 C 14,8.855 14.096,8.689 14.096,8.511 v -148.959 c 0,-0.178 -0.095,-0.343 -0.249,-0.433 l -14.096,-8.191 c -0.077,-0.045 -0.164,-0.068 -0.251,-0.068"
             style="fill:#cdcdcd;fill-opacity:1;fill-rule:nonzero;stroke:none"
             id="path466" />
        </g>
        <g
           id="g468"
           transform="translate(694.2759,800.1887)">
          <path
             d="m 0,0 -14.096,-8.224 -140.751,81.229 14.096,8.224 z"
             style="fill:#ffffff;fill-opacity:1;fill-rule:nonzero;stroke:none"
             id="path470" />
        </g>
        <g
           id="g472"
           transform="translate(540.4249,873.1957)">
          <path
             d="m 0,0 139.754,-80.653 13.1,7.644 L 13.101,7.645 Z m 139.755,-81.731 c -0.086,0 -0.173,0.022 -0.25,0.067 L -1.246,-0.435 c -0.154,0.089 -0.25,0.253 -0.25,0.432 0,0.178 0.094,0.343 0.248,0.433 l 14.096,8.224 c 0.155,0.092 0.346,0.091 0.502,10e-4 l 140.751,-81.229 c 0.154,-0.089 0.25,-0.253 0.25,-0.432 0,-0.178 -0.094,-0.343 -0.248,-0.432 l -14.096,-8.225 c -0.078,-0.046 -0.165,-0.068 -0.252,-0.068"
             style="fill:#cdcdcd;fill-opacity:1;fill-rule:nonzero;stroke:none"
             id="path474" />
        </g>
        <g
           id="g476"
           transform="translate(680.1794,643.0704)">
          <path
             d="m 0,0 0.001,148.894 -140.752,81.229 0.001,-148.86 58.596,-33.831 0.002,121.794 58.599,-33.832 L -23.554,13.6 Z"
             style="fill:#ffffff;fill-opacity:1;fill-rule:nonzero;stroke:none"
             id="path478" />
        </g>
        <g
           id="g480"
           transform="translate(657.1261,656.9594)">
          <path
             d="m 0,0 22.554,-13.022 v 147.738 l -139.751,80.652 0.001,-147.705 57.595,-33.254 0.002,120.928 c 0,0.179 0.096,0.344 0.25,0.433 0.155,0.089 0.346,0.089 0.5,0 L -0.25,121.938 C -0.096,121.849 0,121.684 0,121.505 Z m 23.054,-14.389 c -0.086,0 -0.173,0.023 -0.25,0.068 L -0.75,-0.722 C -0.904,-0.633 -1,-0.468 -1,-0.289 v 121.505 l -57.599,33.255 -0.002,-120.928 c 0,-0.179 -0.095,-0.344 -0.25,-0.433 -0.154,-0.089 -0.345,-0.089 -0.5,0 l -58.595,33.831 c -0.155,0.089 -0.25,0.254 -0.25,0.433 l -0.001,148.86 c 0,0.179 0.095,0.344 0.25,0.433 0.154,0.09 0.345,0.09 0.5,0 l 140.751,-81.23 c 0.154,-0.088 0.25,-0.253 0.25,-0.432 V -13.889 c 0,-0.178 -0.096,-0.343 -0.25,-0.432 -0.077,-0.045 -0.164,-0.068 -0.25,-0.068"
             style="fill:#cdcdcd;fill-opacity:1;fill-rule:nonzero;stroke:none"
             id="path482" />
        </g>
        <g
           id="g484"
           transform="translate(612.1216,698.6938)">
          <path
             d="M 0,0 -14.096,-8.192 -14.094,113.602 0,105.466 Z"
             style="fill:#cdcdcd;fill-opacity:1;fill-rule:nonzero;stroke:none"
             id="path486" />
        </g>
        <g
           id="g488"
           transform="translate(598.5275,811.4301)">
          <path
             d="m 0,0 -0.002,-120.059 13.096,7.611 V -7.56 Z m -0.502,-121.428 c -0.086,0 -0.172,0.023 -0.249,0.067 -0.155,0.09 -0.251,0.255 -0.251,0.433 L -1,0.866 c 0,0.179 0.096,0.344 0.25,0.433 0.154,0.09 0.346,0.09 0.5,0 l 14.094,-8.137 c 0.154,-0.089 0.25,-0.254 0.25,-0.433 v -105.465 c 0,-0.178 -0.095,-0.343 -0.249,-0.433 l -14.096,-8.191 c -0.077,-0.045 -0.164,-0.068 -0.251,-0.068"
             style="fill:#cdcdcd;fill-opacity:1;fill-rule:nonzero;stroke:none"
             id="path490" />
        </g>
      </g>
    </g>
  </g>
</svg>
