<?xml version="1.0" encoding="UTF-8" standalone="no"?>
<!-- Created with Inkscape (http://www.inkscape.org/) -->

<svg
   version="1.1"
   id="svg2"
   width="313.68134"
   height="337.30469"
   viewBox="0 0 313.68134 337.3047"
   xmlns="http://www.w3.org/2000/svg"
   xmlns:svg="http://www.w3.org/2000/svg">
  <defs
     id="defs6">
    <clipPath
       clipPathUnits="userSpaceOnUse"
       id="clipPath950">
      <path
         d="M 0,1600 H 1200 V 0 H 0 Z"
         id="path948" />
    </clipPath>
  </defs>
  <g
     id="g8"
     transform="matrix(1.3333333,0,0,-1.3333333,-201.03566,1000.1807)">
    <g
       id="g940"
       transform="translate(229.56205,741.44344)">
      <path
         d="m 0,0 141.88,-82.302 -0.462,-161.484 -141.88,81.914 z"
         style="fill:#ffffff;fill-opacity:1;fill-rule:nonzero;stroke:none"
         id="path942" />
    </g>
    <g
       id="g944"
       transform="translate(-49.262454,104.84984)">
      <g
         id="g946"
         clip-path="url(#clipPath950)">
        <g
           id="g952"
           transform="translate(278.8634,475.0092)">
          <path
             d="M 0,0 140.882,-81.338 141.34,78.995 0.458,160.718 Z m 141.379,-82.702 c -0.086,0 -0.173,0.022 -0.25,0.067 L -0.751,-0.721 c -0.155,0.089 -0.251,0.255 -0.25,0.434 l 0.462,161.872 c 0.001,0.179 0.097,0.344 0.251,0.433 0.155,0.087 0.345,0.087 0.5,-0.001 l 141.88,-82.302 c 0.154,-0.09 0.25,-0.255 0.249,-0.434 l -0.462,-161.484 c -0.001,-0.179 -0.096,-0.344 -0.251,-0.433 -0.077,-0.044 -0.163,-0.066 -0.249,-0.066"
             style="fill:#cdcdcd;fill-opacity:1;fill-rule:nonzero;stroke:none"
             id="path954" />
        </g>
        <g
           id="g956"
           transform="translate(278.8245,636.5936)">
          <path
             d="m 0,0 14.096,8.192 141.88,-82.303 -14.096,-8.191 z"
             style="fill:#ffffff;fill-opacity:1;fill-rule:nonzero;stroke:none"
             id="path958" />
        </g>
        <g
           id="g960"
           transform="translate(279.8204,636.5932)">
          <path
             d="M 0,0 140.884,-81.724 153.983,-74.11 13.1,7.614 Z m 140.884,-82.802 c -0.087,0 -0.173,0.023 -0.251,0.068 L -1.247,-0.433 c -0.154,0.09 -0.249,0.254 -0.249,0.433 0,0.178 0.095,0.343 0.249,0.433 l 14.096,8.192 c 0.154,0.09 0.345,0.09 0.502,0 L 155.23,-73.678 c 0.155,-0.09 0.249,-0.254 0.249,-0.432 0,-0.178 -0.094,-0.343 -0.249,-0.433 l -14.095,-8.191 c -0.077,-0.045 -0.164,-0.068 -0.251,-0.068"
             style="fill:#cdcdcd;fill-opacity:1;fill-rule:nonzero;stroke:none"
             id="path962" />
        </g>
        <g
           id="g964"
           transform="translate(367.6793,497.8015)">
          <path
             d="m 0,0 -11.72,-6.766 0.002,81.196 11.72,-6.766 z"
             style="fill:#cdcdcd;fill-opacity:1;fill-rule:nonzero;stroke:none"
             id="path966" />
        </g>
        <g
           id="g968"
           transform="translate(355.9596,491.6452)">
          <path
             d="m 0,0 46.879,-27.066 v 13.533 L 11.72,6.766 Z"
             style="fill:#cdcdcd;fill-opacity:1;fill-rule:nonzero;stroke:none"
             id="path970" />
        </g>
        <g
           id="g972"
           transform="translate(356.462,491.3246)">
          <path
             d="M 0,0 45.877,-26.489 V 53.553 L 0,80.041 Z m 46.377,-27.855 c -0.086,0 -0.173,0.022 -0.25,0.067 L -0.75,-0.722 C -0.904,-0.633 -1,-0.468 -1,-0.289 v 81.196 c 0,0.179 0.096,0.344 0.25,0.433 0.154,0.09 0.346,0.09 0.5,0 L 46.627,54.274 c 0.154,-0.088 0.25,-0.253 0.25,-0.432 v -81.197 c 0,-0.179 -0.096,-0.344 -0.25,-0.433 -0.077,-0.045 -0.164,-0.067 -0.25,-0.067"
             style="fill:#cdcdcd;fill-opacity:1;fill-rule:nonzero;stroke:none"
             id="path974" />
        </g>
        <g
           id="g976"
           transform="translate(309.1718,531.863)">
          <path
             d="m 0,0 -11.72,-6.766 0.002,81.196 11.72,-6.766 z"
             style="fill:#cdcdcd;fill-opacity:1;fill-rule:nonzero;stroke:none"
             id="path978" />
        </g>
        <g
           id="g980"
           transform="translate(297.4521,525.0967)">
          <path
             d="m 0,0 46.879,-27.066 v 13.533 L 11.72,6.766 Z"
             style="fill:#cdcdcd;fill-opacity:1;fill-rule:nonzero;stroke:none"
             id="path982" />
        </g>
        <g
           id="g984"
           transform="translate(297.9522,524.7758)">
          <path
             d="M 0,0 45.879,-26.488 45.88,53.554 0.002,80.041 Z m 46.379,-27.854 c -0.086,0 -0.173,0.022 -0.25,0.067 L -0.75,-0.722 C -0.904,-0.633 -1,-0.468 -1,-0.289 l 0.002,81.196 c 0,0.179 0.096,0.344 0.25,0.433 0.154,0.09 0.346,0.09 0.5,0 L 46.63,54.275 c 0.154,-0.088 0.25,-0.254 0.25,-0.432 l -0.001,-81.197 c 0,-0.179 -0.096,-0.344 -0.25,-0.433 -0.077,-0.045 -0.164,-0.067 -0.25,-0.067"
             style="fill:#cdcdcd;fill-opacity:1;fill-rule:nonzero;stroke:none"
             id="path986" />
        </g>
        <g
           id="g988"
           transform="translate(259.1377,530.0523)">
          <path
             d="M 0,0 -11.719,-6.766 -11.72,-87.964 0,-81.197 Z"
             style="fill:#ffffff;fill-opacity:1;fill-rule:nonzero;stroke:none"
             id="path990" />
        </g>
        <g
           id="g992"
           transform="translate(247.9181,522.9965)">
          <path
             d="m 0,0 v -80.042 l 10.719,6.189 0.001,80.042 z m -0.5,-81.408 c -0.086,0 -0.173,0.022 -0.25,0.067 -0.154,0.089 -0.25,0.254 -0.25,0.433 V 0.289 c 0,0.179 0.096,0.344 0.25,0.433 l 11.72,6.766 c 0.154,0.09 0.345,0.09 0.5,0 0.154,-0.089 0.25,-0.254 0.25,-0.432 l -0.001,-81.198 c 0,-0.178 -0.096,-0.343 -0.25,-0.432 L -0.25,-81.341 c -0.077,-0.045 -0.164,-0.067 -0.25,-0.067"
             style="fill:#cdcdcd;fill-opacity:1;fill-rule:nonzero;stroke:none"
             id="path994" />
        </g>
        <g
           id="g996"
           transform="translate(247.4184,523.2858)">
          <path
             d="m 0,0 -0.001,-81.197 -46.879,27.065 0.002,81.197 z"
             style="fill:#ffffff;fill-opacity:1;fill-rule:nonzero;stroke:none"
             id="path998" />
        </g>
        <g
           id="g1000"
           transform="translate(201.0392,469.4438)">
          <path
             d="M 0,0 45.879,-26.489 V 53.553 L 0.001,80.041 Z m 46.379,-27.855 c -0.086,0 -0.173,0.022 -0.25,0.067 L -0.75,-0.722 C -0.904,-0.633 -1,-0.468 -1,-0.289 l 0.001,81.196 c 0,0.179 0.096,0.344 0.25,0.433 0.154,0.09 0.346,0.09 0.5,0 L 46.629,54.274 c 0.154,-0.088 0.25,-0.253 0.25,-0.432 v -81.197 c 0,-0.179 -0.096,-0.344 -0.25,-0.433 -0.077,-0.045 -0.164,-0.067 -0.25,-0.067"
             style="fill:#cdcdcd;fill-opacity:1;fill-rule:nonzero;stroke:none"
             id="path1002" />
        </g>
        <g
           id="g1004"
           transform="translate(212.2583,475.9206)">
          <path
             d="m 0,0 -11.72,-6.766 0.002,81.196 11.72,-6.766 z"
             style="fill:#cdcdcd;fill-opacity:1;fill-rule:nonzero;stroke:none"
             id="path1006" />
        </g>
        <g
           id="g1008"
           transform="translate(200.5387,469.1543)">
          <path
             d="m 0,0 46.879,-27.066 v 13.533 L 11.72,6.766 Z"
             style="fill:#cdcdcd;fill-opacity:1;fill-rule:nonzero;stroke:none"
             id="path1010" />
        </g>
        <g
           id="g1012"
           transform="translate(259.1377,530.0523)">
          <path
             d="m 0,0 -11.719,-6.766 -46.878,27.064 11.719,6.767 z"
             style="fill:#ffffff;fill-opacity:1;fill-rule:nonzero;stroke:none"
             id="path1014" />
        </g>
        <g
           id="g1016"
           transform="translate(201.5401,550.351)">
          <path
             d="m 0,0 45.878,-26.488 10.72,6.189 L 10.72,6.189 Z m 45.878,-27.565 c -0.086,0 -0.173,0.022 -0.25,0.067 L -1.25,-0.433 C -1.404,-0.344 -1.5,-0.179 -1.5,0 c 0,0.179 0.096,0.344 0.25,0.433 l 11.72,6.766 c 0.154,0.09 0.345,0.09 0.5,0 l 46.878,-27.065 c 0.154,-0.089 0.25,-0.254 0.25,-0.433 0,-0.179 -0.096,-0.344 -0.25,-0.432 l -11.72,-6.767 c -0.077,-0.045 -0.164,-0.067 -0.25,-0.067"
             style="fill:#cdcdcd;fill-opacity:1;fill-rule:nonzero;stroke:none"
             id="path1018" />
        </g>
        <g
           id="g1020"
           transform="translate(317.6452,496.6009)">
          <path
             d="M 0,0 -11.719,-6.767 -11.72,-87.964 0,-81.197 Z"
             style="fill:#ffffff;fill-opacity:1;fill-rule:nonzero;stroke:none"
             id="path1022" />
        </g>
        <g
           id="g1024"
           transform="translate(306.4259,489.5453)">
          <path
             d="m 0,0 -0.001,-80.042 10.72,6.189 0.001,80.042 z m -0.501,-81.408 c -0.086,0 -0.173,0.022 -0.25,0.067 -0.154,0.089 -0.25,0.254 -0.25,0.433 L -1,0.289 c 0,0.179 0.096,0.344 0.25,0.433 l 11.72,6.766 c 0.154,0.09 0.345,0.09 0.5,0 0.154,-0.089 0.25,-0.254 0.25,-0.432 l -0.001,-81.198 c 0,-0.178 -0.096,-0.343 -0.25,-0.432 l -11.72,-6.767 c -0.077,-0.045 -0.164,-0.067 -0.25,-0.067"
             style="fill:#cdcdcd;fill-opacity:1;fill-rule:nonzero;stroke:none"
             id="path1026" />
        </g>
        <g
           id="g1028"
           transform="translate(259.546,435.9916)">
          <path
             d="M 0,0 45.879,-26.488 45.88,53.554 0.002,80.041 Z m 46.379,-27.854 c -0.086,0 -0.173,0.022 -0.25,0.067 L -0.75,-0.722 C -0.904,-0.633 -1,-0.468 -1,-0.289 l 0.002,81.196 c 0,0.179 0.096,0.344 0.25,0.433 0.154,0.09 0.346,0.09 0.5,0 L 46.63,54.275 c 0.154,-0.088 0.25,-0.254 0.25,-0.432 l -0.001,-81.197 c 0,-0.179 -0.096,-0.344 -0.25,-0.433 -0.077,-0.045 -0.164,-0.067 -0.25,-0.067"
             style="fill:#cdcdcd;fill-opacity:1;fill-rule:nonzero;stroke:none"
             id="path1030" />
        </g>
        <g
           id="g1032"
           transform="translate(270.7659,442.4691)">
          <path
             d="m 0,0 -11.72,-6.766 0.002,81.196 11.72,-6.766 z"
             style="fill:#cdcdcd;fill-opacity:1;fill-rule:nonzero;stroke:none"
             id="path1034" />
        </g>
        <g
           id="g1036"
           transform="translate(259.0462,435.7028)">
          <path
             d="m 0,0 46.879,-27.066 v 13.533 L 11.72,6.766 Z"
             style="fill:#cdcdcd;fill-opacity:1;fill-rule:nonzero;stroke:none"
             id="path1038" />
        </g>
        <g
           id="g1040"
           transform="translate(317.6452,496.6009)">
          <path
             d="m 0,0 -11.719,-6.767 -46.878,27.065 11.719,6.767 z"
             style="fill:#ffffff;fill-opacity:1;fill-rule:nonzero;stroke:none"
             id="path1042" />
        </g>
        <g
           id="g1044"
           transform="translate(260.0479,516.8989)">
          <path
             d="m 0,0 45.878,-26.487 10.72,6.189 L 10.72,6.189 Z m 45.878,-27.564 c -0.086,0 -0.173,0.022 -0.25,0.067 L -1.25,-0.433 C -1.404,-0.344 -1.5,-0.179 -1.5,0 c 0,0.179 0.096,0.344 0.25,0.433 l 11.72,6.766 c 0.154,0.09 0.345,0.09 0.5,0 l 46.878,-27.064 c 0.154,-0.089 0.25,-0.254 0.25,-0.433 0,-0.179 -0.096,-0.344 -0.25,-0.432 l -11.72,-6.767 c -0.077,-0.045 -0.164,-0.067 -0.25,-0.067"
             style="fill:#cdcdcd;fill-opacity:1;fill-rule:nonzero;stroke:none"
             id="path1046" />
        </g>
        <g
           id="g1048"
           transform="translate(420.7044,554.2912)">
          <path
             d="m 0,0 14.096,8.192 -0.462,-161.484 -14.096,-8.192 z"
             style="fill:#ffffff;fill-opacity:1;fill-rule:nonzero;stroke:none"
             id="path1050" />
        </g>
        <g
           id="g1052"
           transform="translate(421.2032,554.0034)">
          <path
             d="m 0,0 -0.458,-160.326 13.094,7.609 0.458,160.326 z m -0.961,-161.696 c -0.086,0 -0.173,0.022 -0.25,0.067 -0.155,0.089 -0.251,0.255 -0.25,0.434 L -0.999,0.289 c 0.001,0.178 0.095,0.342 0.249,0.432 l 14.096,8.191 c 0.153,0.09 0.345,0.09 0.501,0 0.155,-0.089 0.251,-0.255 0.25,-0.433 l -0.462,-161.485 c -10e-4,-0.178 -0.095,-0.342 -0.249,-0.431 l -14.096,-8.192 c -0.077,-0.045 -0.164,-0.067 -0.251,-0.067"
             style="fill:#cdcdcd;fill-opacity:1;fill-rule:nonzero;stroke:none"
             id="path1054" />
        </g>
      </g>
    </g>
  </g>
</svg>
