<?xml version="1.0" encoding="UTF-8" standalone="no"?>
<!-- Created with Inkscape (http://www.inkscape.org/) -->

<svg
   version="1.1"
   id="svg2"
   width="204.47559"
   height="244.92236"
   viewBox="0 0 204.47559 244.92237"
   xmlns="http://www.w3.org/2000/svg"
   xmlns:svg="http://www.w3.org/2000/svg">
  <defs
     id="defs6">
    <clipPath
       clipPathUnits="userSpaceOnUse"
       id="clipPath52">
      <path
         d="M 0,1600 H 1200 V 0 H 0 Z"
         id="path50" />
    </clipPath>
  </defs>
  <g
     id="g8"
     transform="matrix(1.3333333,0,0,-1.3333333,-1313.943,809.55354)">
    <g
       id="g42"
       transform="translate(1126.5944,423.97336)">
      <path
         d="m 0,0 -140.637,81.197 0.001,94.728 140.635,-81.196 z"
         style="fill:#f0f0f0;fill-opacity:1;fill-rule:nonzero;stroke:none"
         id="path44" />
    </g>
    <g
       id="g46"
       transform="translate(162.89466,67.741964)">
      <g
         id="g48"
         clip-path="url(#clipPath52)">
        <g
           id="g54"
           transform="translate(823.5626,437.7172)">
          <path
             d="M 0,0 139.637,-80.619 V 12.954 L 0.001,93.573 Z m 140.137,-81.985 c -0.086,0 -0.173,0.022 -0.25,0.067 L -0.75,-0.722 C -0.904,-0.633 -1,-0.468 -1,-0.289 l 0.001,94.728 c 0,0.179 0.096,0.344 0.25,0.433 0.154,0.09 0.346,0.09 0.5,0 L 140.387,13.676 c 0.154,-0.089 0.25,-0.254 0.25,-0.433 v -94.728 c 0,-0.179 -0.096,-0.344 -0.25,-0.433 -0.077,-0.045 -0.164,-0.067 -0.25,-0.067"
             style="fill:#cdcdcd;fill-opacity:1;fill-rule:nonzero;stroke:none"
             id="path56" />
        </g>
        <g
           id="g58"
           transform="translate(823.0635,532.1566)">
          <path
             d="M 0,0 11.72,6.766 140.636,-67.663 V -81.196 Z"
             style="fill:#cdcdcd;fill-opacity:1;fill-rule:nonzero;stroke:none"
             id="path60" />
        </g>
        <g
           id="g62"
           transform="translate(824.0636,532.1567)">
          <path
             d="m 0,0 139.136,-80.33 v 12.378 L 10.72,6.189 Z m 139.636,-81.696 c -0.086,0 -0.173,0.022 -0.25,0.067 L -1.25,-0.433 C -1.404,-0.344 -1.5,-0.179 -1.5,0 c 0,0.179 0.096,0.344 0.25,0.433 l 11.72,6.766 c 0.154,0.09 0.345,0.09 0.5,0 L 139.886,-67.23 c 0.154,-0.089 0.25,-0.254 0.25,-0.433 v -13.533 c 0,-0.179 -0.096,-0.344 -0.25,-0.433 -0.077,-0.045 -0.164,-0.067 -0.25,-0.067"
             style="fill:#cdcdcd;fill-opacity:1;fill-rule:nonzero;stroke:none"
             id="path64" />
        </g>
        <g
           id="g66"
           transform="translate(963.6991,464.4933)">
          <path
             d="m 0,0 11.72,-6.766 v -94.73 l -11.719,-6.766 z"
             style="fill:#cdcdcd;fill-opacity:1;fill-rule:nonzero;stroke:none"
             id="path68" />
        </g>
        <g
           id="g70"
           transform="translate(964.1993,463.6274)">
          <path
             d="m 0,0 v -106.529 l 10.72,6.188 v 94.152 z m -0.5,-107.896 c -0.086,0 -0.173,0.023 -0.25,0.068 -0.154,0.089 -0.25,0.254 -0.25,0.432 V 0.866 c 0,0.179 0.096,0.344 0.25,0.433 0.154,0.09 0.346,0.09 0.5,0 l 11.72,-6.767 c 0.154,-0.089 0.25,-0.254 0.25,-0.432 v -94.73 c 0,-0.179 -0.096,-0.344 -0.25,-0.433 l -11.72,-6.765 c -0.077,-0.045 -0.164,-0.068 -0.25,-0.068"
             style="fill:#cdcdcd;fill-opacity:1;fill-rule:nonzero;stroke:none"
             id="path72" />
        </g>
      </g>
    </g>
    <g
       id="g4344"
       transform="translate(297.4183,321.6968)">
      <path
         d="M 0,0 718.785,414.521"
         style="fill:none;stroke:#000000;stroke-width:0.5;stroke-linecap:butt;stroke-linejoin:miter;stroke-miterlimit:10;stroke-dasharray:6.927, 2.969, 6.927, 2.969, 6.927, 2.969;stroke-dashoffset:0;stroke-opacity:1"
         id="path4346" />
    </g>
  </g>
</svg>
