<?xml version="1.0" encoding="UTF-8" standalone="no"?>
<!-- Created with Inkscape (http://www.inkscape.org/) -->

<svg
   version="1.1"
   id="svg2"
   width="187.99524"
   height="325.70129"
   viewBox="0 0 187.99524 325.7013"
   xmlns="http://www.w3.org/2000/svg"
   xmlns:svg="http://www.w3.org/2000/svg">
  <defs
     id="defs6">
    <clipPath
       clipPathUnits="userSpaceOnUse"
       id="clipPath148">
      <path
         d="M 0,1600 H 1200 V 0 H 0 Z"
         id="path146" />
    </clipPath>
  </defs>
  <g
     id="g8"
     transform="matrix(1.3333333,0,0,-1.3333333,-1343.7854,1484.958)">
    <g
       id="g138"
       transform="translate(1008.3392,1112.5369)">
      <path
         d="m 0,0 v -162.392 l 138.816,-80.202 v 162.392 z"
         style="fill:#ffffff;fill-opacity:1;fill-rule:nonzero;stroke:none"
         id="path140" />
    </g>
    <g
       id="g142"
       transform="translate(126.6339,131.23483)">
      <g
         id="g144"
         clip-path="url(#clipPath148)">
        <g
           id="g150"
           transform="translate(882.2052,819.1987)">
          <path
             d="M 0,0 137.816,-79.625 137.815,81.613 0,161.237 Z m 138.316,-80.991 c -0.086,0 -0.172,0.022 -0.25,0.067 L -0.75,-0.722 C -0.904,-0.633 -1,-0.468 -1,-0.289 v 162.393 c 0,0.178 0.096,0.343 0.25,0.432 0.154,0.09 0.346,0.09 0.5,0 L 138.565,82.334 c 0.155,-0.089 0.25,-0.254 0.25,-0.433 l 0.001,-162.392 c 0,-0.179 -0.095,-0.344 -0.25,-0.433 -0.077,-0.045 -0.164,-0.067 -0.25,-0.067"
             style="fill:#cdcdcd;fill-opacity:1;fill-rule:nonzero;stroke:none"
             id="path152" />
        </g>
        <g
           id="g154"
           transform="translate(1008.8002,907.866)">
          <path
             d="M 0,0 V -162.392"
             style="fill:#ffffff;fill-opacity:1;fill-rule:nonzero;stroke:none"
             id="path156" />
        </g>
        <g
           id="g158"
           transform="translate(1009.3009,745.4741)">
          <path
             d="m 0,0 h -1 l -10e-4,162.392 h 1 z"
             style="fill:#cdcdcd;fill-opacity:1;fill-rule:nonzero;stroke:none"
             id="path160" />
        </g>
        <g
           id="g162"
           transform="translate(997.0818,914.6331)">
          <path
             d="M 0,0 V -162.392"
             style="fill:#ffffff;fill-opacity:1;fill-rule:nonzero;stroke:none"
             id="path164" />
        </g>
        <path
           d="m 997.582,752.241 h -1 v 162.393 h 1 z"
           style="fill:#cdcdcd;fill-opacity:1;fill-rule:nonzero;stroke:none"
           id="path166" />
        <g
           id="g168"
           transform="translate(985.3634,921.4002)">
          <path
             d="M 0,0 V -162.392"
             style="fill:#ffffff;fill-opacity:1;fill-rule:nonzero;stroke:none"
             id="path170" />
        </g>
        <path
           d="m 985.863,759.008 h -1 V 921.4 h 1 z"
           style="fill:#cdcdcd;fill-opacity:1;fill-rule:nonzero;stroke:none"
           id="path172" />
        <g
           id="g174"
           transform="translate(973.1362,928.1672)">
          <path
             d="M 0,0 V -162.392"
             style="fill:#ffffff;fill-opacity:1;fill-rule:nonzero;stroke:none"
             id="path176" />
        </g>
        <g
           id="g178"
           transform="translate(973.6368,765.7748)">
          <path
             d="m 0,0 h -1 l -10e-4,162.393 h 1 z"
             style="fill:#cdcdcd;fill-opacity:1;fill-rule:nonzero;stroke:none"
             id="path180" />
        </g>
        <g
           id="g182"
           transform="translate(961.9266,934.9343)">
          <path
             d="M 0,0 V -162.392"
             style="fill:#ffffff;fill-opacity:1;fill-rule:nonzero;stroke:none"
             id="path184" />
        </g>
        <path
           d="m 962.427,772.542 h -1 v 162.392 h 1 z"
           style="fill:#cdcdcd;fill-opacity:1;fill-rule:nonzero;stroke:none"
           id="path186" />
        <g
           id="g188"
           transform="translate(950.2081,941.7014)">
          <path
             d="M 0,0 V -162.392"
             style="fill:#ffffff;fill-opacity:1;fill-rule:nonzero;stroke:none"
             id="path190" />
        </g>
        <path
           d="m 950.708,779.309 h -1 v 162.393 h 1 z"
           style="fill:#cdcdcd;fill-opacity:1;fill-rule:nonzero;stroke:none"
           id="path192" />
        <g
           id="g194"
           transform="translate(938.4897,948.4685)">
          <path
             d="M 0,0 V -162.392"
             style="fill:#ffffff;fill-opacity:1;fill-rule:nonzero;stroke:none"
             id="path196" />
        </g>
        <g
           id="g198"
           transform="translate(938.9904,786.0766)">
          <path
             d="m 0,0 h -1 l -10e-4,162.392 h 1 z"
             style="fill:#cdcdcd;fill-opacity:1;fill-rule:nonzero;stroke:none"
             id="path200" />
        </g>
        <g
           id="g202"
           transform="translate(926.7713,955.2355)">
          <path
             d="M 0,0 V -162.392"
             style="fill:#ffffff;fill-opacity:1;fill-rule:nonzero;stroke:none"
             id="path204" />
        </g>
        <path
           d="m 927.272,792.843 h -1 v 162.393 h 1 z"
           style="fill:#cdcdcd;fill-opacity:1;fill-rule:nonzero;stroke:none"
           id="path206" />
        <g
           id="g208"
           transform="translate(915.0529,962.0026)">
          <path
             d="M 0,0 V -162.392"
             style="fill:#ffffff;fill-opacity:1;fill-rule:nonzero;stroke:none"
             id="path210" />
        </g>
        <path
           d="m 915.553,799.611 h -1 v 162.392 h 1 z"
           style="fill:#cdcdcd;fill-opacity:1;fill-rule:nonzero;stroke:none"
           id="path212" />
        <g
           id="g214"
           transform="translate(903.3345,968.7697)">
          <path
             d="M 0,0 V -162.392"
             style="fill:#ffffff;fill-opacity:1;fill-rule:nonzero;stroke:none"
             id="path216" />
        </g>
        <g
           id="g218"
           transform="translate(903.8351,806.3774)">
          <path
             d="m 0,0 h -1 l -10e-4,162.393 h 1 z"
             style="fill:#cdcdcd;fill-opacity:1;fill-rule:nonzero;stroke:none"
             id="path220" />
        </g>
        <g
           id="g222"
           transform="translate(891.616,975.5367)">
          <path
             d="M 0,0 V -162.392"
             style="fill:#ffffff;fill-opacity:1;fill-rule:nonzero;stroke:none"
             id="path224" />
        </g>
        <path
           d="m 892.116,813.145 h -1 v 162.392 h 1 z"
           style="fill:#cdcdcd;fill-opacity:1;fill-rule:nonzero;stroke:none"
           id="path226" />
        <g
           id="g228"
           transform="translate(1020.5209,901.0999)">
          <path
             d="m 0,0 1.18,0.681 -138.816,80.203 -1.18,-0.682 z"
             style="fill:#cdcdcd;fill-opacity:1;fill-rule:nonzero;stroke:none"
             id="path230" />
        </g>
        <g
           id="g232"
           transform="translate(882.7042,981.3022)">
          <path
             d="m 0,0 137.816,-79.625 0.181,0.104 L 0.181,0.104 Z m 137.816,-80.702 c -0.086,0 -0.172,0.022 -0.25,0.067 L -1.249,-0.433 c -0.154,0.089 -0.25,0.254 -0.25,0.433 0,0.179 0.096,0.344 0.25,0.433 l 1.18,0.681 c 0.154,0.09 0.345,0.09 0.5,0 l 138.816,-80.202 c 0.155,-0.089 0.25,-0.254 0.25,-0.433 0,-0.178 -0.096,-0.343 -0.25,-0.432 l -1.181,-0.682 c -0.077,-0.045 -0.164,-0.067 -0.25,-0.067"
             style="fill:#cdcdcd;fill-opacity:1;fill-rule:nonzero;stroke:none"
             id="path234" />
        </g>
        <g
           id="g236"
           transform="translate(1021.701,901.7813)">
          <path
             d="M 0,0 -1.18,-0.681 V -163.074 L 0,-162.392 Z"
             style="fill:#cdcdcd;fill-opacity:1;fill-rule:nonzero;stroke:none"
             id="path238" />
        </g>
        <g
           id="g240"
           transform="translate(1021.0216,900.812)">
          <path
             d="m 0,0 v -161.238 l 0.18,0.103 V 0.104 Z m -0.5,-162.604 c -0.086,0 -0.173,0.022 -0.25,0.067 -0.154,0.089 -0.25,0.254 -0.25,0.433 V 0.288 c 0,0.179 0.096,0.344 0.25,0.433 l 1.18,0.681 c 0.154,0.09 0.345,0.09 0.5,0 C 1.084,1.313 1.18,1.148 1.18,0.97 v -162.393 c 0,-0.179 -0.096,-0.344 -0.25,-0.432 l -1.18,-0.682 c -0.077,-0.045 -0.164,-0.067 -0.25,-0.067"
             style="fill:#cdcdcd;fill-opacity:1;fill-rule:nonzero;stroke:none"
             id="path242" />
        </g>
      </g>
    </g>
  </g>
</svg>
