<?xml version="1.0" encoding="UTF-8" standalone="no"?>
<!-- Created with Inkscape (http://www.inkscape.org/) -->

<svg
   version="1.1"
   id="svg2"
   width="298.61755"
   height="222.82214"
   viewBox="0 0 298.61755 222.82215"
   xmlns="http://www.w3.org/2000/svg"
   xmlns:svg="http://www.w3.org/2000/svg">
  <defs
     id="defs6">
    <clipPath
       clipPathUnits="userSpaceOnUse"
       id="clipPath1066">
      <path
         d="M 0,1600 H 1200 V 0 H 0 Z"
         id="path1064" />
    </clipPath>
  </defs>
  <g
     id="g8"
     transform="matrix(1.3333333,0,0,-1.3333333,-48.749222,1093.3703)">
    <g
       id="g1056"
       transform="translate(260.02539,709.20972)">
      <path
         d="M 0,0 -189.624,110.318 -222.963,58.989 -33.086,-51.079 Z"
         style="fill:#ffffff;fill-opacity:1;fill-rule:nonzero;stroke:none"
         id="path1058" />
    </g>
    <g
       id="g1060"
       transform="translate(-82.82761,81.274118)">
      <g
         id="g1062"
         clip-path="url(#clipPath1066)">
        <g
           id="g1068"
           transform="translate(120.5958,687.0942)">
          <path
             d="m 0,0 189.011,-109.566 32.541,50.24 L 32.794,50.487 Z m 189.172,-110.737 c -0.086,0 -0.172,0.021 -0.251,0.067 L -0.957,-0.602 c -0.118,0.069 -0.203,0.183 -0.235,0.317 -0.033,0.133 -0.008,0.273 0.067,0.389 l 33.34,51.328 c 0.143,0.222 0.442,0.294 0.67,0.16 L 222.508,-58.726 c 0.119,-0.069 0.203,-0.183 0.235,-0.316 0.032,-0.133 0.008,-0.273 -0.066,-0.388 l -33.085,-51.079 c -0.096,-0.147 -0.256,-0.228 -0.42,-0.228"
             style="fill:#cdcdcd;fill-opacity:1;fill-rule:nonzero;stroke:none"
             id="path1070" />
        </g>
        <g
           id="g1072"
           transform="translate(153.2294,738.2534)">
          <path
             d="m 0,0 -33.339,-51.328 5.687,-3.694 33.339,51.329 z"
             style="fill:#cdcdcd;fill-opacity:1;fill-rule:nonzero;stroke:none"
             id="path1074" />
        </g>
        <g
           id="g1076"
           transform="translate(164.7253,731.5888)">
          <path
             d="m 0,0 -33.338,-51.328 5.687,-3.693 33.338,51.328 z"
             style="fill:#cdcdcd;fill-opacity:1;fill-rule:nonzero;stroke:none"
             id="path1078" />
        </g>
        <g
           id="g1080"
           transform="translate(176.2212,724.9251)">
          <path
             d="m 0,0 -33.338,-51.328 5.687,-3.694 33.338,51.329 z"
             style="fill:#cdcdcd;fill-opacity:1;fill-rule:nonzero;stroke:none"
             id="path1082" />
        </g>
        <g
           id="g1084"
           transform="translate(187.718,718.2615)">
          <path
             d="m 0,0 -33.339,-51.329 5.687,-3.693 33.339,51.329 z"
             style="fill:#cdcdcd;fill-opacity:1;fill-rule:nonzero;stroke:none"
             id="path1086" />
        </g>
        <g
           id="g1088"
           transform="translate(199.2139,711.5968)">
          <path
             d="m 0,0 -33.339,-51.328 5.687,-3.693 33.339,51.328 z"
             style="fill:#cdcdcd;fill-opacity:1;fill-rule:nonzero;stroke:none"
             id="path1090" />
        </g>
        <g
           id="g1092"
           transform="translate(210.7098,704.9332)">
          <path
             d="m 0,0 -33.339,-51.329 5.687,-3.693 33.339,51.329 z"
             style="fill:#cdcdcd;fill-opacity:1;fill-rule:nonzero;stroke:none"
             id="path1094" />
        </g>
        <g
           id="g1096"
           transform="translate(222.2057,698.2695)">
          <path
             d="m 0,0 -33.339,-51.329 5.687,-3.693 33.339,51.329 z"
             style="fill:#cdcdcd;fill-opacity:1;fill-rule:nonzero;stroke:none"
             id="path1098" />
        </g>
        <g
           id="g1100"
           transform="translate(233.7016,691.6049)">
          <path
             d="m 0,0 -33.339,-51.329 5.687,-3.693 33.339,51.329 z"
             style="fill:#cdcdcd;fill-opacity:1;fill-rule:nonzero;stroke:none"
             id="path1102" />
        </g>
        <g
           id="g1104"
           transform="translate(245.1975,684.9412)">
          <path
             d="m 0,0 -33.338,-51.329 5.687,-3.693 33.338,51.329 z"
             style="fill:#cdcdcd;fill-opacity:1;fill-rule:nonzero;stroke:none"
             id="path1106" />
        </g>
        <g
           id="g1108"
           transform="translate(256.6934,678.2765)">
          <path
             d="m 0,0 -33.338,-51.328 5.687,-3.693 33.338,51.328 z"
             style="fill:#cdcdcd;fill-opacity:1;fill-rule:nonzero;stroke:none"
             id="path1110" />
        </g>
        <g
           id="g1112"
           transform="translate(268.1893,671.6129)">
          <path
             d="m 0,0 -33.338,-51.329 5.687,-3.693 33.338,51.329 z"
             style="fill:#cdcdcd;fill-opacity:1;fill-rule:nonzero;stroke:none"
             id="path1114" />
        </g>
        <g
           id="g1116"
           transform="translate(279.6861,664.9492)">
          <path
             d="m 0,0 -33.339,-51.329 5.687,-3.693 33.339,51.329 z"
             style="fill:#cdcdcd;fill-opacity:1;fill-rule:nonzero;stroke:none"
             id="path1118" />
        </g>
        <g
           id="g1120"
           transform="translate(291.182,658.2845)">
          <path
             d="m 0,0 -33.339,-51.328 5.687,-3.693 33.339,51.328 z"
             style="fill:#cdcdcd;fill-opacity:1;fill-rule:nonzero;stroke:none"
             id="path1122" />
        </g>
        <g
           id="g1124"
           transform="translate(302.6779,651.6208)">
          <path
             d="m 0,0 -33.339,-51.329 5.687,-3.693 33.339,51.329 z"
             style="fill:#cdcdcd;fill-opacity:1;fill-rule:nonzero;stroke:none"
             id="path1126" />
        </g>
        <g
           id="g1128"
           transform="translate(314.1738,644.9572)">
          <path
             d="m 0,0 -33.339,-51.328 5.687,-3.694 33.339,51.329 z"
             style="fill:#cdcdcd;fill-opacity:1;fill-rule:nonzero;stroke:none"
             id="path1130" />
        </g>
        <g
           id="g1132"
           transform="translate(325.6697,638.2925)">
          <path
             d="m 0,0 -33.339,-51.328 5.687,-3.693 33.339,51.328 z"
             style="fill:#cdcdcd;fill-opacity:1;fill-rule:nonzero;stroke:none"
             id="path1134" />
        </g>
        <g
           id="g1136"
           transform="translate(337.1656,631.6288)">
          <path
             d="m 0,0 -33.338,-51.329 5.687,-3.693 33.338,51.329 z"
             style="fill:#cdcdcd;fill-opacity:1;fill-rule:nonzero;stroke:none"
             id="path1138" />
        </g>
        <g
           id="g1140"
           transform="translate(125.4682,683.2354)">
          <path
             d="m 0,0 -4.931,2.859 -0.01,-2.135 c -0.008,-1.564 1.096,-3.474 2.456,-4.263 1.36,-0.789 2.468,-0.16 2.475,1.404 L 0,0"
             style="fill:#cdcdcd;fill-opacity:1;fill-rule:nonzero;stroke:none"
             id="path1142" />
        </g>
        <g
           id="g1144"
           transform="translate(125.8866,683.9393)">
          <path
             d="M 0,0 -5.752,3.335 C -5.981,3.468 -6.167,3.371 -6.168,3.107 L -6.18,0.496 c -0.01,-2.083 1.461,-4.633 3.272,-5.683 1.235,-0.716 2.316,-0.553 2.881,0.283 -0.258,0.693 -0.404,1.403 -0.401,2.065 l 0.012,2.611 C -0.415,0.036 -0.229,0.133 0,0 m -2.904,-4.243 c -1.36,0.789 -2.463,2.699 -2.456,4.264 l 0.01,2.134 4.932,-2.859 -0.01,-2.135 c -0.008,-1.564 -1.115,-2.193 -2.476,-1.404"
             style="fill:#cdcdcd;fill-opacity:1;fill-rule:nonzero;stroke:none"
             id="path1146" />
        </g>
        <g
           id="g1148"
           transform="translate(131.6312,680.6088)">
          <path
             d="M 0,0 -5.745,3.33 C -5.974,3.463 -6.16,3.366 -6.161,3.103 L -6.173,0.492 c -0.003,-0.663 0.143,-1.372 0.402,-2.065 0.555,-1.487 1.628,-2.898 2.863,-3.614 1.236,-0.717 2.321,-0.555 2.888,0.281 -0.258,0.693 -0.404,1.401 -0.401,2.063 l 0.012,2.611 C -0.408,0.032 -0.222,0.129 0,0 m -2.903,-4.243 c -1.353,0.784 -2.456,2.694 -2.449,4.259 l 0.01,2.135 4.931,-2.859 -0.01,-2.135 c -0.007,-1.565 -1.122,-2.189 -2.482,-1.4"
             style="fill:#cdcdcd;fill-opacity:1;fill-rule:nonzero;stroke:none"
             id="path1150" />
        </g>
        <g
           id="g1152"
           transform="translate(136.9648,676.5701)">
          <path
             d="M 0,0 -4.924,2.855 -4.934,0.72 c -0.007,-1.565 1.089,-3.47 2.449,-4.259 1.36,-0.789 2.468,-0.16 2.475,1.404 L 0,0"
             style="fill:#cdcdcd;fill-opacity:1;fill-rule:nonzero;stroke:none"
             id="path1154" />
        </g>
        <g
           id="g1156"
           transform="translate(137.3833,677.274)">
          <path
             d="M 0,0 -5.752,3.335 C -5.974,3.463 -6.16,3.366 -6.161,3.103 L -6.173,0.492 c -0.003,-0.662 0.143,-1.371 0.401,-2.063 0.555,-1.487 1.628,-2.9 2.864,-3.616 1.236,-0.717 2.317,-0.553 2.882,0.285 -0.259,0.693 -0.405,1.402 -0.402,2.063 l 0.012,2.611 C -0.415,0.036 -0.229,0.133 0,0 m -2.904,-4.243 c -1.36,0.789 -2.456,2.694 -2.448,4.259 l 0.01,2.135 4.924,-2.855 -0.01,-2.135 c -0.008,-1.564 -1.115,-2.193 -2.476,-1.404"
             style="fill:#cdcdcd;fill-opacity:1;fill-rule:nonzero;stroke:none"
             id="path1158" />
        </g>
        <g
           id="g1160"
           transform="translate(143.1278,673.9435)">
          <path
             d="M 0,0 -5.745,3.33 C -5.974,3.463 -6.16,3.366 -6.161,3.103 L -6.173,0.492 c -0.003,-0.662 0.144,-1.371 0.403,-2.064 0.557,-1.488 1.634,-2.903 2.87,-3.619 1.235,-0.717 2.315,-0.554 2.881,0.283 -0.259,0.693 -0.405,1.403 -0.402,2.065 l 0.012,2.611 C -0.408,0.032 -0.222,0.129 0,0 m -2.896,-4.247 c -1.36,0.788 -2.463,2.698 -2.456,4.263 l 0.01,2.135 4.931,-2.859 -0.01,-2.135 c -0.007,-1.565 -1.122,-2.189 -2.475,-1.404"
             style="fill:#cdcdcd;fill-opacity:1;fill-rule:nonzero;stroke:none"
             id="path1162" />
        </g>
        <g
           id="g1164"
           transform="translate(148.4689,669.9005)">
          <path
             d="m 0,0 -4.931,2.859 -0.01,-2.135 c -0.008,-1.564 1.096,-3.474 2.448,-4.259 1.361,-0.788 2.476,-0.164 2.483,1.4 L 0,0"
             style="fill:#cdcdcd;fill-opacity:1;fill-rule:nonzero;stroke:none"
             id="path1166" />
        </g>
        <g
           id="g1168"
           transform="translate(148.8799,670.6087)">
          <path
             d="M 0,0 -5.752,3.335 C -5.974,3.463 -6.16,3.366 -6.161,3.103 L -6.173,0.492 c -0.003,-0.663 0.143,-1.372 0.402,-2.065 0.555,-1.486 1.628,-2.898 2.863,-3.614 1.236,-0.717 2.321,-0.555 2.888,0.281 -0.258,0.693 -0.404,1.401 -0.401,2.063 l 0.012,2.611 C -0.408,0.032 -0.229,0.133 0,0 m -2.904,-4.243 c -1.352,0.784 -2.456,2.694 -2.448,4.259 l 0.01,2.135 4.931,-2.859 -0.01,-2.135 c -0.007,-1.565 -1.122,-2.189 -2.483,-1.4"
             style="fill:#cdcdcd;fill-opacity:1;fill-rule:nonzero;stroke:none"
             id="path1170" />
        </g>
        <g
           id="g1172"
           transform="translate(154.6319,667.2739)">
          <path
             d="M 0,0 -5.752,3.335 C -5.981,3.468 -6.16,3.366 -6.161,3.103 L -6.173,0.492 c -0.003,-0.662 0.143,-1.371 0.401,-2.063 0.555,-1.487 1.628,-2.9 2.864,-3.616 1.236,-0.717 2.317,-0.553 2.882,0.284 -0.259,0.693 -0.405,1.403 -0.402,2.064 l 0.012,2.611 C -0.415,0.036 -0.229,0.133 0,0 m -2.903,-4.243 c -1.361,0.789 -2.457,2.694 -2.449,4.259 l 0.01,2.135 4.924,-2.855 -0.01,-2.135 c -0.008,-1.564 -1.115,-2.193 -2.475,-1.404"
             style="fill:#cdcdcd;fill-opacity:1;fill-rule:nonzero;stroke:none"
             id="path1174" />
        </g>
        <g
           id="g1176"
           transform="translate(159.9656,663.2352)">
          <path
             d="m 0,0 -4.931,2.859 -0.01,-2.135 c -0.008,-1.564 1.096,-3.474 2.456,-4.263 1.353,-0.785 2.468,-0.16 2.475,1.404 L 0,0"
             style="fill:#cdcdcd;fill-opacity:1;fill-rule:nonzero;stroke:none"
             id="path1178" />
        </g>
        <g
           id="g1180"
           transform="translate(160.3766,663.9434)">
          <path
             d="M 0,0 -5.745,3.331 C -5.974,3.463 -6.16,3.366 -6.161,3.103 L -6.173,0.492 c -0.003,-0.662 0.144,-1.371 0.403,-2.064 0.556,-1.488 1.634,-2.903 2.87,-3.619 1.235,-0.716 2.315,-0.554 2.881,0.283 -0.259,0.693 -0.405,1.403 -0.402,2.065 l 0.012,2.611 C -0.408,0.032 -0.222,0.129 0,0 m -2.896,-4.247 c -1.36,0.788 -2.464,2.698 -2.456,4.263 l 0.01,2.135 4.931,-2.859 -0.01,-2.135 c -0.007,-1.565 -1.122,-2.189 -2.475,-1.404"
             style="fill:#cdcdcd;fill-opacity:1;fill-rule:nonzero;stroke:none"
             id="path1182" />
        </g>
        <g
           id="g1184"
           transform="translate(166.1286,660.6086)">
          <path
             d="M 0,0 -5.752,3.335 C -5.974,3.463 -6.16,3.366 -6.161,3.103 L -6.173,0.492 c -0.003,-0.663 0.143,-1.372 0.402,-2.065 0.555,-1.487 1.628,-2.898 2.863,-3.614 1.234,-0.715 2.317,-0.556 2.885,0.277 -0.261,0.696 -0.408,1.407 -0.405,2.071 l 0.012,2.611 C -0.415,0.036 -0.229,0.133 0,0 m -2.903,-4.243 c -1.361,0.789 -2.457,2.694 -2.449,4.259 l 0.01,2.135 4.924,-2.855 -0.01,-2.135 c -0.008,-1.564 -1.115,-2.193 -2.475,-1.404"
             style="fill:#cdcdcd;fill-opacity:1;fill-rule:nonzero;stroke:none"
             id="path1186" />
        </g>
        <g
           id="g1188"
           transform="translate(171.4622,656.5699)">
          <path
             d="M 0,0 -4.924,2.855 -4.934,0.72 c -0.007,-1.565 1.089,-3.47 2.449,-4.259 1.36,-0.789 2.468,-0.16 2.475,1.404 L 0,0"
             style="fill:#cdcdcd;fill-opacity:1;fill-rule:nonzero;stroke:none"
             id="path1190" />
        </g>
        <g
           id="g1192"
           transform="translate(171.8806,657.2739)">
          <path
             d="M 0,0 -5.752,3.335 C -5.981,3.468 -6.167,3.371 -6.168,3.107 L -6.18,0.496 c -0.003,-0.664 0.144,-1.376 0.405,-2.071 0.558,-1.486 1.633,-2.897 2.867,-3.612 1.236,-0.716 2.316,-0.553 2.882,0.283 -0.259,0.693 -0.405,1.403 -0.402,2.065 l 0.012,2.611 C -0.415,0.036 -0.229,0.133 0,0 m -2.903,-4.243 c -1.361,0.789 -2.456,2.694 -2.449,4.259 l 0.01,2.135 4.924,-2.855 -0.01,-2.135 c -0.008,-1.564 -1.115,-2.193 -2.475,-1.404"
             style="fill:#cdcdcd;fill-opacity:1;fill-rule:nonzero;stroke:none"
             id="path1194" />
        </g>
        <g
           id="g1196"
           transform="translate(177.6252,653.9434)">
          <path
             d="M 0,0 -5.745,3.331 C -5.974,3.463 -6.16,3.366 -6.161,3.103 L -6.173,0.492 c -0.003,-0.663 0.143,-1.372 0.402,-2.065 0.555,-1.487 1.63,-2.899 2.871,-3.618 1.235,-0.717 2.315,-0.554 2.881,0.283 -0.259,0.693 -0.405,1.403 -0.402,2.065 l 0.012,2.611 C -0.408,0.032 -0.222,0.129 0,0 m -2.896,-4.247 c -1.36,0.788 -2.464,2.698 -2.456,4.263 l 0.01,2.135 4.931,-2.859 -0.01,-2.135 c -0.007,-1.565 -1.122,-2.189 -2.475,-1.404"
             style="fill:#cdcdcd;fill-opacity:1;fill-rule:nonzero;stroke:none"
             id="path1198" />
        </g>
        <g
           id="g1200"
           transform="translate(182.9589,649.9046)">
          <path
             d="M 0,0 -4.924,2.855 -4.934,0.72 c -0.007,-1.565 1.089,-3.47 2.449,-4.259 1.36,-0.789 2.468,-0.16 2.475,1.404 L 0,0"
             style="fill:#cdcdcd;fill-opacity:1;fill-rule:nonzero;stroke:none"
             id="path1202" />
        </g>
        <g
           id="g1204"
           transform="translate(183.3772,650.6086)">
          <path
             d="M 0,0 -5.752,3.335 C -5.974,3.463 -6.16,3.366 -6.161,3.103 L -6.173,0.492 c -0.003,-0.663 0.143,-1.372 0.402,-2.065 0.555,-1.487 1.628,-2.898 2.863,-3.614 1.234,-0.715 2.317,-0.556 2.885,0.277 -0.261,0.696 -0.408,1.407 -0.405,2.071 l 0.012,2.611 C -0.415,0.036 -0.229,0.133 0,0 m -2.903,-4.243 c -1.361,0.789 -2.456,2.694 -2.449,4.259 l 0.01,2.135 4.924,-2.855 -0.01,-2.135 c -0.008,-1.564 -1.115,-2.193 -2.475,-1.404"
             style="fill:#cdcdcd;fill-opacity:1;fill-rule:nonzero;stroke:none"
             id="path1206" />
        </g>
        <g
           id="g1208"
           transform="translate(189.1293,647.2738)">
          <path
             d="M 0,0 -5.752,3.335 C -5.981,3.468 -6.167,3.371 -6.168,3.107 L -6.18,0.496 c -0.003,-0.664 0.144,-1.376 0.405,-2.071 0.558,-1.486 1.633,-2.897 2.867,-3.612 1.235,-0.716 2.316,-0.553 2.882,0.283 -0.259,0.693 -0.405,1.403 -0.402,2.065 l 0.012,2.611 C -0.415,0.036 -0.229,0.133 0,0 m -2.903,-4.243 c -1.361,0.789 -2.457,2.694 -2.449,4.259 l 0.01,2.135 4.924,-2.855 -0.01,-2.135 c -0.008,-1.564 -1.115,-2.193 -2.475,-1.404"
             style="fill:#cdcdcd;fill-opacity:1;fill-rule:nonzero;stroke:none"
             id="path1210" />
        </g>
        <g
           id="g1212"
           transform="translate(194.4629,643.235)">
          <path
             d="m 0,0 -4.931,2.859 -0.01,-2.135 c -0.007,-1.564 1.096,-3.474 2.449,-4.259 1.36,-0.789 2.475,-0.164 2.482,1.4 L 0,0"
             style="fill:#cdcdcd;fill-opacity:1;fill-rule:nonzero;stroke:none"
             id="path1214" />
        </g>
        <g
           id="g1216"
           transform="translate(194.8739,643.9433)">
          <path
             d="M 0,0 -5.745,3.331 C -5.974,3.463 -6.16,3.366 -6.161,3.103 L -6.173,0.492 c -0.003,-0.663 0.143,-1.372 0.402,-2.065 0.555,-1.487 1.628,-2.898 2.863,-3.614 1.236,-0.717 2.321,-0.555 2.888,0.281 -0.258,0.693 -0.404,1.401 -0.401,2.063 l 0.012,2.611 C -0.408,0.032 -0.229,0.133 0,0 m -2.903,-4.243 c -1.353,0.784 -2.456,2.694 -2.449,4.259 l 0.01,2.135 4.931,-2.859 -0.01,-2.135 c -0.007,-1.565 -1.122,-2.189 -2.482,-1.4"
             style="fill:#cdcdcd;fill-opacity:1;fill-rule:nonzero;stroke:none"
             id="path1218" />
        </g>
        <g
           id="g1220"
           transform="translate(200.626,640.6085)">
          <path
             d="M 0,0 -5.752,3.335 C -5.981,3.468 -6.16,3.367 -6.161,3.103 L -6.173,0.492 c -0.003,-0.662 0.143,-1.371 0.401,-2.063 0.555,-1.487 1.628,-2.9 2.864,-3.616 1.236,-0.717 2.317,-0.553 2.882,0.284 -0.259,0.694 -0.405,1.403 -0.402,2.064 l 0.012,2.611 C -0.415,0.036 -0.229,0.133 0,0 m -2.903,-4.243 c -1.361,0.789 -2.457,2.694 -2.449,4.259 l 0.01,2.135 4.924,-2.855 -0.01,-2.135 c -0.008,-1.564 -1.115,-2.193 -2.475,-1.404"
             style="fill:#cdcdcd;fill-opacity:1;fill-rule:nonzero;stroke:none"
             id="path1222" />
        </g>
        <g
           id="g1224"
           transform="translate(205.9595,636.5698)">
          <path
             d="m 0,0 -4.931,2.859 -0.01,-2.135 c -0.007,-1.564 1.096,-3.474 2.456,-4.263 1.353,-0.785 2.468,-0.16 2.475,1.404 L 0,0"
             style="fill:#cdcdcd;fill-opacity:1;fill-rule:nonzero;stroke:none"
             id="path1226" />
        </g>
        <g
           id="g1228"
           transform="translate(206.3779,637.2737)">
          <path
             d="M 0,0 -5.752,3.335 C -5.981,3.468 -6.167,3.371 -6.168,3.107 L -6.18,0.496 c -0.003,-0.662 0.143,-1.371 0.402,-2.064 0.557,-1.488 1.634,-2.903 2.87,-3.619 1.235,-0.716 2.316,-0.554 2.882,0.283 -0.259,0.693 -0.405,1.403 -0.402,2.065 l 0.012,2.611 C -0.415,0.036 -0.229,0.133 0,0 m -2.903,-4.243 c -1.361,0.789 -2.464,2.699 -2.457,4.263 l 0.01,2.135 4.932,-2.859 -0.01,-2.135 C -0.436,-4.403 -1.55,-5.028 -2.903,-4.243"
             style="fill:#cdcdcd;fill-opacity:1;fill-rule:nonzero;stroke:none"
             id="path1230" />
        </g>
        <g
           id="g1232"
           transform="translate(212.1226,633.9432)">
          <path
             d="M 0,0 -5.745,3.331 C -5.974,3.463 -6.16,3.366 -6.161,3.103 L -6.173,0.492 c -0.003,-0.663 0.143,-1.372 0.402,-2.065 0.555,-1.486 1.628,-2.898 2.863,-3.614 1.236,-0.717 2.32,-0.555 2.888,0.281 -0.258,0.693 -0.404,1.401 -0.401,2.063 l 0.012,2.611 C -0.408,0.032 -0.229,0.133 0,0 m -2.903,-4.243 c -1.353,0.784 -2.457,2.694 -2.449,4.259 l 0.01,2.135 4.931,-2.859 -0.01,-2.135 c -0.007,-1.565 -1.122,-2.189 -2.482,-1.4"
             style="fill:#cdcdcd;fill-opacity:1;fill-rule:nonzero;stroke:none"
             id="path1234" />
        </g>
        <g
           id="g1236"
           transform="translate(217.4563,629.9044)">
          <path
             d="M 0,0 -4.924,2.855 -4.934,0.72 c -0.007,-1.565 1.089,-3.47 2.449,-4.259 1.36,-0.789 2.468,-0.16 2.475,1.404 L 0,0"
             style="fill:#cdcdcd;fill-opacity:1;fill-rule:nonzero;stroke:none"
             id="path1238" />
        </g>
        <g
           id="g1240"
           transform="translate(217.8746,630.6084)">
          <path
             d="M 0,0 -5.752,3.335 C -5.981,3.468 -6.16,3.366 -6.161,3.103 L -6.173,0.492 c -0.003,-0.662 0.143,-1.371 0.401,-2.063 0.555,-1.487 1.628,-2.9 2.864,-3.616 1.236,-0.717 2.317,-0.553 2.882,0.284 -0.259,0.693 -0.405,1.403 -0.402,2.064 l 0.012,2.611 C -0.415,0.036 -0.229,0.133 0,0 m -2.903,-4.243 c -1.361,0.789 -2.456,2.694 -2.449,4.259 l 0.01,2.135 4.924,-2.855 -0.01,-2.135 c -0.008,-1.564 -1.115,-2.193 -2.475,-1.404"
             style="fill:#cdcdcd;fill-opacity:1;fill-rule:nonzero;stroke:none"
             id="path1242" />
        </g>
        <g
           id="g1244"
           transform="translate(223.6193,627.2779)">
          <path
             d="M 0,0 -5.745,3.331 C -5.974,3.463 -6.16,3.366 -6.161,3.103 L -6.173,0.492 c -0.003,-0.662 0.144,-1.371 0.403,-2.064 0.557,-1.488 1.634,-2.903 2.87,-3.619 1.235,-0.717 2.315,-0.554 2.881,0.283 -0.259,0.693 -0.405,1.403 -0.402,2.065 l 0.012,2.611 C -0.408,0.032 -0.222,0.129 0,0 m -2.896,-4.247 c -1.36,0.788 -2.464,2.698 -2.456,4.263 l 0.01,2.135 4.931,-2.859 -0.01,-2.135 c -0.007,-1.565 -1.122,-2.189 -2.475,-1.404"
             style="fill:#cdcdcd;fill-opacity:1;fill-rule:nonzero;stroke:none"
             id="path1246" />
        </g>
        <g
           id="g1248"
           transform="translate(228.9603,623.2349)">
          <path
             d="m 0,0 -4.931,2.859 -0.01,-2.135 c -0.007,-1.564 1.088,-3.47 2.449,-4.259 1.36,-0.789 2.475,-0.164 2.482,1.4 L 0,0"
             style="fill:#cdcdcd;fill-opacity:1;fill-rule:nonzero;stroke:none"
             id="path1250" />
        </g>
        <g
           id="g1252"
           transform="translate(229.3713,623.9431)">
          <path
             d="M 0,0 -5.752,3.335 C -5.974,3.463 -6.16,3.366 -6.161,3.103 L -6.173,0.492 c -0.003,-0.663 0.143,-1.372 0.402,-2.065 0.555,-1.487 1.628,-2.898 2.863,-3.614 1.236,-0.717 2.32,-0.555 2.888,0.281 -0.258,0.693 -0.404,1.401 -0.401,2.063 l 0.012,2.611 C -0.408,0.032 -0.229,0.133 0,0 m -2.903,-4.243 c -1.361,0.789 -2.456,2.694 -2.449,4.259 l 0.01,2.135 4.931,-2.859 -0.01,-2.135 c -0.007,-1.565 -1.122,-2.189 -2.482,-1.4"
             style="fill:#cdcdcd;fill-opacity:1;fill-rule:nonzero;stroke:none"
             id="path1254" />
        </g>
        <g
           id="g1256"
           transform="translate(235.1234,620.6083)">
          <path
             d="M 0,0 -5.752,3.335 C -5.981,3.468 -6.16,3.366 -6.161,3.103 L -6.173,0.492 c -0.003,-0.662 0.143,-1.371 0.401,-2.063 0.555,-1.487 1.628,-2.9 2.864,-3.616 1.236,-0.716 2.316,-0.553 2.882,0.283 -0.259,0.693 -0.405,1.403 -0.402,2.065 l 0.012,2.611 C -0.415,0.036 -0.229,0.133 0,0 m -2.903,-4.243 c -1.361,0.789 -2.457,2.694 -2.449,4.259 l 0.01,2.135 4.924,-2.855 -0.01,-2.135 c -0.008,-1.564 -1.115,-2.193 -2.475,-1.404"
             style="fill:#cdcdcd;fill-opacity:1;fill-rule:nonzero;stroke:none"
             id="path1258" />
        </g>
        <g
           id="g1260"
           transform="translate(240.4569,616.5696)">
          <path
             d="m 0,0 -4.931,2.859 -0.01,-2.135 c -0.007,-1.564 1.096,-3.474 2.456,-4.263 1.353,-0.785 2.468,-0.16 2.475,1.404 L 0,0"
             style="fill:#cdcdcd;fill-opacity:1;fill-rule:nonzero;stroke:none"
             id="path1262" />
        </g>
        <g
           id="g1264"
           transform="translate(240.8679,617.2778)">
          <path
             d="M 0,0 -5.745,3.331 C -5.974,3.463 -6.16,3.366 -6.161,3.103 L -6.173,0.492 c -0.003,-0.663 0.143,-1.372 0.402,-2.065 0.555,-1.487 1.63,-2.899 2.871,-3.618 1.235,-0.717 2.315,-0.554 2.881,0.283 -0.259,0.693 -0.405,1.403 -0.402,2.065 l 0.012,2.611 C -0.408,0.032 -0.222,0.129 0,0 m -2.896,-4.247 c -1.36,0.788 -2.463,2.698 -2.456,4.263 l 0.01,2.135 4.931,-2.859 -0.01,-2.135 c -0.007,-1.565 -1.122,-2.189 -2.475,-1.404"
             style="fill:#cdcdcd;fill-opacity:1;fill-rule:nonzero;stroke:none"
             id="path1266" />
        </g>
        <g
           id="g1268"
           transform="translate(246.62,613.943)">
          <path
             d="M 0,0 -5.752,3.335 C -5.974,3.463 -6.16,3.367 -6.161,3.103 L -6.173,0.492 c -0.003,-0.663 0.143,-1.372 0.402,-2.065 0.555,-1.486 1.628,-2.898 2.863,-3.614 1.234,-0.715 2.317,-0.556 2.885,0.277 -0.261,0.696 -0.408,1.407 -0.405,2.071 l 0.012,2.611 C -0.415,0.036 -0.229,0.133 0,0 m -2.903,-4.243 c -1.361,0.789 -2.457,2.694 -2.449,4.259 l 0.01,2.135 4.924,-2.855 -0.01,-2.135 c -0.008,-1.564 -1.115,-2.193 -2.475,-1.404"
             style="fill:#cdcdcd;fill-opacity:1;fill-rule:nonzero;stroke:none"
             id="path1270" />
        </g>
        <g
           id="g1272"
           transform="translate(251.9536,609.9043)">
          <path
             d="M 0,0 -4.924,2.855 -4.934,0.72 c -0.007,-1.565 1.089,-3.47 2.449,-4.259 1.36,-0.789 2.468,-0.16 2.475,1.404 L 0,0"
             style="fill:#cdcdcd;fill-opacity:1;fill-rule:nonzero;stroke:none"
             id="path1274" />
        </g>
        <g
           id="g1276"
           transform="translate(252.372,610.6083)">
          <path
             d="M 0,0 -5.752,3.335 C -5.981,3.468 -6.167,3.371 -6.168,3.107 L -6.18,0.496 c -0.003,-0.664 0.144,-1.376 0.405,-2.071 0.558,-1.486 1.633,-2.897 2.867,-3.612 1.235,-0.716 2.316,-0.554 2.882,0.283 -0.259,0.693 -0.405,1.403 -0.402,2.065 l 0.012,2.611 C -0.415,0.036 -0.229,0.133 0,0 m -2.903,-4.243 c -1.361,0.789 -2.456,2.694 -2.449,4.259 l 0.01,2.135 4.924,-2.855 -0.01,-2.135 c -0.008,-1.564 -1.115,-2.193 -2.475,-1.404"
             style="fill:#cdcdcd;fill-opacity:1;fill-rule:nonzero;stroke:none"
             id="path1278" />
        </g>
        <g
           id="g1280"
           transform="translate(258.1167,607.2777)">
          <path
             d="M 0,0 -5.745,3.331 C -5.974,3.463 -6.16,3.367 -6.161,3.103 L -6.173,0.492 c -0.003,-0.663 0.143,-1.372 0.402,-2.065 0.555,-1.486 1.628,-2.898 2.863,-3.614 1.236,-0.717 2.321,-0.555 2.888,0.281 -0.258,0.693 -0.404,1.401 -0.401,2.063 l 0.012,2.611 C -0.408,0.032 -0.222,0.129 0,0 m -2.903,-4.243 c -1.353,0.784 -2.457,2.694 -2.449,4.259 l 0.01,2.135 4.931,-2.859 -0.01,-2.135 c -0.007,-1.565 -1.122,-2.189 -2.482,-1.4"
             style="fill:#cdcdcd;fill-opacity:1;fill-rule:nonzero;stroke:none"
             id="path1282" />
        </g>
        <g
           id="g1284"
           transform="translate(263.4502,603.239)">
          <path
             d="M 0,0 -4.924,2.855 -4.934,0.72 c -0.007,-1.565 1.089,-3.47 2.449,-4.259 1.36,-0.789 2.468,-0.16 2.475,1.404 L 0,0"
             style="fill:#cdcdcd;fill-opacity:1;fill-rule:nonzero;stroke:none"
             id="path1286" />
        </g>
        <g
           id="g1288"
           transform="translate(263.8687,603.943)">
          <path
             d="M 0,0 -5.752,3.335 C -5.974,3.463 -6.16,3.366 -6.161,3.103 L -6.173,0.492 c -0.003,-0.662 0.143,-1.371 0.401,-2.063 0.555,-1.487 1.628,-2.9 2.864,-3.616 1.236,-0.717 2.317,-0.553 2.882,0.284 -0.259,0.693 -0.405,1.403 -0.402,2.064 l 0.012,2.611 C -0.415,0.036 -0.229,0.133 0,0 m -2.903,-4.243 c -1.361,0.789 -2.456,2.694 -2.449,4.259 l 0.01,2.135 4.924,-2.855 -0.01,-2.135 c -0.008,-1.564 -1.115,-2.193 -2.475,-1.404"
             style="fill:#cdcdcd;fill-opacity:1;fill-rule:nonzero;stroke:none"
             id="path1290" />
        </g>
        <g
           id="g1292"
           transform="translate(269.6207,600.6082)">
          <path
             d="M 0,0 -5.752,3.335 C -5.981,3.468 -6.167,3.371 -6.168,3.107 L -6.18,0.496 c -0.003,-0.662 0.143,-1.371 0.402,-2.064 0.557,-1.488 1.634,-2.903 2.87,-3.619 1.235,-0.716 2.316,-0.553 2.881,0.283 -0.258,0.693 -0.404,1.403 -0.401,2.065 l 0.012,2.611 C -0.415,0.036 -0.229,0.133 0,0 m -2.904,-4.243 c -1.36,0.789 -2.463,2.699 -2.456,4.264 l 0.01,2.134 4.932,-2.859 -0.01,-2.135 C -0.436,-4.403 -1.55,-5.028 -2.904,-4.243"
             style="fill:#cdcdcd;fill-opacity:1;fill-rule:nonzero;stroke:none"
             id="path1294" />
        </g>
        <g
           id="g1296"
           transform="translate(274.9543,596.5694)">
          <path
             d="m 0,0 -4.931,2.859 -0.01,-2.135 c -0.007,-1.564 1.096,-3.474 2.449,-4.259 1.36,-0.789 2.475,-0.164 2.482,1.4 L 0,0"
             style="fill:#cdcdcd;fill-opacity:1;fill-rule:nonzero;stroke:none"
             id="path1298" />
        </g>
        <g
           id="g1300"
           transform="translate(275.3653,597.2776)">
          <path
             d="M 0,0 -5.745,3.331 C -5.974,3.463 -6.16,3.366 -6.161,3.103 L -6.173,0.492 c -0.003,-0.663 0.143,-1.372 0.402,-2.065 0.555,-1.487 1.628,-2.898 2.863,-3.614 1.236,-0.717 2.321,-0.555 2.888,0.281 -0.258,0.693 -0.404,1.401 -0.401,2.063 l 0.012,2.611 C -0.408,0.032 -0.229,0.133 0,0 m -2.903,-4.243 c -1.353,0.784 -2.456,2.694 -2.449,4.259 l 0.01,2.135 4.931,-2.859 -0.01,-2.135 c -0.007,-1.565 -1.122,-2.189 -2.482,-1.4"
             style="fill:#cdcdcd;fill-opacity:1;fill-rule:nonzero;stroke:none"
             id="path1302" />
        </g>
        <g
           id="g1304"
           transform="translate(281.1174,593.9429)">
          <path
             d="M 0,0 -5.752,3.335 C -5.981,3.468 -6.16,3.366 -6.161,3.103 L -6.173,0.492 c -0.003,-0.662 0.143,-1.371 0.401,-2.063 0.555,-1.487 1.628,-2.9 2.864,-3.616 1.236,-0.717 2.317,-0.553 2.882,0.284 -0.259,0.693 -0.405,1.403 -0.402,2.064 l 0.012,2.611 C -0.415,0.036 -0.229,0.133 0,0 m -2.904,-4.243 c -1.36,0.789 -2.456,2.694 -2.448,4.259 l 0.01,2.135 4.924,-2.855 -0.01,-2.135 c -0.008,-1.564 -1.115,-2.193 -2.476,-1.404"
             style="fill:#cdcdcd;fill-opacity:1;fill-rule:nonzero;stroke:none"
             id="path1306" />
        </g>
        <g
           id="g1308"
           transform="translate(286.451,589.9041)">
          <path
             d="m 0,0 -4.931,2.859 -0.01,-2.135 c -0.007,-1.564 1.096,-3.474 2.456,-4.263 1.353,-0.785 2.468,-0.16 2.475,1.404 L 0,0"
             style="fill:#cdcdcd;fill-opacity:1;fill-rule:nonzero;stroke:none"
             id="path1310" />
        </g>
        <g
           id="g1312"
           transform="translate(286.862,590.6124)">
          <path
             d="M 0,0 -5.745,3.331 C -5.974,3.463 -6.16,3.366 -6.161,3.103 L -6.173,0.492 c -0.003,-0.662 0.144,-1.371 0.403,-2.064 0.557,-1.488 1.634,-2.903 2.87,-3.619 1.235,-0.717 2.315,-0.554 2.881,0.283 -0.259,0.693 -0.405,1.403 -0.402,2.065 l 0.012,2.611 C -0.408,0.032 -0.222,0.129 0,0 m -2.896,-4.247 c -1.36,0.788 -2.463,2.698 -2.456,4.263 l 0.01,2.135 4.931,-2.859 -0.01,-2.135 c -0.007,-1.565 -1.122,-2.189 -2.475,-1.404"
             style="fill:#cdcdcd;fill-opacity:1;fill-rule:nonzero;stroke:none"
             id="path1314" />
        </g>
        <g
           id="g1316"
           transform="translate(292.614,587.2776)">
          <path
             d="M 0,0 -5.752,3.335 C -5.974,3.463 -6.16,3.366 -6.161,3.103 L -6.173,0.492 c -0.003,-0.663 0.143,-1.372 0.402,-2.065 0.555,-1.487 1.628,-2.898 2.863,-3.614 1.236,-0.717 2.321,-0.555 2.888,0.281 -0.258,0.693 -0.404,1.401 -0.401,2.063 l 0.012,2.611 C -0.408,0.032 -0.229,0.133 0,0 m -2.904,-4.243 c -1.352,0.784 -2.456,2.694 -2.448,4.259 l 0.01,2.135 4.931,-2.859 -0.01,-2.135 c -0.007,-1.565 -1.122,-2.189 -2.483,-1.4"
             style="fill:#cdcdcd;fill-opacity:1;fill-rule:nonzero;stroke:none"
             id="path1318" />
        </g>
        <g
           id="g1320"
           transform="translate(297.9476,583.2388)">
          <path
             d="M 0,0 -4.924,2.855 -4.934,0.72 c -0.007,-1.565 1.089,-3.47 2.449,-4.259 1.36,-0.789 2.468,-0.16 2.475,1.404 L 0,0"
             style="fill:#cdcdcd;fill-opacity:1;fill-rule:nonzero;stroke:none"
             id="path1322" />
        </g>
        <g
           id="g1324"
           transform="translate(298.3661,583.9428)">
          <path
             d="M 0,0 -5.752,3.335 C -5.981,3.468 -6.16,3.366 -6.161,3.103 L -6.173,0.492 c -0.003,-0.662 0.143,-1.371 0.401,-2.063 0.555,-1.487 1.628,-2.9 2.864,-3.616 1.236,-0.716 2.316,-0.553 2.882,0.283 -0.259,0.694 -0.405,1.403 -0.402,2.065 l 0.012,2.611 C -0.415,0.036 -0.229,0.133 0,0 m -2.903,-4.243 c -1.361,0.789 -2.457,2.694 -2.449,4.259 l 0.01,2.135 4.924,-2.855 -0.01,-2.135 c -0.008,-1.564 -1.115,-2.193 -2.475,-1.404"
             style="fill:#cdcdcd;fill-opacity:1;fill-rule:nonzero;stroke:none"
             id="path1326" />
        </g>
        <g
           id="g1328"
           transform="translate(304.1107,580.6122)">
          <path
             d="M 0,0 -5.745,3.331 C -5.974,3.463 -6.16,3.367 -6.161,3.103 L -6.173,0.492 c -0.003,-0.663 0.143,-1.372 0.402,-2.065 0.555,-1.487 1.63,-2.899 2.871,-3.618 1.235,-0.716 2.315,-0.554 2.881,0.283 -0.259,0.693 -0.405,1.403 -0.402,2.065 l 0.012,2.611 C -0.408,0.032 -0.222,0.129 0,0 m -2.896,-4.247 c -1.36,0.788 -2.464,2.698 -2.456,4.263 l 0.01,2.135 4.931,-2.859 -0.01,-2.135 c -0.007,-1.565 -1.122,-2.189 -2.475,-1.404"
             style="fill:#cdcdcd;fill-opacity:1;fill-rule:nonzero;stroke:none"
             id="path1330" />
        </g>
        <g
           id="g1332"
           transform="translate(309.4443,576.5735)">
          <path
             d="M 0,0 -4.924,2.855 -4.934,0.72 c -0.007,-1.565 1.089,-3.47 2.449,-4.259 1.36,-0.789 2.468,-0.16 2.475,1.404 L 0,0"
             style="fill:#cdcdcd;fill-opacity:1;fill-rule:nonzero;stroke:none"
             id="path1334" />
        </g>
        <g
           id="g1336"
           transform="translate(309.8627,577.2775)">
          <path
             d="M 0,0 -5.752,3.335 C -5.974,3.463 -6.16,3.366 -6.161,3.103 L -6.173,0.492 c -0.003,-0.663 0.143,-1.372 0.402,-2.065 0.555,-1.487 1.628,-2.898 2.863,-3.614 1.812,-1.05 3.298,-0.215 3.308,1.868 l 0.012,2.611 C 0.413,-0.444 0.229,-0.133 0,0 m -2.903,-4.243 c -1.361,0.789 -2.457,2.694 -2.449,4.259 l 0.01,2.135 4.924,-2.855 -0.01,-2.135 c -0.008,-1.564 -1.115,-2.193 -2.475,-1.404"
             style="fill:#cdcdcd;fill-opacity:1;fill-rule:nonzero;stroke:none"
             id="path1338" />
        </g>
        <g
           id="g1340"
           transform="translate(278.2139,589.6998)">
          <path
             d="M 0,0 C -1.36,0.789 -2.456,2.694 -2.449,4.259 L -2.439,6.394 2.485,3.539 2.475,1.405 C 2.468,-0.16 1.36,-0.789 0,0"
             style="fill:#ffffff;fill-opacity:1;fill-rule:nonzero;stroke:none"
             id="path1342" />
        </g>
        <g
           id="g1344"
           transform="translate(301.2146,576.3649)">
          <path
             d="M 0,0 C -1.36,0.789 -2.464,2.699 -2.456,4.264 L -2.446,6.398 2.485,3.539 2.475,1.405 C 2.468,-0.16 1.353,-0.784 0,0"
             style="fill:#ffffff;fill-opacity:1;fill-rule:nonzero;stroke:none"
             id="path1346" />
        </g>
      </g>
    </g>
  </g>
</svg>
