<?xml version="1.0" encoding="UTF-8" standalone="no"?>
<!-- Created with Inkscape (http://www.inkscape.org/) -->

<svg
   version="1.1"
   id="svg2"
   width="98.142792"
   height="113.22974"
   viewBox="0 0 98.142792 113.22974"
   xmlns="http://www.w3.org/2000/svg"
   xmlns:svg="http://www.w3.org/2000/svg">
  <defs
     id="defs6">
    <clipPath
       clipPathUnits="userSpaceOnUse"
       id="clipPath598">
      <path
         d="M 0,1600 H 1200 V 0 H 0 Z"
         id="path596" />
    </clipPath>
  </defs>
  <g
     id="g8"
     transform="matrix(1.3333333,0,0,-1.3333333,-354.64401,1198.0081)">
    <g
       id="g588"
       transform="translate(294.00881,857.44688)">
      <path
         d="m 0,0 v -2.258 l -22.558,-13.026 v 2.258 z"
         style="fill:#cdcdcd;fill-opacity:1;fill-rule:nonzero;stroke:none"
         id="path590" />
    </g>
    <g
       id="g592"
       transform="translate(-186.47309,245.85218)">
      <g
         id="g594"
         clip-path="url(#clipPath598)">
        <g
           id="g600"
           transform="translate(458.4239,598.2797)">
          <path
             d="m 0,0 v -1.104 l 21.558,12.45 v 1.102 z m -0.5,-2.47 c -0.086,0 -0.173,0.023 -0.25,0.068 C -0.904,-2.313 -1,-2.148 -1,-1.97 v 2.259 c 0,0.179 0.096,0.344 0.25,0.433 l 22.558,13.025 c 0.154,0.09 0.345,0.09 0.5,0 0.154,-0.089 0.25,-0.254 0.25,-0.433 v -2.257 c 0,-0.179 -0.096,-0.344 -0.25,-0.433 L -0.25,-2.402 C -0.327,-2.447 -0.414,-2.47 -0.5,-2.47"
             style="fill:#cdcdcd;fill-opacity:1;fill-rule:nonzero;stroke:none"
             id="path602" />
        </g>
        <g
           id="g604"
           transform="translate(504.3541,608.8613)">
          <path
             d="m 0,0 v -2.258 l -22.558,-13.026 v 2.258 z"
             style="fill:#cdcdcd;fill-opacity:1;fill-rule:nonzero;stroke:none"
             id="path606" />
        </g>
        <g
           id="g608"
           transform="translate(482.296,595.5463)">
          <path
             d="m 0,0 v -1.104 l 21.558,12.45 0.001,1.103 z m -0.5,-2.47 c -0.086,0 -0.173,0.023 -0.25,0.068 C -0.904,-2.313 -1,-2.148 -1,-1.97 v 2.259 c 0,0.179 0.096,0.344 0.25,0.433 l 22.559,13.026 c 0.154,0.09 0.345,0.09 0.5,0 0.155,-0.089 0.25,-0.254 0.25,-0.433 l -0.001,-2.258 c 0,-0.179 -0.096,-0.344 -0.25,-0.433 L -0.25,-2.402 C -0.327,-2.447 -0.414,-2.47 -0.5,-2.47"
             style="fill:#cdcdcd;fill-opacity:1;fill-rule:nonzero;stroke:none"
             id="path610" />
        </g>
        <g
           id="g612"
           transform="translate(525.5304,644.0615)">
          <path
             d="M 0,0 C -0.013,-0.14 -0.022,-0.281 -0.048,-0.421 -0.069,-0.534 -0.103,-0.647 -0.133,-0.76 -0.168,-0.893 -0.2,-1.026 -0.247,-1.157 -0.285,-1.266 -0.336,-1.373 -0.383,-1.48 -0.443,-1.619 -0.503,-1.758 -0.577,-1.895 -0.63,-1.994 -0.694,-2.091 -0.755,-2.189 -0.851,-2.345 -0.952,-2.5 -1.066,-2.652 -1.134,-2.742 -1.207,-2.831 -1.281,-2.92 -1.451,-3.126 -1.639,-3.327 -1.843,-3.525 -1.916,-3.596 -1.982,-3.668 -2.06,-3.738 -2.186,-3.852 -2.326,-3.961 -2.464,-4.072 -2.586,-4.17 -2.704,-4.27 -2.835,-4.366 -2.984,-4.474 -3.148,-4.577 -3.308,-4.681 -3.475,-4.79 -3.633,-4.901 -3.813,-5.005 -4.208,-5.235 -4.627,-5.441 -5.058,-5.635 -5.182,-5.691 -5.31,-5.744 -5.437,-5.797 -5.773,-5.938 -6.118,-6.068 -6.471,-6.188 -6.6,-6.232 -6.727,-6.28 -6.858,-6.321 c -0.223,-0.07 -0.451,-0.132 -0.679,-0.194 -0.174,-0.047 -0.347,-0.098 -0.524,-0.141 -0.24,-0.058 -0.484,-0.106 -0.728,-0.155 -0.169,-0.034 -0.335,-0.072 -0.505,-0.103 -0.497,-0.087 -1.001,-0.156 -1.509,-0.209 -0.155,-0.017 -0.312,-0.027 -0.468,-0.04 -0.301,-0.025 -0.601,-0.047 -0.903,-0.06 -0.191,-0.008 -0.382,-0.012 -0.574,-0.016 -0.243,-0.004 -0.486,-0.006 -0.729,-0.003 -0.203,0.003 -0.406,0.009 -0.608,0.017 -0.225,0.009 -0.45,0.02 -0.674,0.036 -0.205,0.014 -0.409,0.031 -0.613,0.051 -0.222,0.021 -0.443,0.046 -0.664,0.074 -0.198,0.025 -0.396,0.053 -0.593,0.084 -0.236,0.036 -0.471,0.078 -0.705,0.122 -0.184,0.035 -0.367,0.071 -0.549,0.111 -0.278,0.061 -0.553,0.13 -0.825,0.203 -0.151,0.04 -0.304,0.077 -0.453,0.121 -0.486,0.142 -0.961,0.301 -1.421,0.479 -0.226,0.089 -0.446,0.186 -0.665,0.283 -0.114,0.051 -0.232,0.097 -0.344,0.15 -0.334,0.158 -0.658,0.326 -0.97,0.506 -2.608,1.506 -3.911,3.488 -3.906,5.467 l -0.115,-40.758 c -0.006,-1.979 1.297,-3.961 3.906,-5.468 0.311,-0.18 0.636,-0.347 0.97,-0.506 0.111,-0.052 0.228,-0.098 0.342,-0.149 0.196,-0.087 0.389,-0.177 0.592,-0.257 0.024,-0.01 0.051,-0.016 0.075,-0.026 0.459,-0.178 0.934,-0.337 1.42,-0.479 0.039,-0.011 0.074,-0.027 0.112,-0.038 0.112,-0.032 0.229,-0.054 0.342,-0.084 0.272,-0.072 0.546,-0.141 0.825,-0.202 0.073,-0.016 0.143,-0.038 0.216,-0.053 0.109,-0.023 0.223,-0.037 0.333,-0.058 0.233,-0.044 0.468,-0.086 0.704,-0.122 0.094,-0.015 0.185,-0.036 0.279,-0.049 0.104,-0.015 0.21,-0.022 0.315,-0.035 0.22,-0.028 0.441,-0.053 0.663,-0.074 0.105,-0.01 0.209,-0.027 0.314,-0.035 0.1,-0.008 0.2,-0.009 0.299,-0.016 0.225,-0.016 0.449,-0.027 0.674,-0.036 0.113,-0.005 0.224,-0.016 0.337,-0.018 0.091,-0.003 0.181,0.002 0.272,10e-4 0.243,-0.003 0.486,-10e-4 0.729,0.003 0.12,0.003 0.241,-0.002 0.361,0.002 0.071,0.002 0.141,0.011 0.212,0.014 0.302,0.013 0.603,0.035 0.903,0.06 0.12,0.01 0.241,0.012 0.36,0.024 0.037,0.004 0.072,0.012 0.109,0.015 0.508,0.054 1.012,0.123 1.508,0.21 0.025,0.005 0.052,0.007 0.077,0.011 0.145,0.026 0.284,0.062 0.428,0.092 0.244,0.049 0.489,0.097 0.728,0.155 0.178,0.043 0.35,0.094 0.524,0.141 0.228,0.062 0.456,0.124 0.679,0.194 0.05,0.015 0.102,0.027 0.151,0.043 0.082,0.026 0.156,0.062 0.237,0.09 0.353,0.12 0.697,0.25 1.033,0.391 0.128,0.053 0.255,0.105 0.38,0.162 0.43,0.194 0.85,0.4 1.245,0.63 0.054,0.031 0.108,0.063 0.161,0.095 0.123,0.073 0.228,0.153 0.344,0.229 0.16,0.105 0.324,0.207 0.472,0.315 0.132,0.096 0.25,0.196 0.372,0.294 0.138,0.111 0.278,0.22 0.404,0.334 0.025,0.022 0.055,0.043 0.08,0.065 0.051,0.048 0.087,0.1 0.136,0.148 0.204,0.198 0.392,0.399 0.563,0.604 0.037,0.045 0.086,0.087 0.122,0.132 0.035,0.045 0.059,0.092 0.092,0.137 0.114,0.152 0.215,0.306 0.311,0.462 0.04,0.065 0.093,0.127 0.131,0.193 0.019,0.034 0.029,0.069 0.048,0.103 0.073,0.136 0.133,0.275 0.193,0.413 0.035,0.08 0.082,0.159 0.112,0.239 0.011,0.028 0.014,0.056 0.024,0.084 0.047,0.133 0.08,0.266 0.115,0.399 0.023,0.089 0.058,0.176 0.076,0.265 0.005,0.024 0.004,0.049 0.008,0.073 0.026,0.14 0.036,0.28 0.048,0.421 0.008,0.09 0.029,0.179 0.031,0.269 0.001,0.039 0.002,0.078 0.002,0.117 L 0.033,0.386 C 0.032,0.257 0.011,0.129 0,0"
             style="fill:#ffffff;fill-opacity:1;fill-rule:nonzero;stroke:none"
             id="path614" />
        </g>
        <g
           id="g616"
           transform="translate(514.4552,596.6625)">
          <path
             d="M 0,0 0.157,-0.482 0.105,0.015 C 0.602,0.066 1.094,0.134 1.578,0.22 1.73,0.244 1.803,0.261 1.876,0.277 l 0.197,0.042 c 0.287,0.059 0.5,0.102 0.708,0.153 0.128,0.03 0.253,0.065 0.379,0.1 l 0.131,0.036 c 0.275,0.076 0.471,0.129 0.662,0.189 l 0.3,-0.434 -0.154,0.476 0.23,0.087 c 0.341,0.116 0.675,0.243 1,0.379 l 0.364,0.156 c 0.48,0.216 0.861,0.408 1.203,0.607 l 0.151,0.089 c 0.066,0.04 0.125,0.081 0.183,0.121 l 0.248,0.164 c 0.12,0.079 0.24,0.156 0.351,0.237 0.097,0.07 0.185,0.142 0.273,0.214 l 0.08,0.065 c 0.181,0.145 0.288,0.23 0.384,0.316 0.002,0.002 0.075,0.062 0.077,0.064 0.008,0.011 0.114,0.125 0.124,0.135 0.191,0.186 0.368,0.374 0.526,0.566 0.01,0.012 0.076,0.083 0.087,0.094 0.006,0.009 0.102,0.14 0.108,0.149 0.111,0.147 0.202,0.288 0.29,0.431 l 0.078,0.114 c 0.056,0.095 0.07,0.127 0.087,0.158 0.066,0.122 0.12,0.246 0.174,0.372 l 0.061,0.126 c 0.014,0.031 0.031,0.061 0.042,0.091 0.055,0.172 0.08,0.269 0.105,0.364 l 0.058,0.203 c 0.011,0.034 0.023,0.069 0.03,0.103 0.026,0.171 0.034,0.274 0.043,0.377 l 0.023,0.2 c 0.004,0.033 0.01,0.067 0.011,0.1 L 10.492,7.027 10.6,44.719 C 10.535,44.621 10.474,44.534 10.409,44.447 10.338,44.352 10.26,44.256 10.181,44.16 9.999,43.941 9.797,43.726 9.581,43.516 L 9.51,43.444 C 9.458,43.393 9.406,43.34 9.35,43.289 9.239,43.188 9.115,43.09 8.992,42.991 L 8.845,42.873 C 8.744,42.791 8.644,42.709 8.535,42.63 8.412,42.539 8.278,42.453 8.145,42.366 L 7.898,42.205 C 7.774,42.123 7.65,42.04 7.514,41.961 7.144,41.745 6.733,41.538 6.224,41.308 L 5.882,41.161 C 5.484,40.995 5.129,40.861 4.766,40.737 L 4.672,40.704 C 4.57,40.669 4.47,40.633 4.365,40.601 4.158,40.535 3.945,40.477 3.731,40.418 L 3.498,40.354 C 3.377,40.32 3.256,40.287 3.133,40.257 2.885,40.198 2.635,40.147 2.384,40.098 L 2.216,40.063 C 2.101,40.038 1.985,40.014 1.869,39.993 1.359,39.903 0.844,39.832 0.324,39.778 0.212,39.766 0.098,39.758 -0.018,39.749 L -0.156,39.738 C -0.46,39.712 -0.768,39.69 -1.076,39.677 -1.273,39.668 -1.468,39.664 -1.663,39.66 -1.911,39.655 -2.16,39.654 -2.409,39.657 c -0.205,0.002 -0.413,0.009 -0.62,0.017 -0.231,0.01 -0.46,0.021 -0.69,0.037 -0.208,0.014 -0.417,0.032 -0.626,0.052 -0.227,0.022 -0.454,0.047 -0.679,0.076 -0.204,0.026 -0.406,0.055 -0.608,0.086 -0.239,0.037 -0.479,0.08 -0.719,0.125 -0.19,0.036 -0.379,0.073 -0.564,0.114 -0.284,0.062 -0.566,0.133 -0.846,0.207 l -0.132,0.034 c -0.111,0.03 -0.223,0.058 -0.334,0.091 -0.508,0.148 -1.001,0.314 -1.461,0.493 -0.235,0.092 -0.461,0.192 -0.688,0.292 l -0.107,0.046 c -0.084,0.035 -0.168,0.071 -0.249,0.111 -0.344,0.162 -0.68,0.336 -1.003,0.522 -1.393,0.805 -2.461,1.756 -3.165,2.799 L -15.007,7.103 c -0.006,-1.883 1.293,-3.67 3.656,-5.035 0.301,-0.173 0.613,-0.335 0.934,-0.487 L -9.934,1.369 C -9.795,1.307 -9.656,1.244 -9.513,1.187 -8.994,0.99 -8.533,0.835 -8.062,0.698 -8.06,0.697 -7.955,0.661 -7.953,0.661 l 0.33,-0.08 c 0.268,-0.071 0.535,-0.14 0.808,-0.199 l 0.533,-0.108 c 0.23,-0.044 0.459,-0.084 0.69,-0.12 l 0.576,-0.081 c 0.219,-0.027 0.435,-0.052 0.652,-0.072 l 0.604,-0.052 c 0.213,-0.013 0.434,-0.025 0.654,-0.033 l 0.445,-0.019 0.155,0.001 c 0.232,-0.002 0.47,0 0.708,0.004 l 0.351,0.002 c 0.007,0 0.205,0.013 0.212,0.014 0.295,0.012 0.588,0.034 0.881,0.059 z m -2.283,-1.103 c -0.079,0 -0.159,0 -0.239,10e-4 l -0.625,0.018 c -0.228,0.01 -0.457,0.022 -0.684,0.036 l -0.632,0.054 c -0.226,0.021 -0.451,0.046 -0.677,0.075 l -0.606,0.085 c -0.243,0.038 -0.484,0.08 -0.723,0.126 l -0.471,0.092 c -0.376,0.085 -0.657,0.155 -0.936,0.229 l -0.134,0.033 c -0.071,0.016 -0.143,0.033 -0.214,0.052 -0.013,0.003 -0.087,0.029 -0.099,0.032 -0.527,0.156 -1.019,0.322 -1.48,0.501 -0.235,0.089 -0.387,0.158 -0.541,0.226 l -0.284,0.125 c -0.073,0.03 -0.145,0.062 -0.217,0.095 -0.346,0.164 -0.683,0.339 -1.007,0.526 -2.685,1.55 -4.162,3.647 -4.155,5.902 l 0.115,40.757 v 10e-4 c 10e-4,0.276 0.225,0.498 0.5,0.498 h 10e-4 c 0.277,-10e-4 0.5,-0.225 0.499,-0.501 v -10e-4 c -0.005,-1.88 1.293,-3.668 3.657,-5.033 0.299,-0.173 0.612,-0.334 0.933,-0.486 0.07,-0.033 0.137,-0.062 0.205,-0.09 l 0.125,-0.054 c 0.215,-0.095 0.428,-0.189 0.648,-0.275 0.445,-0.174 0.906,-0.328 1.378,-0.465 0.101,-0.03 0.203,-0.057 0.304,-0.082 l 0.137,-0.036 c 0.266,-0.07 0.532,-0.138 0.804,-0.197 0.179,-0.039 0.357,-0.075 0.536,-0.109 0.227,-0.043 0.456,-0.084 0.686,-0.119 0.196,-0.031 0.388,-0.058 0.582,-0.082 0.215,-0.027 0.432,-0.052 0.648,-0.072 0.199,-0.02 0.398,-0.036 0.599,-0.05 0.219,-0.016 0.439,-0.027 0.66,-0.035 0.197,-0.008 0.395,-0.015 0.594,-0.017 0.242,-0.003 0.479,-0.002 0.715,0.003 0.186,0.004 0.374,0.008 0.562,0.016 0.293,0.012 0.587,0.034 0.881,0.058 l 0.458,0.038 c 0.497,0.052 0.989,0.12 1.474,0.206 0.106,0.018 0.21,0.041 0.315,0.063 l 0.178,0.037 c 0.239,0.048 0.477,0.095 0.711,0.151 0.111,0.028 0.222,0.058 0.333,0.089 l 0.178,0.049 c 0.259,0.071 0.46,0.126 0.657,0.188 0.094,0.029 0.183,0.06 0.272,0.092 l 0.102,0.036 c 0.345,0.118 0.679,0.244 1.004,0.38 l 0.37,0.158 c 0.476,0.214 0.857,0.407 1.198,0.605 0.117,0.069 0.225,0.141 0.334,0.212 l 0.256,0.168 c 0.118,0.076 0.235,0.151 0.343,0.231 0.094,0.069 0.181,0.139 0.268,0.21 l 0.084,0.069 c 0.179,0.142 0.285,0.227 0.383,0.315 l 0.204,0.201 c 0.19,0.185 0.367,0.373 0.526,0.566 0.067,0.081 0.135,0.163 0.197,0.247 0.107,0.142 0.2,0.283 0.287,0.426 0.087,0.14 0.128,0.204 0.163,0.268 0.064,0.119 0.115,0.237 0.166,0.355 10e-4,10e-4 0.047,0.105 0.048,0.106 0.03,0.07 0.061,0.138 0.085,0.207 0.036,0.098 0.06,0.196 0.085,0.292 l 0.044,0.164 c 0.019,0.07 0.037,0.139 0.051,0.208 0.018,0.099 0.027,0.201 0.035,0.303 0,10e-4 0.006,0.069 0.006,0.069 l 0.014,0.131 c 0.008,0.072 0.016,0.144 0.017,0.215 0.002,0.274 0.226,0.496 0.5,0.496 h 0.003 c 0.276,-10e-4 0.498,-0.225 0.497,-0.501 L 11.49,6.897 C 11.488,6.826 11.479,6.752 11.469,6.679 L 11.452,6.534 C 11.44,6.398 11.428,6.262 11.402,6.127 11.38,5.979 11.358,5.908 11.336,5.837 L 10.827,5.882 11.293,5.687 C 11.261,5.562 11.228,5.438 11.184,5.315 11.183,5.311 11.156,5.222 11.154,5.217 11.133,5.16 11.102,5.097 11.07,5.033 10.971,4.812 10.903,4.66 10.823,4.511 10.806,4.469 10.792,4.437 10.774,4.405 10.74,4.345 10.705,4.294 10.668,4.243 10.526,4.02 10.417,3.854 10.294,3.689 10.251,3.622 10.224,3.58 10.19,3.538 10.18,3.524 10.102,3.439 10.089,3.427 9.883,3.183 9.683,2.968 9.465,2.757 9.396,2.68 9.359,2.638 9.315,2.599 9.313,2.596 9.24,2.535 9.237,2.533 9.124,2.431 9.002,2.333 8.88,2.236 L 8.733,2.117 C 8.631,2.034 8.529,1.951 8.418,1.871 8.293,1.779 8.157,1.691 8.021,1.603 L 7.798,1.455 C 7.724,1.403 7.648,1.352 7.565,1.303 L 7.398,1.203 C 7.026,0.987 6.615,0.779 6.107,0.55 6.013,0.507 5.915,0.466 5.816,0.425 L 5.717,0.383 C 5.369,0.237 5.014,0.103 4.65,-0.021 4.511,-0.075 4.461,-0.095 4.407,-0.112 4.4,-0.114 4.31,-0.142 4.302,-0.144 4.048,-0.221 3.842,-0.277 3.635,-0.334 L 3.428,-0.392 C 3.291,-0.43 3.155,-0.467 3.016,-0.501 2.796,-0.554 2.571,-0.6 2.347,-0.646 l -0.25,-0.052 c -0.089,-0.021 -0.178,-0.04 -0.268,-0.056 -0.585,-0.1 -1.1,-0.172 -1.62,-0.225 -0.001,0 -0.11,-0.016 -0.111,-0.017 -0.075,-0.007 -0.149,-0.011 -0.223,-0.015 L -0.271,-1.02 c -0.306,-0.026 -0.613,-0.048 -0.923,-0.062 l -0.219,-0.014 c -0.071,-0.003 -0.149,-0.002 -0.23,-0.002 H -1.78 c -0.167,-0.003 -0.334,-0.005 -0.503,-0.005"
             style="fill:#cdcdcd;fill-opacity:1;fill-rule:nonzero;stroke:none"
             id="path618" />
        </g>
        <g
           id="g620"
           transform="translate(521.6568,649.9156)">
          <path
             d="m 0,0 c 5.184,-2.993 5.212,-7.866 0.061,-10.86 -5.151,-2.993 -13.564,-2.993 -18.748,0 -5.184,2.993 -5.212,7.867 -0.061,10.86 C -13.597,2.993 -5.184,2.993 0,0"
             style="fill:#ffffff;fill-opacity:1;fill-rule:nonzero;stroke:none"
             id="path622" />
        </g>
        <g
           id="g624"
           transform="translate(512.2697,651.6684)">
          <path
             d="m 0,0 c -3.304,0 -6.603,-0.729 -9.11,-2.186 -2.322,-1.348 -3.599,-3.117 -3.596,-4.977 0.003,-1.875 1.301,-3.656 3.656,-5.017 5.048,-2.914 13.235,-2.913 18.247,0 2.322,1.349 3.599,3.117 3.596,4.978 -0.003,1.875 -1.301,3.656 -3.656,5.016 C 6.613,-0.729 3.305,0 0,0 m 0.087,-15.351 c -3.485,0 -6.975,0.769 -9.637,2.306 -2.677,1.545 -4.153,3.634 -4.156,5.881 -0.003,2.232 1.45,4.308 4.094,5.844 5.291,3.074 13.926,3.074 19.249,0 2.676,-1.545 4.153,-3.634 4.156,-5.881 0.003,-2.233 -1.45,-4.308 -4.094,-5.844 -2.644,-1.537 -6.127,-2.306 -9.612,-2.306"
             style="fill:#cdcdcd;fill-opacity:1;fill-rule:nonzero;stroke:none"
             id="path626" />
        </g>
        <g
           id="g628"
           transform="translate(477.0551,612.5179)">
          <path
             d="m 0,0 v -31.26 l -22.558,-13.026 v 31.26 z"
             style="fill:#ffffff;fill-opacity:1;fill-rule:nonzero;stroke:none"
             id="path630" />
        </g>
        <g
           id="g632"
           transform="translate(454.9972,599.2026)">
          <path
             d="m 0,0 v -30.104 l 21.558,12.449 v 30.104 z m -0.5,-31.471 c -0.086,0 -0.173,0.023 -0.25,0.068 -0.154,0.089 -0.25,0.254 -0.25,0.432 v 31.26 c 0,0.179 0.096,0.344 0.25,0.433 l 22.558,13.026 c 0.154,0.09 0.345,0.09 0.5,0 0.154,-0.089 0.25,-0.254 0.25,-0.433 v -31.259 c 0,-0.179 -0.096,-0.344 -0.25,-0.433 L -0.25,-31.403 c -0.077,-0.045 -0.164,-0.068 -0.25,-0.068"
             style="fill:#cdcdcd;fill-opacity:1;fill-rule:nonzero;stroke:none"
             id="path634" />
        </g>
        <g
           id="g636"
           transform="translate(456.7533,600.7941)">
          <path
             d="M 0,0 V -31.26"
             style="fill:#ffffff;fill-opacity:1;fill-rule:nonzero;stroke:none"
             id="path638" />
        </g>
        <path
           d="m 457.253,569.535 h -1 v 31.26 h 1 z"
           style="fill:#cdcdcd;fill-opacity:1;fill-rule:nonzero;stroke:none"
           id="path640" />
        <g
           id="g642"
           transform="translate(459.009,602.0968)">
          <path
             d="M 0,0 V -31.26"
             style="fill:#ffffff;fill-opacity:1;fill-rule:nonzero;stroke:none"
             id="path644" />
        </g>
        <path
           d="m 459.509,570.836 h -1 v 31.261 h 1 z"
           style="fill:#cdcdcd;fill-opacity:1;fill-rule:nonzero;stroke:none"
           id="path646" />
        <g
           id="g648"
           transform="translate(461.2648,603.3994)">
          <path
             d="M 0,0 V -31.26"
             style="fill:#ffffff;fill-opacity:1;fill-rule:nonzero;stroke:none"
             id="path650" />
        </g>
        <path
           d="m 461.765,572.139 h -1 V 603.4 h 1 z"
           style="fill:#cdcdcd;fill-opacity:1;fill-rule:nonzero;stroke:none"
           id="path652" />
        <g
           id="g654"
           transform="translate(463.6185,604.7021)">
          <path
             d="M 0,0 V -31.26"
             style="fill:#ffffff;fill-opacity:1;fill-rule:nonzero;stroke:none"
             id="path656" />
        </g>
        <path
           d="m 464.118,573.442 h -1 v 31.261 h 1 z"
           style="fill:#cdcdcd;fill-opacity:1;fill-rule:nonzero;stroke:none"
           id="path658" />
        <g
           id="g660"
           transform="translate(465.7763,606.0047)">
          <path
             d="M 0,0 V -31.26"
             style="fill:#ffffff;fill-opacity:1;fill-rule:nonzero;stroke:none"
             id="path662" />
        </g>
        <path
           d="m 466.276,574.745 h -1 v 31.26 h 1 z"
           style="fill:#cdcdcd;fill-opacity:1;fill-rule:nonzero;stroke:none"
           id="path664" />
        <g
           id="g666"
           transform="translate(468.0321,607.3074)">
          <path
             d="M 0,0 V -31.26"
             style="fill:#ffffff;fill-opacity:1;fill-rule:nonzero;stroke:none"
             id="path668" />
        </g>
        <path
           d="m 468.532,576.047 h -1 v 31.26 h 1 z"
           style="fill:#cdcdcd;fill-opacity:1;fill-rule:nonzero;stroke:none"
           id="path670" />
        <g
           id="g672"
           transform="translate(470.2878,608.61)">
          <path
             d="M 0,0 V -31.26"
             style="fill:#ffffff;fill-opacity:1;fill-rule:nonzero;stroke:none"
             id="path674" />
        </g>
        <path
           d="m 470.788,577.35 h -1 v 31.26 h 1 z"
           style="fill:#cdcdcd;fill-opacity:1;fill-rule:nonzero;stroke:none"
           id="path676" />
        <g
           id="g678"
           transform="translate(472.5436,609.9127)">
          <path
             d="M 0,0 V -31.26"
             style="fill:#ffffff;fill-opacity:1;fill-rule:nonzero;stroke:none"
             id="path680" />
        </g>
        <g
           id="g682"
           transform="translate(473.0431,578.6528)">
          <path
             d="m 0,0 h -1 l 0.001,31.26 h 1 z"
             style="fill:#cdcdcd;fill-opacity:1;fill-rule:nonzero;stroke:none"
             id="path684" />
        </g>
        <g
           id="g686"
           transform="translate(474.7994,611.2153)">
          <path
             d="M 0,0 V -31.26"
             style="fill:#ffffff;fill-opacity:1;fill-rule:nonzero;stroke:none"
             id="path688" />
        </g>
        <path
           d="m 475.299,579.956 h -1 v 31.26 h 1 z"
           style="fill:#cdcdcd;fill-opacity:1;fill-rule:nonzero;stroke:none"
           id="path690" />
        <g
           id="g692"
           transform="translate(454.4971,599.4917)">
          <path
             d="m 0,0 -0.227,0.131 22.558,13.026 0.227,-0.131 z"
             style="fill:#cdcdcd;fill-opacity:1;fill-rule:nonzero;stroke:none"
             id="path694" />
        </g>
        <g
           id="g696"
           transform="translate(454.4972,598.9916)">
          <path
             d="m 0,0 c -0.086,0 -0.172,0.022 -0.249,0.066 l -0.228,0.131 c -0.155,0.089 -0.251,0.254 -0.251,0.434 0,0.179 0.095,0.344 0.25,0.432 L 22.081,14.09 c 0.154,0.09 0.346,0.09 0.5,0 l 0.227,-0.131 c 0.154,-0.089 0.25,-0.254 0.25,-0.433 0,-0.178 -0.096,-0.343 -0.25,-0.432 L 0.25,0.067 C 0.173,0.022 0.086,0 0,0"
             style="fill:#cdcdcd;fill-opacity:1;fill-rule:nonzero;stroke:none"
             id="path698" />
        </g>
        <g
           id="g700"
           transform="translate(454.2699,599.6229)">
          <path
             d="m 0,0 0.227,-0.131 v -31.26 L 0,-31.26 Z"
             style="fill:#cdcdcd;fill-opacity:1;fill-rule:nonzero;stroke:none"
             id="path702" />
        </g>
        <g
           id="g704"
           transform="translate(454.4972,567.7319)">
          <path
             d="m 0,0 c -0.086,0 -0.172,0.022 -0.249,0.066 l -0.228,0.131 c -0.155,0.09 -0.251,0.255 -0.251,0.434 v 31.26 c 0,0.178 0.095,0.343 0.25,0.432 0.154,0.09 0.344,0.089 0.499,10e-4 L 0.249,32.193 C 0.404,32.104 0.5,31.938 0.5,31.76 V 0.5 C 0.5,0.321 0.405,0.156 0.25,0.067 0.173,0.022 0.087,0 0,0"
             style="fill:#cdcdcd;fill-opacity:1;fill-rule:nonzero;stroke:none"
             id="path706" />
        </g>
        <g
           id="g708"
           transform="translate(480.4819,611.5947)">
          <path
             d="m 0,0 v -17.259 l 1.314,-0.759 v 17.259 z"
             style="fill:#cdcdcd;fill-opacity:1;fill-rule:nonzero;stroke:none"
             id="path710" />
        </g>
        <g
           id="g712"
           transform="translate(480.9815,594.6245)">
          <path
             d="M 0,0 0.314,-0.182 V 15.923 L 0,16.104 Z m 0.814,-1.548 c -0.085,0 -0.172,0.023 -0.25,0.068 L -0.75,-0.722 C -0.904,-0.633 -1,-0.468 -1,-0.289 V 16.97 c 0,0.178 0.096,0.343 0.25,0.432 0.154,0.09 0.346,0.089 0.5,10e-4 l 1.314,-0.757 c 0.155,-0.09 0.25,-0.255 0.25,-0.434 V -1.048 C 1.314,-1.227 1.219,-1.392 1.064,-1.48 0.987,-1.525 0.9,-1.548 0.814,-1.548"
             style="fill:#cdcdcd;fill-opacity:1;fill-rule:nonzero;stroke:none"
             id="path714" />
        </g>
        <g
           id="g716"
           transform="translate(454.2699,599.6229)">
          <path
             d="m 0,0 -1.314,0.759 22.558,13.026 1.314,-0.759 z"
             style="fill:#cdcdcd;fill-opacity:1;fill-rule:nonzero;stroke:none"
             id="path718" />
        </g>
        <g
           id="g720"
           transform="translate(453.9561,600.3813)">
          <path
             d="m 0,0 0.313,-0.182 21.559,12.45 -0.314,0.181 z m 0.313,-1.259 c -0.085,0 -0.172,0.023 -0.25,0.068 L -1.25,-0.433 C -1.404,-0.344 -1.5,-0.179 -1.5,0 c 0,0.179 0.096,0.344 0.25,0.433 l 22.558,13.026 c 0.154,0.09 0.345,0.09 0.5,0 L 23.122,12.7 c 0.154,-0.089 0.25,-0.254 0.25,-0.432 0,-0.179 -0.096,-0.344 -0.25,-0.433 L 0.563,-1.191 C 0.486,-1.236 0.399,-1.259 0.313,-1.259"
             style="fill:#cdcdcd;fill-opacity:1;fill-rule:nonzero;stroke:none"
             id="path722" />
        </g>
        <g
           id="g724"
           transform="translate(452.9558,600.3815)">
          <path
             d="m 0,0 v -31.26 l 1.314,-0.759 v 31.26 z"
             style="fill:#cdcdcd;fill-opacity:1;fill-rule:nonzero;stroke:none"
             id="path726" />
        </g>
        <g
           id="g728"
           transform="translate(453.4561,569.4106)">
          <path
             d="M 0,0 0.313,-0.182 V 29.923 L 0,30.104 Z m 0.813,-1.548 c -0.085,0 -0.172,0.023 -0.25,0.068 L -0.75,-0.722 C -0.904,-0.633 -1,-0.468 -1,-0.289 v 31.26 c 0,0.178 0.096,0.343 0.25,0.432 0.154,0.09 0.346,0.09 0.5,0 l 1.313,-0.758 c 0.155,-0.089 0.25,-0.254 0.25,-0.433 v -31.26 c 0,-0.179 -0.095,-0.344 -0.25,-0.432 -0.077,-0.045 -0.164,-0.068 -0.25,-0.068"
             style="fill:#cdcdcd;fill-opacity:1;fill-rule:nonzero;stroke:none"
             id="path730" />
        </g>
      </g>
    </g>
  </g>
</svg>
