<?xml version="1.0" encoding="UTF-8" standalone="no"?>
<!-- Created with Inkscape (http://www.inkscape.org/) -->

<svg
   version="1.1"
   id="svg2"
   width="532.39215"
   height="336.41019"
   viewBox="0 0 532.39215 336.41019"
   xmlns="http://www.w3.org/2000/svg"
   xmlns:svg="http://www.w3.org/2000/svg">
  <defs
     id="defs6">
    <clipPath
       clipPathUnits="userSpaceOnUse"
       id="clipPath2702">
      <path
         d="M 0,1600 H 1200 V 0 H 0 Z"
         id="path2700" />
    </clipPath>
    <clipPath
       clipPathUnits="userSpaceOnUse"
       id="clipPath2726">
      <path
         d="M 0,1600 H 1200 V 0 H 0 Z"
         id="path2724" />
    </clipPath>
    <clipPath
       clipPathUnits="userSpaceOnUse"
       id="clipPath2750">
      <path
         d="M 0,1600 H 1200 V 0 H 0 Z"
         id="path2748" />
    </clipPath>
    <clipPath
       clipPathUnits="userSpaceOnUse"
       id="clipPath2774">
      <path
         d="M 0,1600 H 1200 V 0 H 0 Z"
         id="path2772" />
    </clipPath>
    <clipPath
       clipPathUnits="userSpaceOnUse"
       id="clipPath2798">
      <path
         d="M 0,1600 H 1200 V 0 H 0 Z"
         id="path2796" />
    </clipPath>
    <clipPath
       clipPathUnits="userSpaceOnUse"
       id="clipPath2822">
      <path
         d="M 0,1600 H 1200 V 0 H 0 Z"
         id="path2820" />
    </clipPath>
    <clipPath
       clipPathUnits="userSpaceOnUse"
       id="clipPath2846">
      <path
         d="M 0,1600 H 1200 V 0 H 0 Z"
         id="path2844" />
    </clipPath>
    <clipPath
       clipPathUnits="userSpaceOnUse"
       id="clipPath2870">
      <path
         d="M 0,1600 H 1200 V 0 H 0 Z"
         id="path2868" />
    </clipPath>
    <clipPath
       clipPathUnits="userSpaceOnUse"
       id="clipPath2894">
      <path
         d="M 0,1600 H 1200 V 0 H 0 Z"
         id="path2892" />
    </clipPath>
    <clipPath
       clipPathUnits="userSpaceOnUse"
       id="clipPath2918">
      <path
         d="M 0,1600 H 1200 V 0 H 0 Z"
         id="path2916" />
    </clipPath>
    <clipPath
       clipPathUnits="userSpaceOnUse"
       id="clipPath2942">
      <path
         d="M 0,1600 H 1200 V 0 H 0 Z"
         id="path2940" />
    </clipPath>
  </defs>
  <g
     id="g8"
     transform="matrix(1.3333333,0,0,-1.3333333,-875.862,2006.2451)">
    <g
       id="g2692"
       transform="translate(960.22296,1501.3378)">
      <path
         d="m 0,0 -93.241,-18.419 v -9.628 L 12.936,-7.469 Z"
         style="fill:#ffffff;fill-opacity:1;fill-rule:nonzero;stroke:none"
         id="path2694" />
    </g>
    <g
       id="g2696"
       transform="translate(278.73726,142.44054)">
      <g
         id="g2698"
         clip-path="url(#clipPath2702)">
        <g
           id="g2704"
           transform="translate(588.7443,1340.0677)">
          <path
             d="m 0,0 v -8.61 l 104.269,20.207 -11.615,6.705 z m -0.5,-9.717 c -0.115,0 -0.228,0.04 -0.318,0.114 C -0.934,-9.508 -1,-9.366 -1,-9.217 v 9.628 c 0,0.239 0.169,0.444 0.403,0.49 l 93.242,18.418 c 0.12,0.025 0.243,0.003 0.346,-0.057 l 12.937,-7.469 c 0.18,-0.104 0.277,-0.31 0.243,-0.516 -0.034,-0.205 -0.193,-0.368 -0.399,-0.408 L -0.405,-9.708 C -0.437,-9.714 -0.469,-9.717 -0.5,-9.717"
             style="fill:#cdcdcd;fill-opacity:1;fill-rule:nonzero;stroke:none"
             id="path2706" />
        </g>
        <g
           id="g2708"
           transform="translate(681.4857,1358.8973)">
          <path
             d="m 0,0 4.879,2.817 -91.463,-17.375 -6.657,-3.861 z"
             style="fill:#ffffff;fill-opacity:1;fill-rule:nonzero;stroke:none"
             id="path2710" />
        </g>
        <g
           id="g2712"
           transform="translate(595.0782,1343.8636)">
          <path
             d="m 0,0 -3.989,-2.313 90.218,17.821 2.253,1.301 z m -6.834,-3.885 c -0.205,0 -0.394,0.126 -0.468,0.324 -0.086,0.229 0.006,0.486 0.217,0.609 l 6.657,3.86 c 0.049,0.029 0.103,0.048 0.157,0.059 l 91.464,17.375 c 0.25,0.043 0.478,-0.09 0.563,-0.318 0.085,-0.228 -0.008,-0.485 -0.219,-0.606 l -4.88,-2.817 C 86.609,14.572 86.558,14.554 86.504,14.543 L -6.737,-3.875 c -0.033,-0.007 -0.065,-0.01 -0.097,-0.01"
             style="fill:#cdcdcd;fill-opacity:1;fill-rule:nonzero;stroke:none"
             id="path2714" />
        </g>
      </g>
    </g>
    <g
       id="g2716"
       transform="translate(939.26436,1489.1885)">
      <path
         d="m 0,0 -93.241,-18.419 v -9.628 L 12.936,-7.469 Z"
         style="fill:#ffffff;fill-opacity:1;fill-rule:nonzero;stroke:none"
         id="path2718" />
    </g>
    <g
       id="g2720"
       transform="translate(278.73726,142.44054)">
      <g
         id="g2722"
         clip-path="url(#clipPath2726)">
        <g
           id="g2728"
           transform="translate(567.7863,1327.9183)">
          <path
             d="m 0,0 v -8.61 l 104.268,20.208 -11.614,6.705 z m -0.5,-9.717 c -0.115,0 -0.228,0.04 -0.318,0.114 C -0.934,-9.508 -1,-9.366 -1,-9.217 v 9.628 c 0,0.239 0.169,0.444 0.403,0.49 L 92.645,19.32 c 0.12,0.025 0.243,0.003 0.346,-0.057 l 12.936,-7.469 c 0.18,-0.104 0.277,-0.31 0.243,-0.516 -0.034,-0.205 -0.193,-0.368 -0.399,-0.408 L -0.405,-9.708 C -0.437,-9.714 -0.469,-9.717 -0.5,-9.717"
             style="fill:#cdcdcd;fill-opacity:1;fill-rule:nonzero;stroke:none"
             id="path2730" />
        </g>
        <g
           id="g2732"
           transform="translate(660.5271,1346.748)">
          <path
             d="m 0,0 4.879,2.817 -91.463,-17.375 -6.657,-3.861 z"
             style="fill:#ffffff;fill-opacity:1;fill-rule:nonzero;stroke:none"
             id="path2734" />
        </g>
        <g
           id="g2736"
           transform="translate(574.1202,1331.7142)">
          <path
             d="m 0,0 -3.989,-2.313 90.218,17.822 2.252,1.3 z m -6.834,-3.885 c -0.205,0 -0.394,0.126 -0.468,0.324 -0.086,0.229 0.006,0.486 0.217,0.609 l 6.657,3.86 c 0.049,0.029 0.103,0.048 0.157,0.059 l 91.463,17.375 c 0.252,0.044 0.478,-0.089 0.563,-0.318 0.085,-0.228 -0.008,-0.485 -0.219,-0.606 L 86.657,14.602 C 86.609,14.573 86.558,14.555 86.504,14.544 L -6.737,-3.875 c -0.033,-0.007 -0.065,-0.01 -0.097,-0.01"
             style="fill:#cdcdcd;fill-opacity:1;fill-rule:nonzero;stroke:none"
             id="path2738" />
        </g>
      </g>
    </g>
    <g
       id="g2740"
       transform="translate(918.30576,1477.0393)">
      <path
         d="m 0,0 -93.241,-18.419 v -9.628 L 12.936,-7.469 Z"
         style="fill:#ffffff;fill-opacity:1;fill-rule:nonzero;stroke:none"
         id="path2742" />
    </g>
    <g
       id="g2744"
       transform="translate(278.73726,142.44054)">
      <g
         id="g2746"
         clip-path="url(#clipPath2750)">
        <g
           id="g2752"
           transform="translate(546.8273,1315.7689)">
          <path
             d="m 0,0 v -8.61 l 104.269,20.208 -11.615,6.705 z m -0.5,-9.717 c -0.115,0 -0.228,0.04 -0.318,0.114 C -0.934,-9.508 -1,-9.366 -1,-9.217 v 9.628 c 0,0.239 0.169,0.444 0.403,0.49 L 92.645,19.32 c 0.12,0.024 0.242,0.004 0.346,-0.057 l 12.937,-7.469 c 0.18,-0.104 0.277,-0.31 0.243,-0.516 -0.034,-0.205 -0.193,-0.368 -0.399,-0.408 L -0.405,-9.708 C -0.437,-9.714 -0.469,-9.717 -0.5,-9.717"
             style="fill:#cdcdcd;fill-opacity:1;fill-rule:nonzero;stroke:none"
             id="path2754" />
        </g>
        <g
           id="g2756"
           transform="translate(639.5685,1334.5988)">
          <path
             d="m 0,0 4.88,2.817 -91.464,-17.375 -6.657,-3.861 z"
             style="fill:#ffffff;fill-opacity:1;fill-rule:nonzero;stroke:none"
             id="path2758" />
        </g>
        <g
           id="g2760"
           transform="translate(553.1613,1319.5648)">
          <path
             d="m 0,0 -3.989,-2.313 90.218,17.822 2.252,1.3 z m -6.834,-3.885 c -0.205,0 -0.394,0.126 -0.468,0.324 -0.086,0.229 0.006,0.486 0.217,0.609 l 6.657,3.86 c 0.049,0.029 0.103,0.048 0.157,0.059 l 91.464,17.375 c 0.253,0.046 0.478,-0.089 0.563,-0.318 0.085,-0.228 -0.008,-0.485 -0.219,-0.606 l -4.88,-2.816 C 86.609,14.573 86.558,14.555 86.504,14.544 L -6.737,-3.875 c -0.033,-0.007 -0.065,-0.01 -0.097,-0.01"
             style="fill:#cdcdcd;fill-opacity:1;fill-rule:nonzero;stroke:none"
             id="path2762" />
        </g>
      </g>
    </g>
    <g
       id="g2764"
       transform="translate(897.34716,1464.89)">
      <path
         d="m 0,0 -93.241,-18.419 v -9.628 L 12.936,-7.469 Z"
         style="fill:#ffffff;fill-opacity:1;fill-rule:nonzero;stroke:none"
         id="path2766" />
    </g>
    <g
       id="g2768"
       transform="translate(278.73726,142.44054)">
      <g
         id="g2770"
         clip-path="url(#clipPath2774)">
        <g
           id="g2776"
           transform="translate(525.8693,1303.6195)">
          <path
             d="m 0,0 v -8.61 l 104.268,20.208 -11.615,6.705 z m -0.5,-9.717 c -0.115,0 -0.228,0.04 -0.318,0.114 C -0.934,-9.508 -1,-9.366 -1,-9.217 v 9.628 c 0,0.239 0.169,0.444 0.403,0.49 L 92.644,19.32 c 0.121,0.025 0.243,0.004 0.346,-0.057 l 12.937,-7.469 c 0.18,-0.104 0.277,-0.31 0.243,-0.516 -0.034,-0.205 -0.193,-0.368 -0.399,-0.408 L -0.405,-9.708 C -0.437,-9.714 -0.469,-9.717 -0.5,-9.717"
             style="fill:#cdcdcd;fill-opacity:1;fill-rule:nonzero;stroke:none"
             id="path2778" />
        </g>
        <g
           id="g2780"
           transform="translate(618.6099,1322.4495)">
          <path
             d="m 0,0 4.879,2.817 -91.463,-17.375 -6.657,-3.861 z"
             style="fill:#ffffff;fill-opacity:1;fill-rule:nonzero;stroke:none"
             id="path2782" />
        </g>
        <g
           id="g2784"
           transform="translate(532.2032,1307.4154)">
          <path
             d="m 0,0 -3.989,-2.313 90.218,17.822 2.252,1.301 z m -6.834,-3.885 c -0.205,0 -0.394,0.126 -0.468,0.324 -0.086,0.229 0.006,0.486 0.217,0.609 l 6.657,3.86 c 0.049,0.029 0.103,0.048 0.157,0.059 l 91.463,17.376 c 0.255,0.042 0.479,-0.09 0.563,-0.318 0.085,-0.228 -0.008,-0.485 -0.219,-0.606 l -4.88,-2.817 C 86.608,14.573 86.557,14.555 86.503,14.544 L -6.737,-3.875 c -0.033,-0.007 -0.065,-0.01 -0.097,-0.01"
             style="fill:#cdcdcd;fill-opacity:1;fill-rule:nonzero;stroke:none"
             id="path2786" />
        </g>
      </g>
    </g>
    <g
       id="g2788"
       transform="translate(876.38866,1452.7407)">
      <path
         d="m 0,0 -93.241,-18.419 v -9.628 L 12.936,-7.469 Z"
         style="fill:#ffffff;fill-opacity:1;fill-rule:nonzero;stroke:none"
         id="path2790" />
    </g>
    <g
       id="g2792"
       transform="translate(278.73726,142.44054)">
      <g
         id="g2794"
         clip-path="url(#clipPath2798)">
        <g
           id="g2800"
           transform="translate(504.9102,1291.4701)">
          <path
             d="m 0,0 v -8.61 l 104.269,20.208 -11.615,6.705 z m -0.5,-9.717 c -0.115,0 -0.228,0.04 -0.318,0.114 C -0.934,-9.508 -1,-9.366 -1,-9.217 v 9.628 c 0,0.239 0.169,0.444 0.403,0.49 L 92.645,19.32 c 0.121,0.025 0.243,0.004 0.346,-0.057 l 12.937,-7.469 c 0.18,-0.104 0.277,-0.31 0.243,-0.516 -0.034,-0.205 -0.193,-0.368 -0.399,-0.408 L -0.405,-9.708 C -0.437,-9.714 -0.469,-9.717 -0.5,-9.717"
             style="fill:#cdcdcd;fill-opacity:1;fill-rule:nonzero;stroke:none"
             id="path2802" />
        </g>
        <g
           id="g2804"
           transform="translate(597.6514,1310.3002)">
          <path
             d="m 0,0 4.879,2.817 -91.463,-17.375 -6.657,-3.861 z"
             style="fill:#ffffff;fill-opacity:1;fill-rule:nonzero;stroke:none"
             id="path2806" />
        </g>
        <g
           id="g2808"
           transform="translate(511.2442,1295.266)">
          <path
             d="m 0,0 -3.989,-2.313 90.218,17.822 2.253,1.301 z m -6.834,-3.885 c -0.205,0 -0.394,0.126 -0.468,0.324 -0.086,0.229 0.006,0.486 0.217,0.609 l 6.657,3.86 c 0.049,0.029 0.103,0.048 0.157,0.059 l 91.463,17.376 c 0.257,0.044 0.478,-0.089 0.563,-0.318 0.085,-0.228 -0.008,-0.484 -0.219,-0.606 L 86.657,14.602 C 86.609,14.574 86.558,14.555 86.504,14.544 L -6.737,-3.875 c -0.033,-0.007 -0.065,-0.01 -0.097,-0.01"
             style="fill:#cdcdcd;fill-opacity:1;fill-rule:nonzero;stroke:none"
             id="path2810" />
        </g>
      </g>
    </g>
    <g
       id="g2812"
       transform="translate(855.42996,1440.5914)">
      <path
         d="m 0,0 -93.241,-18.419 v -9.628 L 12.936,-7.469 Z"
         style="fill:#ffffff;fill-opacity:1;fill-rule:nonzero;stroke:none"
         id="path2814" />
    </g>
    <g
       id="g2816"
       transform="translate(278.73726,142.44054)">
      <g
         id="g2818"
         clip-path="url(#clipPath2822)">
        <g
           id="g2824"
           transform="translate(483.9513,1279.3207)">
          <path
             d="m 0,0 v -8.61 l 104.269,20.208 -11.615,6.705 z m -0.5,-9.717 c -0.115,0 -0.228,0.04 -0.318,0.114 C -0.934,-9.508 -1,-9.366 -1,-9.217 v 9.628 c 0,0.239 0.169,0.444 0.403,0.49 L 92.645,19.32 c 0.12,0.024 0.243,0.004 0.346,-0.057 l 12.937,-7.469 c 0.18,-0.104 0.277,-0.31 0.243,-0.516 -0.034,-0.205 -0.193,-0.368 -0.399,-0.408 L -0.405,-9.708 C -0.437,-9.714 -0.469,-9.717 -0.5,-9.717"
             style="fill:#cdcdcd;fill-opacity:1;fill-rule:nonzero;stroke:none"
             id="path2826" />
        </g>
        <g
           id="g2828"
           transform="translate(576.6927,1298.1509)">
          <path
             d="m 0,0 4.88,2.817 -91.464,-17.375 -6.657,-3.861 z"
             style="fill:#ffffff;fill-opacity:1;fill-rule:nonzero;stroke:none"
             id="path2830" />
        </g>
        <g
           id="g2832"
           transform="translate(490.2862,1283.1166)">
          <path
             d="m 0,0 -3.989,-2.313 90.218,17.822 2.252,1.301 z m -6.835,-3.885 c -0.205,0 -0.394,0.126 -0.468,0.324 -0.086,0.229 0.006,0.486 0.217,0.609 l 6.658,3.86 c 0.049,0.029 0.103,0.048 0.157,0.059 l 91.463,17.376 c 0.251,0.045 0.478,-0.089 0.563,-0.318 0.085,-0.228 -0.008,-0.485 -0.219,-0.606 l -4.88,-2.817 C 86.608,14.573 86.557,14.555 86.503,14.544 L -6.738,-3.875 c -0.033,-0.007 -0.065,-0.01 -0.097,-0.01"
             style="fill:#cdcdcd;fill-opacity:1;fill-rule:nonzero;stroke:none"
             id="path2834" />
        </g>
      </g>
    </g>
    <g
       id="g2836"
       transform="translate(834.47146,1428.4421)">
      <path
         d="m 0,0 -93.241,-18.419 v -9.628 L 12.936,-7.469 Z"
         style="fill:#ffffff;fill-opacity:1;fill-rule:nonzero;stroke:none"
         id="path2838" />
    </g>
    <g
       id="g2840"
       transform="translate(278.73726,142.44054)">
      <g
         id="g2842"
         clip-path="url(#clipPath2846)">
        <g
           id="g2848"
           transform="translate(462.9933,1267.1722)">
          <path
             d="m 0,0 v -8.61 l 104.268,20.207 -11.614,6.705 z m -0.5,-9.717 c -0.115,0 -0.228,0.04 -0.318,0.114 C -0.934,-9.508 -1,-9.366 -1,-9.217 v 9.628 c 0,0.239 0.169,0.444 0.403,0.49 l 93.242,18.418 c 0.12,0.025 0.243,0.003 0.346,-0.057 l 12.936,-7.469 c 0.18,-0.104 0.277,-0.31 0.243,-0.516 -0.034,-0.205 -0.193,-0.368 -0.398,-0.408 L -0.405,-9.708 C -0.437,-9.714 -0.469,-9.717 -0.5,-9.717"
             style="fill:#cdcdcd;fill-opacity:1;fill-rule:nonzero;stroke:none"
             id="path2850" />
        </g>
        <g
           id="g2852"
           transform="translate(555.7342,1286.0016)">
          <path
             d="m 0,0 4.879,2.817 -91.463,-17.375 -6.657,-3.861 z"
             style="fill:#ffffff;fill-opacity:1;fill-rule:nonzero;stroke:none"
             id="path2854" />
        </g>
        <g
           id="g2856"
           transform="translate(469.3272,1270.9672)">
          <path
             d="m 0,0 -3.988,-2.313 90.217,17.822 2.253,1.301 z m -6.834,-3.884 c -0.205,0 -0.394,0.126 -0.468,0.324 -0.086,0.229 0.006,0.486 0.217,0.609 l 6.657,3.859 c 0.049,0.029 0.103,0.048 0.157,0.059 l 91.463,17.376 c 0.253,0.043 0.478,-0.09 0.563,-0.318 0.085,-0.228 -0.008,-0.484 -0.219,-0.606 L 86.657,14.602 C 86.609,14.574 86.558,14.555 86.504,14.544 L -6.737,-3.874 c -0.033,-0.007 -0.065,-0.01 -0.097,-0.01"
             style="fill:#cdcdcd;fill-opacity:1;fill-rule:nonzero;stroke:none"
             id="path2858" />
        </g>
      </g>
    </g>
    <g
       id="g2860"
       transform="translate(813.51286,1416.2928)">
      <path
         d="m 0,0 -93.241,-18.419 v -9.628 L 12.936,-7.469 Z"
         style="fill:#ffffff;fill-opacity:1;fill-rule:nonzero;stroke:none"
         id="path2862" />
    </g>
    <g
       id="g2864"
       transform="translate(278.73726,142.44054)">
      <g
         id="g2866"
         clip-path="url(#clipPath2870)">
        <g
           id="g2872"
           transform="translate(442.0343,1255.0228)">
          <path
             d="m 0,0 v -8.61 l 104.269,20.207 -11.615,6.705 z m -0.5,-9.717 c -0.115,0 -0.228,0.04 -0.318,0.114 C -0.934,-9.508 -1,-9.366 -1,-9.217 v 9.628 c 0,0.239 0.169,0.444 0.403,0.49 l 93.242,18.418 c 0.119,0.026 0.242,0.004 0.346,-0.057 l 12.937,-7.469 c 0.18,-0.104 0.277,-0.31 0.243,-0.516 -0.034,-0.205 -0.193,-0.368 -0.399,-0.408 L -0.405,-9.708 C -0.437,-9.714 -0.469,-9.717 -0.5,-9.717"
             style="fill:#cdcdcd;fill-opacity:1;fill-rule:nonzero;stroke:none"
             id="path2874" />
        </g>
        <g
           id="g2876"
           transform="translate(534.7756,1273.8523)">
          <path
             d="m 0,0 4.88,2.817 -91.464,-17.375 -6.657,-3.861 z"
             style="fill:#ffffff;fill-opacity:1;fill-rule:nonzero;stroke:none"
             id="path2878" />
        </g>
        <g
           id="g2880"
           transform="translate(448.3683,1258.8187)">
          <path
             d="m 0,0 -3.989,-2.313 90.219,17.821 2.252,1.301 z m -6.834,-3.885 c -0.205,0 -0.394,0.126 -0.468,0.324 -0.086,0.229 0.006,0.486 0.217,0.609 l 6.657,3.86 c 0.049,0.029 0.103,0.048 0.157,0.059 l 91.464,17.375 c 0.254,0.044 0.478,-0.089 0.563,-0.318 0.085,-0.228 -0.008,-0.485 -0.219,-0.606 l -4.88,-2.817 C 86.609,14.572 86.558,14.554 86.504,14.543 L -6.737,-3.875 c -0.033,-0.007 -0.065,-0.01 -0.097,-0.01"
             style="fill:#cdcdcd;fill-opacity:1;fill-rule:nonzero;stroke:none"
             id="path2882" />
        </g>
      </g>
    </g>
    <g
       id="g2884"
       transform="translate(792.55426,1404.1435)">
      <path
         d="m 0,0 -93.241,-18.419 v -9.628 L 12.936,-7.469 Z"
         style="fill:#ffffff;fill-opacity:1;fill-rule:nonzero;stroke:none"
         id="path2886" />
    </g>
    <g
       id="g2888"
       transform="translate(278.73726,142.44054)">
      <g
         id="g2890"
         clip-path="url(#clipPath2894)">
        <g
           id="g2896"
           transform="translate(421.0763,1242.8734)">
          <path
             d="m 0,0 v -8.61 l 104.268,20.207 -11.614,6.705 z m -0.5,-9.717 c -0.115,0 -0.228,0.04 -0.318,0.114 C -0.934,-9.508 -1,-9.366 -1,-9.217 v 9.628 c 0,0.239 0.169,0.444 0.403,0.49 l 93.242,18.418 c 0.12,0.025 0.242,0.004 0.346,-0.057 l 12.936,-7.469 c 0.18,-0.104 0.277,-0.31 0.243,-0.516 -0.034,-0.205 -0.193,-0.368 -0.398,-0.408 L -0.405,-9.708 C -0.437,-9.714 -0.469,-9.717 -0.5,-9.717"
             style="fill:#cdcdcd;fill-opacity:1;fill-rule:nonzero;stroke:none"
             id="path2898" />
        </g>
        <g
           id="g2900"
           transform="translate(513.817,1261.703)">
          <path
             d="m 0,0 4.879,2.817 -91.463,-17.375 -6.657,-3.861 z"
             style="fill:#ffffff;fill-opacity:1;fill-rule:nonzero;stroke:none"
             id="path2902" />
        </g>
        <g
           id="g2904"
           transform="translate(427.4102,1246.6693)">
          <path
             d="m 0,0 -3.989,-2.313 90.218,17.821 2.253,1.302 z m -6.834,-3.885 c -0.205,0 -0.394,0.126 -0.468,0.324 -0.086,0.229 0.006,0.486 0.217,0.609 l 6.657,3.86 c 0.049,0.029 0.103,0.048 0.157,0.059 l 91.463,17.375 c 0.256,0.045 0.478,-0.089 0.563,-0.318 0.085,-0.228 -0.008,-0.484 -0.219,-0.606 L 86.657,14.601 C 86.609,14.573 86.558,14.554 86.504,14.543 L -6.737,-3.875 c -0.033,-0.007 -0.065,-0.01 -0.097,-0.01"
             style="fill:#cdcdcd;fill-opacity:1;fill-rule:nonzero;stroke:none"
             id="path2906" />
        </g>
      </g>
    </g>
    <g
       id="g2908"
       transform="translate(771.59566,1391.9942)">
      <path
         d="m 0,0 -93.241,-18.419 v -9.628 L 12.936,-7.469 Z"
         style="fill:#ffffff;fill-opacity:1;fill-rule:nonzero;stroke:none"
         id="path2910" />
    </g>
    <g
       id="g2912"
       transform="translate(278.73726,142.44054)">
      <g
         id="g2914"
         clip-path="url(#clipPath2918)">
        <g
           id="g2920"
           transform="translate(400.1173,1230.724)">
          <path
             d="m 0,0 v -8.61 l 104.269,20.208 -11.615,6.705 z m -0.5,-9.717 c -0.115,0 -0.228,0.04 -0.318,0.114 C -0.934,-9.508 -1,-9.366 -1,-9.217 v 9.628 c 0,0.239 0.169,0.444 0.403,0.49 L 92.645,19.32 c 0.121,0.024 0.243,0.004 0.346,-0.057 l 12.937,-7.469 c 0.18,-0.104 0.277,-0.31 0.243,-0.516 -0.034,-0.205 -0.193,-0.368 -0.399,-0.408 L -0.405,-9.708 C -0.437,-9.714 -0.469,-9.717 -0.5,-9.717"
             style="fill:#cdcdcd;fill-opacity:1;fill-rule:nonzero;stroke:none"
             id="path2922" />
        </g>
        <g
           id="g2924"
           transform="translate(492.8584,1249.5537)">
          <path
             d="m 0,0 4.879,2.817 -91.463,-17.375 -6.657,-3.861 z"
             style="fill:#ffffff;fill-opacity:1;fill-rule:nonzero;stroke:none"
             id="path2926" />
        </g>
        <g
           id="g2928"
           transform="translate(406.4513,1234.5199)">
          <path
             d="m 0,0 -3.989,-2.313 90.218,17.822 2.252,1.3 z m -6.834,-3.885 c -0.205,0 -0.394,0.126 -0.468,0.324 -0.086,0.229 0.006,0.486 0.217,0.609 l 6.657,3.86 c 0.049,0.029 0.103,0.048 0.157,0.059 l 91.464,17.375 c 0.257,0.043 0.478,-0.09 0.563,-0.318 0.085,-0.228 -0.008,-0.485 -0.219,-0.606 l -4.88,-2.816 C 86.609,14.573 86.558,14.555 86.504,14.544 L -6.737,-3.875 c -0.033,-0.007 -0.065,-0.01 -0.097,-0.01"
             style="fill:#cdcdcd;fill-opacity:1;fill-rule:nonzero;stroke:none"
             id="path2930" />
        </g>
      </g>
    </g>
    <g
       id="g2932"
       transform="translate(750.63716,1379.8449)">
      <path
         d="m 0,0 214.431,124.339 12.97,-7.498 L 12.936,-7.469 Z"
         style="fill:#ffffff;fill-opacity:1;fill-rule:nonzero;stroke:none"
         id="path2934" />
    </g>
    <g
       id="g2936"
       transform="translate(278.73726,142.44054)">
      <g
         id="g2938"
         clip-path="url(#clipPath2942)">
        <g
           id="g2944"
           transform="translate(472.8976,1237.4056)">
          <path
             d="m 0,0 11.938,-6.893 213.467,123.732 -11.971,6.921 z m 11.938,-7.97 c -0.085,0 -0.172,0.023 -0.25,0.068 l -12.936,7.468 c -0.154,0.089 -0.25,0.254 -0.25,0.433 0,0.178 0.095,0.343 0.249,0.433 l 214.432,124.339 c 0.156,0.089 0.346,0.089 0.501,0 l 12.969,-7.499 c 0.155,-0.088 0.25,-0.253 0.25,-0.432 0,-0.178 -0.094,-0.343 -0.249,-0.433 L 12.189,-7.902 C 12.111,-7.947 12.025,-7.97 11.938,-7.97"
             style="fill:#cdcdcd;fill-opacity:1;fill-rule:nonzero;stroke:none"
             id="path2946" />
        </g>
        <g
           id="g2948"
           transform="translate(510.7462,1178.9701)">
          <path
             d="m 0,0 11.937,-6.893 213.468,123.733 -11.972,6.92 z m 11.938,-7.97 c -0.086,0 -0.173,0.023 -0.25,0.068 l -12.936,7.468 c -0.154,0.089 -0.25,0.254 -0.25,0.433 0,0.178 0.095,0.343 0.249,0.433 l 214.431,124.339 c 0.155,0.089 0.345,0.089 0.501,0 l 12.97,-7.498 c 0.155,-0.088 0.25,-0.253 0.25,-0.432 0,-0.178 -0.094,-0.343 -0.249,-0.433 L 12.189,-7.902 C 12.11,-7.947 12.024,-7.97 11.938,-7.97"
             style="fill:#cdcdcd;fill-opacity:1;fill-rule:nonzero;stroke:none"
             id="path2950" />
        </g>
        <g
           id="g2952"
           transform="translate(542.5559,1128.8231)">
          <path
             d="m 0,0 214.431,124.339 12.97,-7.498 L 12.936,-7.469 Z"
             style="fill:#ffffff;fill-opacity:1;fill-rule:nonzero;stroke:none"
             id="path2954" />
        </g>
        <g
           id="g2956"
           transform="translate(543.5538,1128.8236)">
          <path
             d="m 0,0 11.938,-6.893 213.467,123.733 -11.971,6.921 z m 11.938,-7.97 c -0.085,0 -0.172,0.023 -0.25,0.068 l -12.936,7.468 c -0.154,0.089 -0.25,0.254 -0.25,0.433 0,0.178 0.095,0.343 0.249,0.433 l 214.432,124.339 c 0.155,0.089 0.345,0.091 0.501,0 l 12.969,-7.498 c 0.155,-0.088 0.25,-0.253 0.25,-0.432 0,-0.178 -0.094,-0.343 -0.249,-0.433 L 12.189,-7.902 C 12.111,-7.947 12.025,-7.97 11.938,-7.97"
             style="fill:#cdcdcd;fill-opacity:1;fill-rule:nonzero;stroke:none"
             id="path2958" />
        </g>
        <g
           id="g2960"
           transform="translate(471.8999,1237.4044)">
          <path
             d="m 0,0 -93.241,-18.419 v -9.628 L 12.936,-7.469 Z"
             style="fill:#ffffff;fill-opacity:1;fill-rule:nonzero;stroke:none"
             id="path2962" />
        </g>
        <g
           id="g2964"
           transform="translate(379.1593,1218.5746)">
          <path
             d="m 0,0 v -8.61 l 104.268,20.208 -11.615,6.705 z m -0.5,-9.717 c -0.115,0 -0.228,0.04 -0.318,0.114 C -0.934,-9.508 -1,-9.366 -1,-9.217 v 9.628 c 0,0.239 0.169,0.444 0.403,0.49 L 92.644,19.32 c 0.12,0.025 0.243,0.004 0.346,-0.057 l 12.937,-7.469 c 0.18,-0.104 0.277,-0.31 0.243,-0.516 -0.034,-0.205 -0.193,-0.368 -0.399,-0.408 L -0.405,-9.708 C -0.437,-9.714 -0.469,-9.717 -0.5,-9.717"
             style="fill:#cdcdcd;fill-opacity:1;fill-rule:nonzero;stroke:none"
             id="path2966" />
        </g>
        <g
           id="g2968"
           transform="translate(471.8999,1237.4044)">
          <path
             d="m 0,0 4.879,2.817 -91.463,-17.375 -6.657,-3.861 z"
             style="fill:#ffffff;fill-opacity:1;fill-rule:nonzero;stroke:none"
             id="path2970" />
        </g>
        <g
           id="g2972"
           transform="translate(385.4933,1222.3705)">
          <path
             d="m 0,0 -3.989,-2.313 90.218,17.822 2.251,1.3 z m -6.834,-3.885 c -0.205,0 -0.394,0.126 -0.468,0.324 -0.086,0.229 0.006,0.486 0.217,0.609 l 6.657,3.86 c 0.049,0.029 0.103,0.048 0.157,0.059 l 91.463,17.375 c 0.251,0.044 0.478,-0.089 0.563,-0.318 0.085,-0.228 -0.008,-0.485 -0.219,-0.606 l -4.88,-2.816 C 86.608,14.573 86.557,14.555 86.503,14.544 L -6.737,-3.875 c -0.033,-0.007 -0.065,-0.01 -0.097,-0.01"
             style="fill:#cdcdcd;fill-opacity:1;fill-rule:nonzero;stroke:none"
             id="path2974" />
        </g>
        <g
           id="g2976"
           transform="translate(505.7946,1242.085)">
          <path
             d="m 0,0 77.618,-119.499 -12.937,7.468 -77.617,119.5 z"
             style="fill:#ffffff;fill-opacity:1;fill-rule:nonzero;stroke:none"
             id="path2978" />
        </g>
        <g
           id="g2980"
           transform="translate(570.8292,1130.4271)">
          <path
             d="m 0,0 11.029,-6.367 -76.417,117.652 -11.029,6.367 z m 12.583,-8.342 c -0.086,0 -0.172,0.022 -0.25,0.068 l -12.937,7.468 c -0.068,0.039 -0.125,0.094 -0.168,0.16 l -77.618,119.5 c -0.126,0.195 -0.102,0.45 0.057,0.617 0.158,0.169 0.411,0.207 0.612,0.089 l 12.937,-7.469 c 0.068,-0.039 0.126,-0.094 0.169,-0.16 l 77.617,-119.5 c 0.126,-0.195 0.102,-0.45 -0.057,-0.617 -0.096,-0.102 -0.228,-0.156 -0.362,-0.156"
             style="fill:#cdcdcd;fill-opacity:1;fill-rule:nonzero;stroke:none"
             id="path2982" />
        </g>
        <g
           id="g2984"
           transform="translate(505.7946,1242.085)">
          <path
             d="m 0,0 4.879,2.817 77.652,-119.528 -4.913,-2.788 z"
             style="fill:#ffffff;fill-opacity:1;fill-rule:nonzero;stroke:none"
             id="path2986" />
        </g>
        <g
           id="g2988"
           transform="translate(506.5011,1241.9154)">
          <path
             d="m 0,0 77.074,-118.663 4.042,2.294 L 4.012,2.316 Z m 76.911,-119.83 c -0.164,0 -0.324,0.081 -0.419,0.227 l -77.617,119.5 c -0.075,0.116 -0.1,0.256 -0.067,0.39 0.032,0.133 0.117,0.247 0.236,0.316 L 3.923,3.419 C 4.15,3.554 4.447,3.481 4.592,3.259 L 82.244,-116.27 c 0.075,-0.115 0.1,-0.256 0.067,-0.39 -0.033,-0.134 -0.12,-0.249 -0.239,-0.317 l -4.914,-2.788 c -0.078,-0.044 -0.163,-0.065 -0.247,-0.065"
             style="fill:#cdcdcd;fill-opacity:1;fill-rule:nonzero;stroke:none"
             id="path2990" />
        </g>
        <g
           id="g2992"
           transform="translate(492.8584,1249.5537)">
          <path
             d="M 0,0 4.879,2.817 17.85,-4.681 12.936,-7.469 Z"
             style="fill:#ffffff;fill-opacity:1;fill-rule:nonzero;stroke:none"
             id="path2994" />
        </g>
        <g
           id="g2996"
           transform="translate(493.8585,1249.5541)">
          <path
             d="M 0,0 11.938,-6.893 15.844,-4.677 3.88,2.239 Z m 11.937,-7.969 c -0.086,0 -0.173,0.023 -0.25,0.068 L -1.25,-0.433 C -1.404,-0.344 -1.5,-0.179 -1.5,0 c 0,0.179 0.096,0.344 0.25,0.433 l 4.88,2.816 c 0.154,0.09 0.346,0.09 0.5,0 L 17.1,-4.248 c 0.155,-0.09 0.251,-0.255 0.25,-0.435 -0.001,-0.179 -0.098,-0.344 -0.253,-0.432 l -4.913,-2.788 c -0.078,-0.044 -0.163,-0.066 -0.247,-0.066"
             style="fill:#cdcdcd;fill-opacity:1;fill-rule:nonzero;stroke:none"
             id="path2998" />
        </g>
        <g
           id="g3000"
           transform="translate(526.7532,1254.2343)">
          <path
             d="m 0,0 77.618,-119.499 -12.937,7.468 -77.617,119.5 z"
             style="fill:#ffffff;fill-opacity:1;fill-rule:nonzero;stroke:none"
             id="path3002" />
        </g>
        <g
           id="g3004"
           transform="translate(591.7882,1142.5765)">
          <path
             d="m 0,0 11.029,-6.367 -76.418,117.651 -11.028,6.367 z m 12.583,-8.342 c -0.086,0 -0.172,0.022 -0.25,0.068 l -12.937,7.468 c -0.068,0.039 -0.125,0.094 -0.168,0.16 l -77.618,119.5 c -0.126,0.194 -0.102,0.449 0.057,0.616 0.159,0.169 0.411,0.206 0.612,0.089 l 12.936,-7.469 c 0.068,-0.039 0.126,-0.094 0.169,-0.16 L 13.002,-7.569 c 0.126,-0.195 0.102,-0.45 -0.057,-0.617 -0.096,-0.102 -0.228,-0.156 -0.362,-0.156"
             style="fill:#cdcdcd;fill-opacity:1;fill-rule:nonzero;stroke:none"
             id="path3006" />
        </g>
        <g
           id="g3008"
           transform="translate(526.7532,1254.2343)">
          <path
             d="m 0,0 4.879,2.817 77.652,-119.528 -4.913,-2.788 z"
             style="fill:#ffffff;fill-opacity:1;fill-rule:nonzero;stroke:none"
             id="path3010" />
        </g>
        <g
           id="g3012"
           transform="translate(527.4591,1254.0638)">
          <path
             d="m 0,0 77.075,-118.662 4.041,2.294 L 4.013,2.317 Z m 76.912,-119.829 c -0.164,0 -0.324,0.081 -0.419,0.227 L -1.125,-0.103 c -0.075,0.116 -0.1,0.256 -0.067,0.389 0.032,0.134 0.117,0.248 0.236,0.317 L 3.924,3.42 C 4.152,3.556 4.448,3.482 4.593,3.26 l 77.651,-119.529 c 0.075,-0.115 0.1,-0.256 0.067,-0.39 -0.033,-0.134 -0.12,-0.249 -0.239,-0.317 l -4.913,-2.788 c -0.078,-0.044 -0.163,-0.065 -0.247,-0.065"
             style="fill:#cdcdcd;fill-opacity:1;fill-rule:nonzero;stroke:none"
             id="path3014" />
        </g>
        <g
           id="g3016"
           transform="translate(513.817,1261.703)">
          <path
             d="M 0,0 4.879,2.817 17.85,-4.681 12.936,-7.469 Z"
             style="fill:#ffffff;fill-opacity:1;fill-rule:nonzero;stroke:none"
             id="path3018" />
        </g>
        <g
           id="g3020"
           transform="translate(514.8175,1261.7025)">
          <path
             d="M 0,0 11.938,-6.893 15.844,-4.677 3.879,2.24 Z m 11.936,-7.969 c -0.086,0 -0.173,0.023 -0.25,0.068 L -1.25,-0.433 C -1.404,-0.344 -1.5,-0.179 -1.5,0 c 0,0.179 0.096,0.344 0.25,0.433 L 3.629,3.25 c 0.154,0.09 0.346,0.09 0.5,0 L 17.1,-4.248 c 0.155,-0.09 0.251,-0.256 0.25,-0.435 -0.001,-0.179 -0.098,-0.344 -0.253,-0.432 l -4.914,-2.788 c -0.078,-0.044 -0.162,-0.066 -0.247,-0.066"
             style="fill:#cdcdcd;fill-opacity:1;fill-rule:nonzero;stroke:none"
             id="path3022" />
        </g>
        <g
           id="g3024"
           transform="translate(547.7118,1266.3835)">
          <path
             d="m 0,0 77.618,-119.499 -12.936,7.468 -77.618,119.5 z"
             style="fill:#ffffff;fill-opacity:1;fill-rule:nonzero;stroke:none"
             id="path3026" />
        </g>
        <g
           id="g3028"
           transform="translate(612.7472,1154.726)">
          <path
             d="m 0,0 11.028,-6.367 -76.417,117.651 -11.029,6.367 z m 12.582,-8.342 c -0.086,0 -0.172,0.022 -0.25,0.068 l -12.936,7.468 c -0.068,0.039 -0.125,0.094 -0.168,0.16 l -77.619,119.5 c -0.126,0.194 -0.102,0.449 0.057,0.616 0.158,0.168 0.412,0.207 0.612,0.089 l 12.937,-7.469 c 0.068,-0.039 0.126,-0.094 0.169,-0.16 L 13.001,-7.569 c 0.126,-0.195 0.103,-0.45 -0.057,-0.617 -0.096,-0.102 -0.228,-0.156 -0.362,-0.156"
             style="fill:#cdcdcd;fill-opacity:1;fill-rule:nonzero;stroke:none"
             id="path3030" />
        </g>
        <g
           id="g3032"
           transform="translate(547.7118,1266.3835)">
          <path
             d="m 0,0 4.88,2.817 77.651,-119.528 -4.913,-2.788 z"
             style="fill:#ffffff;fill-opacity:1;fill-rule:nonzero;stroke:none"
             id="path3034" />
        </g>
        <g
           id="g3036"
           transform="translate(548.4181,1266.2133)">
          <path
             d="m 0,0 77.074,-118.662 4.042,2.294 L 4.012,2.317 Z m 76.911,-119.829 c -0.164,0 -0.324,0.081 -0.419,0.227 L -1.125,-0.103 c -0.075,0.116 -0.1,0.256 -0.067,0.389 0.032,0.134 0.117,0.248 0.236,0.317 L 3.923,3.42 C 4.151,3.556 4.447,3.482 4.592,3.26 l 77.652,-119.529 c 0.075,-0.115 0.1,-0.256 0.067,-0.39 -0.033,-0.134 -0.12,-0.249 -0.239,-0.317 l -4.914,-2.788 c -0.078,-0.044 -0.163,-0.065 -0.247,-0.065"
             style="fill:#cdcdcd;fill-opacity:1;fill-rule:nonzero;stroke:none"
             id="path3038" />
        </g>
        <g
           id="g3040"
           transform="translate(534.7756,1273.8523)">
          <path
             d="M 0,0 4.88,2.817 17.85,-4.681 12.936,-7.469 Z"
             style="fill:#ffffff;fill-opacity:1;fill-rule:nonzero;stroke:none"
             id="path3042" />
        </g>
        <g
           id="g3044"
           transform="translate(535.7755,1273.8519)">
          <path
             d="M 0,0 11.938,-6.893 15.844,-4.677 3.88,2.24 Z m 11.937,-7.969 c -0.086,0 -0.173,0.023 -0.25,0.068 L -1.25,-0.433 C -1.404,-0.344 -1.5,-0.179 -1.5,0 c 0,0.179 0.096,0.344 0.25,0.433 L 3.63,3.25 c 0.154,0.09 0.346,0.09 0.5,0 L 17.1,-4.248 c 0.155,-0.09 0.251,-0.256 0.25,-0.435 -0.001,-0.179 -0.098,-0.344 -0.253,-0.432 l -4.913,-2.788 c -0.078,-0.044 -0.163,-0.066 -0.247,-0.066"
             style="fill:#cdcdcd;fill-opacity:1;fill-rule:nonzero;stroke:none"
             id="path3046" />
        </g>
        <g
           id="g3048"
           transform="translate(568.6704,1278.5328)">
          <path
             d="m 0,0 77.618,-119.499 -12.937,7.468 -77.617,119.5 z"
             style="fill:#ffffff;fill-opacity:1;fill-rule:nonzero;stroke:none"
             id="path3050" />
        </g>
        <g
           id="g3052"
           transform="translate(633.7052,1166.8754)">
          <path
             d="m 0,0 11.029,-6.367 -76.418,117.651 -11.028,6.367 z m 12.583,-8.342 c -0.086,0 -0.172,0.022 -0.25,0.068 l -12.937,7.468 c -0.068,0.039 -0.125,0.094 -0.168,0.16 l -77.618,119.5 c -0.126,0.194 -0.102,0.449 0.057,0.616 0.158,0.169 0.412,0.207 0.612,0.089 l 12.936,-7.469 c 0.068,-0.039 0.126,-0.094 0.169,-0.16 L 13.002,-7.569 c 0.126,-0.195 0.102,-0.45 -0.057,-0.617 -0.096,-0.102 -0.228,-0.156 -0.362,-0.156"
             style="fill:#cdcdcd;fill-opacity:1;fill-rule:nonzero;stroke:none"
             id="path3054" />
        </g>
        <g
           id="g3056"
           transform="translate(568.6704,1278.5328)">
          <path
             d="m 0,0 4.879,2.817 77.652,-119.528 -4.913,-2.788 z"
             style="fill:#ffffff;fill-opacity:1;fill-rule:nonzero;stroke:none"
             id="path3058" />
        </g>
        <g
           id="g3060"
           transform="translate(569.3761,1278.3627)">
          <path
             d="m 0,0 77.075,-118.662 4.042,2.294 L 4.013,2.317 Z m 76.912,-119.829 c -0.164,0 -0.324,0.081 -0.419,0.227 L -1.125,-0.103 c -0.075,0.116 -0.1,0.256 -0.067,0.389 0.032,0.134 0.117,0.248 0.236,0.317 L 3.924,3.42 C 4.151,3.556 4.448,3.482 4.593,3.26 l 77.652,-119.529 c 0.075,-0.115 0.1,-0.256 0.067,-0.39 -0.033,-0.134 -0.12,-0.249 -0.239,-0.317 l -4.914,-2.788 c -0.078,-0.044 -0.163,-0.065 -0.247,-0.065"
             style="fill:#cdcdcd;fill-opacity:1;fill-rule:nonzero;stroke:none"
             id="path3062" />
        </g>
        <g
           id="g3064"
           transform="translate(555.7342,1286.0016)">
          <path
             d="M 0,0 4.879,2.817 17.85,-4.681 12.936,-7.469 Z"
             style="fill:#ffffff;fill-opacity:1;fill-rule:nonzero;stroke:none"
             id="path3066" />
        </g>
        <g
           id="g3068"
           transform="translate(556.7345,1286.0013)">
          <path
             d="M 0,0 11.938,-6.893 15.844,-4.677 3.879,2.24 Z m 11.936,-7.969 c -0.086,0 -0.173,0.023 -0.25,0.068 L -1.25,-0.433 C -1.404,-0.344 -1.5,-0.179 -1.5,0 c 0,0.179 0.096,0.344 0.25,0.433 L 3.629,3.25 c 0.154,0.09 0.346,0.09 0.5,0 L 17.1,-4.248 c 0.155,-0.09 0.251,-0.256 0.25,-0.435 -0.001,-0.179 -0.098,-0.344 -0.253,-0.432 l -4.914,-2.788 c -0.078,-0.044 -0.162,-0.066 -0.247,-0.066"
             style="fill:#cdcdcd;fill-opacity:1;fill-rule:nonzero;stroke:none"
             id="path3070" />
        </g>
        <g
           id="g3072"
           transform="translate(589.629,1290.6821)">
          <path
             d="m 0,0 77.618,-119.499 -12.936,7.468 -77.618,119.5 z"
             style="fill:#ffffff;fill-opacity:1;fill-rule:nonzero;stroke:none"
             id="path3074" />
        </g>
        <g
           id="g3076"
           transform="translate(654.6642,1179.0248)">
          <path
             d="m 0,0 11.028,-6.367 -76.417,117.651 -11.029,6.367 z m 12.582,-8.342 c -0.086,0 -0.172,0.022 -0.25,0.068 l -12.936,7.468 c -0.068,0.039 -0.125,0.094 -0.168,0.16 l -77.619,119.5 c -0.126,0.194 -0.102,0.449 0.057,0.616 0.158,0.169 0.412,0.206 0.612,0.089 l 12.937,-7.469 c 0.068,-0.039 0.126,-0.094 0.169,-0.16 L 13.001,-7.569 c 0.126,-0.195 0.103,-0.45 -0.057,-0.617 -0.096,-0.102 -0.228,-0.156 -0.362,-0.156"
             style="fill:#cdcdcd;fill-opacity:1;fill-rule:nonzero;stroke:none"
             id="path3078" />
        </g>
        <g
           id="g3080"
           transform="translate(589.629,1290.6821)">
          <path
             d="m 0,0 4.879,2.817 77.652,-119.528 -4.913,-2.788 z"
             style="fill:#ffffff;fill-opacity:1;fill-rule:nonzero;stroke:none"
             id="path3082" />
        </g>
        <g
           id="g3084"
           transform="translate(590.3351,1290.5121)">
          <path
             d="m 0,0 77.074,-118.662 4.042,2.294 L 4.013,2.317 Z m 76.911,-119.829 c -0.164,0 -0.324,0.081 -0.419,0.227 L -1.125,-0.103 c -0.075,0.116 -0.1,0.256 -0.067,0.389 0.032,0.134 0.117,0.248 0.236,0.317 L 3.924,3.42 C 4.151,3.555 4.448,3.483 4.593,3.26 l 77.651,-119.529 c 0.075,-0.115 0.1,-0.256 0.067,-0.39 -0.033,-0.134 -0.12,-0.249 -0.239,-0.317 l -4.914,-2.788 c -0.078,-0.044 -0.163,-0.065 -0.247,-0.065"
             style="fill:#cdcdcd;fill-opacity:1;fill-rule:nonzero;stroke:none"
             id="path3086" />
        </g>
        <g
           id="g3088"
           transform="translate(576.6927,1298.1509)">
          <path
             d="M 0,0 4.88,2.817 17.85,-4.681 12.936,-7.469 Z"
             style="fill:#ffffff;fill-opacity:1;fill-rule:nonzero;stroke:none"
             id="path3090" />
        </g>
        <g
           id="g3092"
           transform="translate(577.6925,1298.1508)">
          <path
             d="M 0,0 11.938,-6.893 15.845,-4.677 3.88,2.24 Z m 11.937,-7.969 c -0.086,0 -0.173,0.023 -0.25,0.068 L -1.25,-0.433 C -1.404,-0.344 -1.5,-0.179 -1.5,0 c 0,0.179 0.096,0.344 0.25,0.433 L 3.63,3.25 c 0.154,0.09 0.346,0.09 0.5,0 l 12.971,-7.498 c 0.155,-0.09 0.251,-0.256 0.25,-0.435 -10e-4,-0.179 -0.098,-0.344 -0.253,-0.432 l -4.914,-2.788 c -0.078,-0.044 -0.163,-0.066 -0.247,-0.066"
             style="fill:#cdcdcd;fill-opacity:1;fill-rule:nonzero;stroke:none"
             id="path3094" />
        </g>
        <g
           id="g3096"
           transform="translate(610.5875,1302.8314)">
          <path
             d="m 0,0 77.618,-119.499 -12.936,7.468 -77.618,119.5 z"
             style="fill:#ffffff;fill-opacity:1;fill-rule:nonzero;stroke:none"
             id="path3098" />
        </g>
        <g
           id="g3100"
           transform="translate(675.6222,1191.1742)">
          <path
             d="m 0,0 11.029,-6.367 -76.417,117.651 -11.029,6.367 z m 12.583,-8.342 c -0.086,0 -0.172,0.022 -0.25,0.068 l -12.937,7.468 c -0.068,0.039 -0.125,0.094 -0.168,0.16 l -77.618,119.5 c -0.126,0.194 -0.102,0.449 0.057,0.616 0.158,0.169 0.412,0.207 0.612,0.089 l 12.937,-7.469 c 0.068,-0.039 0.126,-0.094 0.169,-0.16 L 13.002,-7.569 c 0.126,-0.195 0.102,-0.45 -0.057,-0.617 -0.096,-0.102 -0.228,-0.156 -0.362,-0.156"
             style="fill:#cdcdcd;fill-opacity:1;fill-rule:nonzero;stroke:none"
             id="path3102" />
        </g>
        <g
           id="g3104"
           transform="translate(610.5875,1302.8314)">
          <path
             d="m 0,0 4.88,2.817 77.651,-119.528 -4.913,-2.788 z"
             style="fill:#ffffff;fill-opacity:1;fill-rule:nonzero;stroke:none"
             id="path3106" />
        </g>
        <g
           id="g3108"
           transform="translate(611.2941,1302.6615)">
          <path
             d="m 0,0 77.074,-118.662 4.042,2.294 L 4.012,2.317 Z m 76.911,-119.829 c -0.164,0 -0.324,0.081 -0.419,0.227 L -1.125,-0.103 c -0.075,0.116 -0.1,0.256 -0.067,0.389 0.032,0.134 0.117,0.248 0.236,0.317 L 3.923,3.42 C 4.15,3.555 4.447,3.482 4.592,3.26 l 77.652,-119.529 c 0.075,-0.115 0.1,-0.256 0.067,-0.39 -0.033,-0.134 -0.12,-0.249 -0.239,-0.317 l -4.914,-2.788 c -0.078,-0.044 -0.163,-0.065 -0.247,-0.065"
             style="fill:#cdcdcd;fill-opacity:1;fill-rule:nonzero;stroke:none"
             id="path3110" />
        </g>
        <g
           id="g3112"
           transform="translate(597.6514,1310.3002)">
          <path
             d="M 0,0 4.879,2.817 17.85,-4.681 12.936,-7.469 Z"
             style="fill:#ffffff;fill-opacity:1;fill-rule:nonzero;stroke:none"
             id="path3114" />
        </g>
        <g
           id="g3116"
           transform="translate(598.6515,1310.3002)">
          <path
             d="M 0,0 11.938,-6.893 15.844,-4.677 3.879,2.24 Z m 11.937,-7.969 c -0.086,0 -0.173,0.023 -0.25,0.068 L -1.25,-0.433 C -1.404,-0.344 -1.5,-0.179 -1.5,0 c 0,0.179 0.096,0.344 0.25,0.433 L 3.629,3.25 c 0.154,0.09 0.346,0.09 0.5,0 L 17.1,-4.248 c 0.155,-0.09 0.251,-0.255 0.25,-0.435 -0.001,-0.179 -0.098,-0.344 -0.253,-0.432 l -4.913,-2.788 c -0.078,-0.044 -0.163,-0.066 -0.247,-0.066"
             style="fill:#cdcdcd;fill-opacity:1;fill-rule:nonzero;stroke:none"
             id="path3118" />
        </g>
        <g
           id="g3120"
           transform="translate(631.5461,1314.9807)">
          <path
             d="m 0,0 77.618,-119.499 -12.937,7.468 -77.617,119.5 z"
             style="fill:#ffffff;fill-opacity:1;fill-rule:nonzero;stroke:none"
             id="path3122" />
        </g>
        <g
           id="g3124"
           transform="translate(696.5812,1203.3226)">
          <path
             d="m 0,0 11.029,-6.367 -76.418,117.652 -11.029,6.367 z m 12.583,-8.342 c -0.086,0 -0.172,0.022 -0.25,0.068 l -12.937,7.468 c -0.068,0.039 -0.125,0.094 -0.168,0.16 l -77.619,119.5 c -0.126,0.195 -0.102,0.45 0.057,0.617 0.158,0.169 0.411,0.207 0.612,0.089 l 12.937,-7.469 c 0.068,-0.039 0.126,-0.094 0.169,-0.16 l 77.618,-119.5 c 0.126,-0.195 0.102,-0.45 -0.057,-0.617 -0.096,-0.102 -0.228,-0.156 -0.362,-0.156"
             style="fill:#cdcdcd;fill-opacity:1;fill-rule:nonzero;stroke:none"
             id="path3126" />
        </g>
        <g
           id="g3128"
           transform="translate(631.5461,1314.9807)">
          <path
             d="m 0,0 4.879,2.817 77.652,-119.528 -4.913,-2.788 z"
             style="fill:#ffffff;fill-opacity:1;fill-rule:nonzero;stroke:none"
             id="path3130" />
        </g>
        <g
           id="g3132"
           transform="translate(632.2521,1314.8109)">
          <path
             d="m 0,0 77.075,-118.663 4.041,2.294 L 4.013,2.317 Z m 76.912,-119.83 c -0.164,0 -0.324,0.081 -0.419,0.227 l -77.618,119.5 c -0.075,0.116 -0.1,0.256 -0.067,0.39 0.032,0.133 0.117,0.247 0.236,0.316 L 3.924,3.42 C 4.152,3.555 4.448,3.482 4.593,3.26 l 77.651,-119.53 c 0.075,-0.115 0.1,-0.256 0.067,-0.39 -0.033,-0.134 -0.12,-0.249 -0.239,-0.317 l -4.913,-2.788 c -0.078,-0.044 -0.163,-0.065 -0.247,-0.065"
             style="fill:#cdcdcd;fill-opacity:1;fill-rule:nonzero;stroke:none"
             id="path3134" />
        </g>
        <g
           id="g3136"
           transform="translate(618.6099,1322.4495)">
          <path
             d="M 0,0 4.879,2.817 17.85,-4.681 12.936,-7.469 Z"
             style="fill:#ffffff;fill-opacity:1;fill-rule:nonzero;stroke:none"
             id="path3138" />
        </g>
        <g
           id="g3140"
           transform="translate(619.6095,1322.4496)">
          <path
             d="M 0,0 11.938,-6.893 15.845,-4.677 3.88,2.24 Z m 11.937,-7.969 c -0.086,0 -0.173,0.023 -0.25,0.068 L -1.25,-0.433 C -1.404,-0.344 -1.5,-0.179 -1.5,0 c 0,0.179 0.096,0.344 0.25,0.433 L 3.63,3.25 c 0.154,0.09 0.346,0.09 0.5,0 l 12.971,-7.498 c 0.155,-0.09 0.251,-0.256 0.25,-0.435 -10e-4,-0.179 -0.098,-0.344 -0.253,-0.432 l -4.914,-2.788 c -0.078,-0.044 -0.163,-0.066 -0.247,-0.066"
             style="fill:#cdcdcd;fill-opacity:1;fill-rule:nonzero;stroke:none"
             id="path3142" />
        </g>
        <g
           id="g3144"
           transform="translate(652.5047,1327.13)">
          <path
             d="m 0,0 77.618,-119.499 -12.936,7.468 -77.618,119.5 z"
             style="fill:#ffffff;fill-opacity:1;fill-rule:nonzero;stroke:none"
             id="path3146" />
        </g>
        <g
           id="g3148"
           transform="translate(717.5402,1215.472)">
          <path
             d="m 0,0 11.028,-6.367 -76.417,117.652 -11.029,6.367 z m 12.582,-8.342 c -0.086,0 -0.172,0.022 -0.25,0.068 l -12.936,7.468 c -0.068,0.039 -0.125,0.094 -0.168,0.16 l -77.619,119.5 c -0.126,0.195 -0.102,0.45 0.057,0.617 0.158,0.168 0.411,0.207 0.612,0.089 l 12.937,-7.469 c 0.068,-0.039 0.126,-0.094 0.169,-0.16 l 77.617,-119.5 c 0.126,-0.195 0.103,-0.45 -0.057,-0.617 -0.096,-0.102 -0.228,-0.156 -0.362,-0.156"
             style="fill:#cdcdcd;fill-opacity:1;fill-rule:nonzero;stroke:none"
             id="path3150" />
        </g>
        <g
           id="g3152"
           transform="translate(652.5047,1327.13)">
          <path
             d="m 0,0 4.88,2.817 77.651,-119.528 -4.913,-2.788 z"
             style="fill:#ffffff;fill-opacity:1;fill-rule:nonzero;stroke:none"
             id="path3154" />
        </g>
        <g
           id="g3156"
           transform="translate(653.2111,1326.9603)">
          <path
             d="m 0,0 77.074,-118.663 4.042,2.294 L 4.012,2.316 Z m 76.911,-119.83 c -0.164,0 -0.324,0.081 -0.419,0.227 l -77.617,119.5 c -0.075,0.116 -0.1,0.256 -0.067,0.39 0.032,0.133 0.117,0.247 0.236,0.316 L 3.923,3.419 C 4.151,3.555 4.447,3.481 4.592,3.259 L 82.244,-116.27 c 0.075,-0.115 0.1,-0.256 0.067,-0.39 -0.033,-0.134 -0.12,-0.249 -0.239,-0.317 l -4.914,-2.788 c -0.078,-0.044 -0.163,-0.065 -0.247,-0.065"
             style="fill:#cdcdcd;fill-opacity:1;fill-rule:nonzero;stroke:none"
             id="path3158" />
        </g>
        <g
           id="g3160"
           transform="translate(639.5685,1334.5988)">
          <path
             d="M 0,0 4.88,2.817 17.85,-4.681 12.936,-7.469 Z"
             style="fill:#ffffff;fill-opacity:1;fill-rule:nonzero;stroke:none"
             id="path3162" />
        </g>
        <g
           id="g3164"
           transform="translate(640.5685,1334.599)">
          <path
             d="M 0,0 11.938,-6.893 15.844,-4.677 3.88,2.239 Z m 11.937,-7.969 c -0.086,0 -0.173,0.023 -0.25,0.068 L -1.25,-0.433 C -1.404,-0.344 -1.5,-0.179 -1.5,0 c 0,0.179 0.096,0.344 0.25,0.433 l 4.88,2.816 c 0.154,0.09 0.346,0.09 0.5,0 L 17.1,-4.248 c 0.155,-0.09 0.251,-0.255 0.25,-0.435 -0.001,-0.179 -0.098,-0.344 -0.253,-0.432 l -4.913,-2.788 c -0.078,-0.044 -0.163,-0.066 -0.247,-0.066"
             style="fill:#cdcdcd;fill-opacity:1;fill-rule:nonzero;stroke:none"
             id="path3166" />
        </g>
        <g
           id="g3168"
           transform="translate(673.4633,1339.2793)">
          <path
             d="m 0,0 77.618,-119.499 -12.937,7.468 -77.617,119.5 z"
             style="fill:#ffffff;fill-opacity:1;fill-rule:nonzero;stroke:none"
             id="path3170" />
        </g>
        <g
           id="g3172"
           transform="translate(738.4982,1227.6215)">
          <path
             d="m 0,0 11.029,-6.367 -76.418,117.652 -11.028,6.367 z m 12.583,-8.342 c -0.086,0 -0.172,0.022 -0.25,0.068 l -12.937,7.468 c -0.068,0.039 -0.125,0.094 -0.168,0.16 l -77.618,119.5 c -0.126,0.195 -0.102,0.45 0.057,0.617 0.159,0.169 0.411,0.207 0.612,0.089 l 12.936,-7.469 c 0.068,-0.039 0.126,-0.094 0.169,-0.16 l 77.618,-119.5 c 0.126,-0.195 0.102,-0.45 -0.057,-0.617 -0.096,-0.102 -0.228,-0.156 -0.362,-0.156"
             style="fill:#cdcdcd;fill-opacity:1;fill-rule:nonzero;stroke:none"
             id="path3174" />
        </g>
        <g
           id="g3176"
           transform="translate(673.4633,1339.2793)">
          <path
             d="m 0,0 4.879,2.817 77.652,-119.528 -4.913,-2.788 z"
             style="fill:#ffffff;fill-opacity:1;fill-rule:nonzero;stroke:none"
             id="path3178" />
        </g>
        <g
           id="g3180"
           transform="translate(674.1691,1339.1097)">
          <path
             d="m 0,0 77.075,-118.663 4.041,2.294 L 4.013,2.316 Z m 76.912,-119.83 c -0.164,0 -0.324,0.081 -0.419,0.227 l -77.618,119.5 c -0.075,0.116 -0.1,0.256 -0.067,0.39 0.032,0.133 0.117,0.247 0.236,0.316 l 4.88,2.816 c 0.23,0.136 0.524,0.063 0.669,-0.16 L 82.244,-116.27 c 0.075,-0.115 0.1,-0.256 0.067,-0.39 -0.033,-0.134 -0.12,-0.249 -0.239,-0.317 l -4.913,-2.788 c -0.078,-0.044 -0.163,-0.065 -0.247,-0.065"
             style="fill:#cdcdcd;fill-opacity:1;fill-rule:nonzero;stroke:none"
             id="path3182" />
        </g>
        <g
           id="g3184"
           transform="translate(660.5271,1346.748)">
          <path
             d="M 0,0 4.879,2.817 17.85,-4.681 12.936,-7.469 Z"
             style="fill:#ffffff;fill-opacity:1;fill-rule:nonzero;stroke:none"
             id="path3186" />
        </g>
        <g
           id="g3188"
           transform="translate(661.5275,1346.7484)">
          <path
             d="m 0,0 11.938,-6.893 3.906,2.216 -11.965,6.916 z m 11.936,-7.969 c -0.086,0 -0.173,0.023 -0.25,0.068 L -1.25,-0.433 C -1.404,-0.344 -1.5,-0.179 -1.5,0 c 0,0.179 0.096,0.344 0.25,0.433 l 4.879,2.816 c 0.154,0.09 0.346,0.09 0.5,0 L 17.1,-4.248 c 0.155,-0.09 0.251,-0.255 0.25,-0.435 -0.001,-0.179 -0.098,-0.344 -0.253,-0.432 l -4.914,-2.788 c -0.078,-0.044 -0.162,-0.066 -0.247,-0.066"
             style="fill:#cdcdcd;fill-opacity:1;fill-rule:nonzero;stroke:none"
             id="path3190" />
        </g>
        <g
           id="g3192"
           transform="translate(694.4219,1351.4286)">
          <path
             d="m 0,0 77.618,-119.499 -12.937,7.468 -77.617,119.5 z"
             style="fill:#ffffff;fill-opacity:1;fill-rule:nonzero;stroke:none"
             id="path3194" />
        </g>
        <g
           id="g3196"
           transform="translate(759.4572,1239.7709)">
          <path
             d="m 0,0 11.028,-6.367 -76.417,117.651 -11.029,6.367 z m 12.582,-8.342 c -0.086,0 -0.172,0.022 -0.25,0.068 l -12.936,7.468 c -0.068,0.039 -0.125,0.094 -0.168,0.16 l -77.619,119.5 c -0.126,0.194 -0.102,0.449 0.057,0.616 0.158,0.169 0.412,0.207 0.612,0.089 l 12.937,-7.469 c 0.068,-0.039 0.126,-0.094 0.169,-0.16 L 13.001,-7.569 c 0.126,-0.195 0.103,-0.45 -0.057,-0.617 -0.096,-0.102 -0.228,-0.156 -0.362,-0.156"
             style="fill:#cdcdcd;fill-opacity:1;fill-rule:nonzero;stroke:none"
             id="path3198" />
        </g>
        <g
           id="g3200"
           transform="translate(694.4219,1351.4286)">
          <path
             d="m 0,0 4.879,2.817 77.652,-119.528 -4.913,-2.788 z"
             style="fill:#ffffff;fill-opacity:1;fill-rule:nonzero;stroke:none"
             id="path3202" />
        </g>
        <g
           id="g3204"
           transform="translate(695.1281,1351.2582)">
          <path
             d="m 0,0 77.074,-118.662 4.042,2.294 L 4.012,2.317 Z m 76.911,-119.829 c -0.164,0 -0.324,0.081 -0.419,0.227 L -1.125,-0.103 c -0.075,0.116 -0.1,0.256 -0.067,0.389 0.032,0.134 0.117,0.248 0.236,0.317 L 3.923,3.42 C 4.15,3.555 4.447,3.482 4.592,3.26 l 77.652,-119.529 c 0.075,-0.115 0.1,-0.256 0.067,-0.39 -0.033,-0.134 -0.12,-0.249 -0.239,-0.317 l -4.914,-2.788 c -0.078,-0.044 -0.163,-0.065 -0.247,-0.065"
             style="fill:#cdcdcd;fill-opacity:1;fill-rule:nonzero;stroke:none"
             id="path3206" />
        </g>
        <g
           id="g3208"
           transform="translate(681.4857,1358.8973)">
          <path
             d="M 0,0 4.879,2.817 17.85,-4.681 12.936,-7.469 Z"
             style="fill:#ffffff;fill-opacity:1;fill-rule:nonzero;stroke:none"
             id="path3210" />
        </g>
        <g
           id="g3212"
           transform="translate(682.4855,1358.8969)">
          <path
             d="M 0,0 11.938,-6.893 15.844,-4.677 3.88,2.24 Z m 11.937,-7.969 c -0.086,0 -0.173,0.023 -0.25,0.068 L -1.25,-0.433 C -1.404,-0.344 -1.5,-0.179 -1.5,0 c 0,0.179 0.096,0.344 0.25,0.433 L 3.63,3.25 c 0.154,0.09 0.346,0.09 0.5,0 L 17.1,-4.248 c 0.155,-0.09 0.251,-0.256 0.25,-0.435 -0.001,-0.179 -0.098,-0.344 -0.253,-0.432 l -4.913,-2.788 c -0.078,-0.044 -0.163,-0.066 -0.247,-0.066"
             style="fill:#cdcdcd;fill-opacity:1;fill-rule:nonzero;stroke:none"
             id="path3214" />
        </g>
        <g
           id="g3216"
           transform="translate(484.8361,1229.9357)">
          <path
             d="m 0,0 77.618,-119.499 -12.937,7.468 -77.617,119.5 z"
             style="fill:#ffffff;fill-opacity:1;fill-rule:nonzero;stroke:none"
             id="path3218" />
        </g>
        <g
           id="g3220"
           transform="translate(549.8712,1118.2777)">
          <path
             d="m 0,0 11.029,-6.367 -76.418,117.652 -11.029,6.367 z m 12.583,-8.342 c -0.086,0 -0.172,0.022 -0.25,0.068 l -12.937,7.468 c -0.068,0.039 -0.125,0.094 -0.168,0.16 l -77.619,119.5 c -0.126,0.195 -0.102,0.45 0.057,0.617 0.158,0.168 0.411,0.207 0.612,0.089 l 12.937,-7.469 c 0.068,-0.039 0.126,-0.094 0.169,-0.16 l 77.618,-119.5 c 0.126,-0.195 0.102,-0.45 -0.057,-0.617 -0.096,-0.102 -0.228,-0.156 -0.362,-0.156"
             style="fill:#cdcdcd;fill-opacity:1;fill-rule:nonzero;stroke:none"
             id="path3222" />
        </g>
        <g
           id="g3224"
           transform="translate(484.8361,1229.9357)">
          <path
             d="m 0,0 4.879,2.817 77.652,-119.528 -4.913,-2.788 z"
             style="fill:#ffffff;fill-opacity:1;fill-rule:nonzero;stroke:none"
             id="path3226" />
        </g>
        <g
           id="g3228"
           transform="translate(485.5421,1229.766)">
          <path
             d="m 0,0 77.075,-118.663 4.041,2.294 L 4.013,2.316 Z m 76.912,-119.83 c -0.164,0 -0.324,0.081 -0.419,0.227 l -77.618,119.5 c -0.075,0.116 -0.1,0.256 -0.067,0.39 0.032,0.133 0.117,0.247 0.236,0.316 l 4.88,2.816 c 0.23,0.135 0.524,0.062 0.669,-0.16 L 82.244,-116.27 c 0.075,-0.115 0.1,-0.256 0.067,-0.39 -0.033,-0.134 -0.12,-0.249 -0.239,-0.317 l -4.913,-2.788 c -0.078,-0.044 -0.163,-0.065 -0.247,-0.065"
             style="fill:#cdcdcd;fill-opacity:1;fill-rule:nonzero;stroke:none"
             id="path3230" />
        </g>
        <g
           id="g3232"
           transform="translate(471.8999,1237.4044)">
          <path
             d="M 0,0 4.879,2.817 17.85,-4.681 12.936,-7.469 Z"
             style="fill:#ffffff;fill-opacity:1;fill-rule:nonzero;stroke:none"
             id="path3234" />
        </g>
        <g
           id="g3236"
           transform="translate(472.8995,1237.4047)">
          <path
             d="M 0,0 11.938,-6.893 15.845,-4.677 3.88,2.239 Z m 11.937,-7.969 c -0.086,0 -0.173,0.023 -0.25,0.068 L -1.25,-0.433 C -1.404,-0.344 -1.5,-0.179 -1.5,0 c 0,0.179 0.096,0.344 0.25,0.433 l 4.88,2.816 c 0.154,0.09 0.346,0.09 0.5,0 l 12.971,-7.497 c 0.155,-0.09 0.251,-0.255 0.25,-0.435 -10e-4,-0.179 -0.098,-0.344 -0.253,-0.432 l -4.914,-2.788 c -0.078,-0.044 -0.163,-0.066 -0.247,-0.066"
             style="fill:#cdcdcd;fill-opacity:1;fill-rule:nonzero;stroke:none"
             id="path3238" />
        </g>
      </g>
    </g>
    <g
       id="g4368"
       transform="translate(828.24056,1388.2388)">
      <path
         d="M 0,0 V -3.5"
         style="fill:none;stroke:#000000;stroke-width:0.5;stroke-linecap:butt;stroke-linejoin:miter;stroke-miterlimit:10;stroke-dasharray:none;stroke-opacity:1"
         id="path4370" />
    </g>
    <g
       id="g4372"
       transform="translate(828.24056,1381.7719)">
      <path
         d="M 0,0 V -18.296"
         style="fill:none;stroke:#000000;stroke-width:0.5;stroke-linecap:butt;stroke-linejoin:miter;stroke-miterlimit:10;stroke-dasharray:6.923, 2.967, 6.923, 2.967;stroke-dashoffset:0;stroke-opacity:1"
         id="path4374" />
    </g>
    <g
       id="g4384"
       transform="translate(1039.1959,1493.8691)">
      <path
         d="M 0,0 V -3.5"
         style="fill:none;stroke:#000000;stroke-width:0.5;stroke-linecap:butt;stroke-linejoin:miter;stroke-miterlimit:10;stroke-dasharray:none;stroke-opacity:1"
         id="path4386" />
    </g>
    <g
       id="g4388"
       transform="translate(1039.1959,1487.3629)">
      <path
         d="M 0,0 V -18.539"
         style="fill:none;stroke:#000000;stroke-width:0.5;stroke-linecap:butt;stroke-linejoin:miter;stroke-miterlimit:10;stroke-dasharray:7.015, 3.006, 7.015, 3.006;stroke-dashoffset:0;stroke-opacity:1"
         id="path4390" />
    </g>
  </g>
</svg>
