<?xml version="1.0" encoding="utf-8"?>
<svg xmlns="http://www.w3.org/2000/svg" xmlns:xlink="http://www.w3.org/1999/xlink" version="1.1" id="Logo" x="0px" y="0px" viewBox="0 0 180.64 127.53" style="enable-background:new 0 0 180.64 127.53;">
<style type="text/css">
	.st0{fill:#FF0000;}
	.st1{fill:#FFFFFF;}
</style>
<g>
	<path class="st0" d="M28.76,51.59c0,0-3.83-1.68-10.25-1.68h0c-6.42,0-10.25,1.68-10.25,1.68s-0.34,7.43,1.11,11.63&#xA;		c2.57,7.39,9.14,9.47,9.14,9.47h0h0c0,0,6.57-2.08,9.14-9.47C29.1,59.02,28.76,51.59,28.76,51.59"/>
	<polygon class="st1" points="25.32,58 25.32,62.09 20.54,62.09 20.54,66.87 16.45,66.87 16.45,62.09 11.67,62.09 11.67,58 &#xA;		16.45,58 16.45,53.22 20.54,53.22 20.54,58"/>
	<g>
		<path d="M37.49,54.87c0.31,0.2,0.67,0.31,1.16,0.31c0.64,0,1.18-0.33,1.18-1.07c0-1.03-2.4-1.16-2.4-2.53&#xA;			c0-0.84,0.74-1.37,1.66-1.37c0.25,0,0.67,0.04,1.03,0.17l-0.08,0.47c-0.23-0.13-0.6-0.2-0.95-0.2c-0.54,0-1.13,0.23-1.13,0.9&#xA;			c0,1.05,2.4,1.06,2.4,2.59c0,1.06-0.91,1.48-1.72,1.48c-0.51,0-0.91-0.1-1.19-0.22L37.49,54.87z"/>
		<path d="M44.4,52.22c-0.25-0.11-0.56-0.2-0.82-0.2c-0.92,0-1.44,0.67-1.44,1.6c0,0.87,0.53,1.6,1.39,1.6&#xA;			c0.3,0,0.58-0.07,0.86-0.17l0.04,0.44c-0.32,0.11-0.62,0.13-0.98,0.13c-1.23,0-1.83-0.94-1.83-2c0-1.18,0.76-2,1.89-2&#xA;			c0.46,0,0.79,0.11,0.92,0.15L44.4,52.22z"/>
		<path d="M45.83,49.91h0.47v2.45h0.02c0.2-0.42,0.63-0.74,1.19-0.74c1.03,0,1.31,0.68,1.31,1.63v2.29h-0.47v-2.28&#xA;			c0-0.66-0.13-1.23-0.91-1.23c-0.84,0-1.13,0.8-1.13,1.46v2.05h-0.47V49.91z"/>
		<path d="M54.51,55.54h-0.57l-1.04-3.31h-0.01l-1.04,3.31h-0.57l-1.23-3.83h0.52l1.01,3.31h0.02l1.07-3.31h0.57l1.01,3.31h0.01&#xA;			l1.06-3.31h0.47L54.51,55.54z"/>
		<path d="M59.55,55.42c-0.33,0.13-0.76,0.21-1.11,0.21c-1.27,0-1.74-0.86-1.74-2c0-1.17,0.65-2,1.61-2c1.08,0,1.52,0.87,1.52,1.9&#xA;			v0.24h-2.62c0,0.81,0.44,1.46,1.26,1.46c0.34,0,0.85-0.14,1.07-0.29V55.42z M59.32,53.35c0-0.67-0.27-1.33-0.98-1.33&#xA;			c-0.7,0-1.12,0.7-1.12,1.33H59.32z"/>
		<path d="M61.79,50.84h-0.47v-0.63h0.47V50.84z M61.32,51.71h0.47v3.83h-0.47V51.71z"/>
		<path d="M63.22,55.14l2.3-3.03h-2.21v-0.41h2.76v0.41l-2.3,3.02h2.3v0.41h-2.85V55.14z"/>
		<path d="M70.05,55.42c-0.33,0.13-0.76,0.21-1.11,0.21c-1.27,0-1.74-0.86-1.74-2c0-1.17,0.65-2,1.61-2c1.08,0,1.52,0.87,1.52,1.9&#xA;			v0.24h-2.62c0,0.81,0.44,1.46,1.26,1.46c0.34,0,0.85-0.14,1.07-0.29V55.42z M69.82,53.35c0-0.67-0.27-1.33-0.98-1.33&#xA;			c-0.7,0-1.12,0.7-1.12,1.33H69.82z"/>
		<path d="M71.81,52.56c0-0.42,0-0.58-0.03-0.86h0.47v0.74h0.02c0.17-0.43,0.5-0.83,0.98-0.83c0.11,0,0.25,0.02,0.33,0.04v0.5&#xA;			c-0.1-0.03-0.23-0.05-0.34-0.05c-0.75,0-0.95,0.84-0.95,1.53v1.89h-0.47V52.56z"/>
		<path d="M75.36,50.84h-0.47v-0.63h0.47V50.84z M74.89,51.71h0.47v3.83h-0.47V51.71z"/>
		<path d="M76.85,54.98c0.29,0.14,0.63,0.24,1,0.24c0.45,0,0.85-0.25,0.85-0.68c0-0.91-1.84-0.77-1.84-1.88&#xA;			c0-0.76,0.62-1.04,1.25-1.04c0.2,0,0.61,0.04,0.95,0.17L79,52.2c-0.25-0.11-0.59-0.18-0.85-0.18c-0.49,0-0.83,0.15-0.83,0.64&#xA;			c0,0.71,1.88,0.62,1.88,1.88c0,0.81-0.76,1.09-1.34,1.09c-0.37,0-0.73-0.04-1.07-0.18L76.85,54.98z"/>
		<path d="M83.13,52.22c-0.26-0.11-0.56-0.2-0.82-0.2c-0.92,0-1.44,0.67-1.44,1.6c0,0.87,0.53,1.6,1.39,1.6&#xA;			c0.3,0,0.58-0.07,0.86-0.17l0.04,0.44c-0.32,0.11-0.62,0.13-0.98,0.13c-1.23,0-1.83-0.94-1.83-2c0-1.18,0.76-2,1.89-2&#xA;			c0.46,0,0.79,0.11,0.92,0.15L83.13,52.22z"/>
		<path d="M84.56,49.91h0.47v2.45h0.01c0.2-0.42,0.63-0.74,1.19-0.74c1.03,0,1.31,0.68,1.31,1.63v2.29h-0.47v-2.28&#xA;			c0-0.66-0.13-1.23-0.91-1.23c-0.84,0-1.13,0.8-1.13,1.46v2.05h-0.47V49.91z"/>
		<path d="M91.87,55.42c-0.33,0.13-0.76,0.21-1.11,0.21c-1.27,0-1.74-0.86-1.74-2c0-1.17,0.65-2,1.61-2c1.08,0,1.52,0.87,1.52,1.9&#xA;			v0.24h-2.62c0,0.81,0.44,1.46,1.26,1.46c0.35,0,0.85-0.14,1.07-0.29V55.42z M91.64,53.35c0-0.67-0.27-1.33-0.97-1.33&#xA;			c-0.7,0-1.13,0.7-1.13,1.33H91.64z"/>
		<path d="M96.35,50.3h2.57v0.45h-2.05v1.87h1.94v0.45h-1.94v2.02H99v0.45h-2.66V50.3z"/>
		<path d="M101.09,50.84h-0.47v-0.63h0.47V50.84z M100.62,51.71h0.47v3.83h-0.47V51.71z"/>
		<path d="M105.9,55.54h-0.47v-0.61h-0.01c-0.25,0.49-0.65,0.7-1.19,0.7c-1.05,0-1.58-0.87-1.58-2c0-1.16,0.45-2,1.58-2&#xA;			c0.75,0,1.13,0.55,1.19,0.74h0.01v-2.45h0.47V55.54z M104.3,55.22c0.84,0,1.13-0.9,1.13-1.6s-0.29-1.6-1.13-1.6&#xA;			c-0.9,0-1.13,0.86-1.13,1.6C103.16,54.37,103.4,55.22,104.3,55.22z"/>
		<path d="M110.65,55.22c0,1.07-0.48,1.94-1.79,1.94c-0.5,0-0.96-0.14-1.16-0.2l0.04-0.47c0.29,0.15,0.71,0.27,1.12,0.27&#xA;			c1.22,0,1.32-0.89,1.32-1.97h-0.02c-0.26,0.56-0.68,0.75-1.16,0.75c-1.22,0-1.61-1.07-1.61-1.91c0-1.16,0.45-2,1.58-2&#xA;			c0.51,0,0.84,0.07,1.19,0.53h0.02v-0.44h0.47V55.22z M109.01,55.13c0.86,0,1.16-0.81,1.16-1.51c0-0.92-0.27-1.6-1.13-1.6&#xA;			c-0.9,0-1.13,0.86-1.13,1.6C107.91,54.37,108.21,55.13,109.01,55.13z"/>
		<path d="M114.94,55.42c-0.33,0.13-0.76,0.21-1.11,0.21c-1.27,0-1.74-0.86-1.74-2c0-1.17,0.65-2,1.61-2c1.08,0,1.52,0.87,1.52,1.9&#xA;			v0.24h-2.62c0,0.81,0.44,1.46,1.26,1.46c0.35,0,0.85-0.14,1.07-0.29V55.42z M114.71,53.35c0-0.67-0.27-1.33-0.97-1.33&#xA;			c-0.7,0-1.13,0.7-1.13,1.33H114.71z"/>
		<path d="M116.7,52.61c0-0.29,0-0.59-0.03-0.9h0.46v0.68h0.01c0.16-0.35,0.44-0.77,1.24-0.77c0.95,0,1.31,0.63,1.31,1.47v2.45&#xA;			h-0.47v-2.33c0-0.72-0.26-1.19-0.91-1.19c-0.86,0-1.13,0.76-1.13,1.4v2.12h-0.47V52.61z"/>
		<path d="M122.94,51.62c1.24,0,1.79,0.96,1.79,2c0,1.04-0.55,2-1.79,2c-1.24,0-1.79-0.96-1.79-2&#xA;			C121.16,52.58,121.7,51.62,122.94,51.62z M122.94,55.22c0.83,0,1.27-0.71,1.27-1.6s-0.44-1.6-1.27-1.6c-0.83,0-1.27,0.71-1.27,1.6&#xA;			S122.12,55.22,122.94,55.22z"/>
		<path d="M125.9,54.98c0.29,0.14,0.63,0.24,1,0.24c0.45,0,0.85-0.25,0.85-0.68c0-0.91-1.84-0.77-1.84-1.88&#xA;			c0-0.76,0.62-1.04,1.25-1.04c0.2,0,0.61,0.04,0.95,0.17l-0.04,0.41c-0.25-0.11-0.59-0.18-0.85-0.18c-0.49,0-0.83,0.15-0.83,0.64&#xA;			c0,0.71,1.88,0.62,1.88,1.88c0,0.81-0.76,1.09-1.34,1.09c-0.37,0-0.74-0.04-1.07-0.18L125.9,54.98z"/>
		<path d="M129.41,54.98c0.29,0.14,0.63,0.24,1,0.24c0.45,0,0.85-0.25,0.85-0.68c0-0.91-1.84-0.77-1.84-1.88&#xA;			c0-0.76,0.62-1.04,1.25-1.04c0.2,0,0.61,0.04,0.95,0.17l-0.04,0.41c-0.25-0.11-0.59-0.18-0.85-0.18c-0.49,0-0.83,0.15-0.83,0.64&#xA;			c0,0.71,1.88,0.62,1.88,1.88c0,0.81-0.76,1.09-1.34,1.09c-0.37,0-0.74-0.04-1.07-0.18L129.41,54.98z"/>
		<path d="M135.77,55.42c-0.33,0.13-0.76,0.21-1.11,0.21c-1.27,0-1.74-0.86-1.74-2c0-1.17,0.65-2,1.62-2c1.08,0,1.52,0.87,1.52,1.9&#xA;			v0.24h-2.62c0,0.81,0.44,1.46,1.26,1.46c0.35,0,0.85-0.14,1.07-0.29V55.42z M135.54,53.35c0-0.67-0.27-1.33-0.98-1.33&#xA;			c-0.7,0-1.13,0.7-1.13,1.33H135.54z"/>
		<path d="M137.53,52.61c0-0.29,0-0.59-0.03-0.9h0.46v0.68h0.02c0.16-0.35,0.44-0.77,1.24-0.77c0.95,0,1.31,0.63,1.31,1.47v2.45&#xA;			h-0.47v-2.33c0-0.72-0.26-1.19-0.91-1.19c-0.86,0-1.13,0.76-1.13,1.4v2.12h-0.47V52.61z"/>
		<path d="M141.98,54.98c0.29,0.14,0.63,0.24,1,0.24c0.45,0,0.85-0.25,0.85-0.68c0-0.91-1.84-0.77-1.84-1.88&#xA;			c0-0.76,0.62-1.04,1.25-1.04c0.2,0,0.61,0.04,0.95,0.17l-0.04,0.41c-0.25-0.11-0.59-0.18-0.85-0.18c-0.49,0-0.83,0.15-0.83,0.64&#xA;			c0,0.71,1.88,0.62,1.88,1.88c0,0.81-0.76,1.09-1.34,1.09c-0.37,0-0.74-0.04-1.07-0.18L141.98,54.98z"/>
		<path d="M148.27,52.22c-0.25-0.11-0.56-0.2-0.82-0.2c-0.92,0-1.44,0.67-1.44,1.6c0,0.87,0.53,1.6,1.39,1.6&#xA;			c0.3,0,0.58-0.07,0.86-0.17l0.04,0.44c-0.32,0.11-0.62,0.13-0.98,0.13c-1.23,0-1.83-0.94-1.83-2c0-1.18,0.76-2,1.89-2&#xA;			c0.46,0,0.79,0.11,0.92,0.15L148.27,52.22z"/>
		<path d="M149.69,49.91h0.47v2.45h0.01c0.2-0.42,0.63-0.74,1.19-0.74c1.03,0,1.31,0.68,1.31,1.63v2.29h-0.47v-2.28&#xA;			c0-0.66-0.13-1.23-0.91-1.23c-0.84,0-1.13,0.8-1.13,1.46v2.05h-0.47V49.91z"/>
		<path d="M156.65,54.92h-0.01c-0.21,0.46-0.74,0.71-1.22,0.71c-1.09,0-1.26-0.74-1.26-1.08c0-1.28,1.37-1.34,2.36-1.34h0.09v-0.2&#xA;			c0-0.65-0.23-0.98-0.87-0.98c-0.4,0-0.77,0.09-1.12,0.32v-0.46c0.29-0.14,0.79-0.26,1.12-0.26c0.95,0,1.34,0.43,1.34,1.43v1.69&#xA;			c0,0.31,0,0.54,0.04,0.8h-0.47V54.92z M156.6,53.61h-0.13c-0.82,0-1.79,0.08-1.79,0.92c0,0.5,0.36,0.69,0.8,0.69&#xA;			c1.11,0,1.13-0.97,1.13-1.38V53.61z"/>
		<path d="M159.1,52.11h-0.77v-0.41h0.77v-0.28c0-0.8,0.03-1.61,1.01-1.61c0.15,0,0.35,0.02,0.44,0.08l-0.03,0.41&#xA;			c-0.1-0.05-0.24-0.08-0.38-0.08c-0.65,0-0.58,0.7-0.58,1.16v0.33h0.86v0.41h-0.86v3.42h-0.47V52.11z"/>
		<path d="M163.5,52.11h-0.87v2.48c0,0.35,0.13,0.63,0.51,0.63c0.18,0,0.3-0.04,0.44-0.09l0.03,0.39c-0.11,0.04-0.34,0.1-0.58,0.1&#xA;			c-0.84,0-0.87-0.58-0.87-1.28v-2.24h-0.75v-0.41h0.75v-0.92l0.47-0.16v1.09h0.87V52.11z"/>
		<path d="M41.23,61.23c-0.33-0.17-0.8-0.23-1.17-0.23c-1.36,0-2.12,0.96-2.12,2.26c0,1.32,0.74,2.26,2.12,2.26&#xA;			c0.35,0,0.87-0.04,1.17-0.23l0.03,0.45c-0.29,0.17-0.87,0.22-1.2,0.22c-1.65,0-2.64-1.09-2.64-2.71c0-1.59,1.02-2.71,2.64-2.71&#xA;			c0.31,0,0.93,0.05,1.2,0.2L41.23,61.23z"/>
		<path d="M44.66,61.97c1.24,0,1.79,0.96,1.79,2c0,1.04-0.55,2-1.79,2c-1.24,0-1.79-0.96-1.79-2&#xA;			C42.87,62.93,43.42,61.97,44.66,61.97z M44.66,65.57c0.83,0,1.27-0.71,1.27-1.6c0-0.89-0.44-1.6-1.27-1.6&#xA;			c-0.83,0-1.27,0.71-1.27,1.6C43.39,64.86,43.83,65.57,44.66,65.57z"/>
		<path d="M47.91,62.96c0-0.29,0-0.59-0.03-0.9h0.46v0.68h0.01c0.16-0.35,0.44-0.77,1.24-0.77c0.95,0,1.31,0.63,1.31,1.47v2.45&#xA;			h-0.47v-2.33c0-0.72-0.26-1.19-0.91-1.19c-0.86,0-1.13,0.76-1.13,1.4v2.12h-0.47V62.96z"/>
		<path d="M52.98,62.46h-0.77v-0.41h0.77v-0.28c0-0.8,0.03-1.61,1.01-1.61c0.15,0,0.35,0.02,0.44,0.08l-0.03,0.41&#xA;			c-0.1-0.05-0.24-0.08-0.38-0.08c-0.65,0-0.58,0.7-0.58,1.16v0.33h0.86v0.41h-0.86v3.42h-0.47V62.46z"/>
		<path d="M58.3,65.77c-0.33,0.13-0.76,0.21-1.11,0.21c-1.27,0-1.74-0.86-1.74-2c0-1.17,0.65-2,1.62-2c1.08,0,1.52,0.87,1.52,1.9&#xA;			v0.24h-2.62c0,0.81,0.44,1.46,1.26,1.46c0.35,0,0.85-0.14,1.07-0.29V65.77z M58.07,63.7c0-0.67-0.27-1.33-0.98-1.33&#xA;			c-0.7,0-1.13,0.7-1.13,1.33H58.07z M57.43,60.36h0.59l-0.95,1.08h-0.34L57.43,60.36z"/>
		<path d="M63.1,65.89h-0.47v-0.61h-0.02c-0.26,0.49-0.65,0.7-1.19,0.7c-1.05,0-1.58-0.87-1.58-2c0-1.16,0.45-2,1.58-2&#xA;			c0.75,0,1.12,0.55,1.19,0.74h0.02v-2.45h0.47V65.89z M61.5,65.57c0.84,0,1.13-0.9,1.13-1.6c0-0.7-0.29-1.6-1.13-1.6&#xA;			c-0.9,0-1.13,0.86-1.13,1.6C60.36,64.72,60.59,65.57,61.5,65.57z"/>
		<path d="M67.39,65.77c-0.33,0.13-0.76,0.21-1.11,0.21c-1.27,0-1.74-0.86-1.74-2c0-1.17,0.65-2,1.61-2c1.08,0,1.52,0.87,1.52,1.9&#xA;			v0.24h-2.62c0,0.81,0.44,1.46,1.26,1.46c0.34,0,0.85-0.14,1.07-0.29V65.77z M67.16,63.7c0-0.67-0.27-1.33-0.98-1.33&#xA;			c-0.7,0-1.12,0.7-1.12,1.33H67.16z M66.52,60.36h0.59l-0.95,1.08h-0.35L66.52,60.36z"/>
		<path d="M69.15,62.91c0-0.42,0-0.58-0.03-0.86h0.47v0.74h0.02c0.17-0.43,0.49-0.83,0.98-0.83c0.11,0,0.25,0.02,0.33,0.04v0.5&#xA;			c-0.1-0.03-0.22-0.05-0.34-0.05c-0.75,0-0.95,0.84-0.95,1.53v1.89h-0.47V62.91z"/>
		<path d="M74.43,65.27h-0.02c-0.21,0.46-0.74,0.71-1.22,0.71c-1.09,0-1.26-0.74-1.26-1.08c0-1.28,1.37-1.34,2.36-1.34h0.09v-0.2&#xA;			c0-0.65-0.23-0.98-0.87-0.98c-0.4,0-0.77,0.09-1.13,0.32v-0.46c0.29-0.14,0.79-0.26,1.13-0.26c0.95,0,1.34,0.43,1.34,1.43v1.69&#xA;			c0,0.31,0,0.54,0.04,0.8h-0.46V65.27z M74.39,63.96h-0.14c-0.82,0-1.79,0.08-1.79,0.92c0,0.5,0.36,0.69,0.79,0.69&#xA;			c1.11,0,1.13-0.97,1.13-1.38V63.96z"/>
		<path d="M78.21,62.46h-0.87v2.48c0,0.35,0.13,0.63,0.51,0.63c0.18,0,0.3-0.04,0.44-0.09l0.03,0.39c-0.11,0.04-0.34,0.1-0.58,0.1&#xA;			c-0.84,0-0.87-0.58-0.87-1.28v-2.24h-0.75v-0.41h0.75v-0.92l0.47-0.17v1.09h0.87V62.46z"/>
		<path d="M80.11,61.19h-0.47v-0.63h0.47V61.19z M79.64,62.06h0.47v3.83h-0.47V62.06z"/>
		<path d="M83.38,61.97c1.24,0,1.79,0.96,1.79,2c0,1.04-0.55,2-1.79,2c-1.24,0-1.79-0.96-1.79-2&#xA;			C81.59,62.93,82.14,61.97,83.38,61.97z M83.38,65.57c0.83,0,1.27-0.71,1.27-1.6c0-0.89-0.44-1.6-1.27-1.6&#xA;			c-0.83,0-1.27,0.71-1.27,1.6C82.11,64.86,82.55,65.57,83.38,65.57z"/>
		<path d="M86.64,62.96c0-0.29,0-0.59-0.03-0.9h0.46v0.68h0.02c0.16-0.35,0.44-0.77,1.24-0.77c0.95,0,1.31,0.63,1.31,1.47v2.45&#xA;			h-0.47v-2.33c0-0.72-0.25-1.19-0.91-1.19c-0.86,0-1.13,0.76-1.13,1.4v2.12h-0.47V62.96z"/>
		<path d="M93.76,65.33c0.29,0.14,0.63,0.24,1,0.24c0.45,0,0.85-0.25,0.85-0.68c0-0.91-1.84-0.77-1.84-1.88&#xA;			c0-0.76,0.62-1.04,1.25-1.04c0.2,0,0.61,0.04,0.95,0.17l-0.04,0.41c-0.25-0.11-0.59-0.18-0.85-0.18c-0.49,0-0.83,0.15-0.83,0.64&#xA;			c0,0.71,1.88,0.62,1.88,1.88c0,0.81-0.76,1.09-1.34,1.09c-0.37,0-0.74-0.04-1.07-0.18L93.76,65.33z"/>
		<path d="M100.54,64.99c0,0.29,0,0.59,0.03,0.9h-0.46V65.2h-0.02c-0.16,0.35-0.44,0.77-1.24,0.77c-0.95,0-1.31-0.63-1.31-1.47&#xA;			v-2.45h0.47v2.33c0,0.72,0.26,1.19,0.91,1.19c0.86,0,1.13-0.76,1.13-1.4v-2.12h0.47V64.99z"/>
		<path d="M102.77,61.19h-0.47v-0.63h0.47V61.19z M102.3,62.06h0.47v3.83h-0.47V62.06z"/>
		<path d="M104.26,65.33c0.29,0.14,0.63,0.24,1,0.24c0.45,0,0.85-0.25,0.85-0.68c0-0.91-1.84-0.77-1.84-1.88&#xA;			c0-0.76,0.62-1.04,1.25-1.04c0.2,0,0.61,0.04,0.95,0.17l-0.04,0.41c-0.25-0.11-0.59-0.18-0.85-0.18c-0.49,0-0.83,0.15-0.83,0.64&#xA;			c0,0.71,1.88,0.62,1.88,1.88c0,0.81-0.76,1.09-1.34,1.09c-0.37,0-0.74-0.04-1.07-0.18L104.26,65.33z"/>
		<path d="M107.76,65.33c0.29,0.14,0.63,0.24,1,0.24c0.45,0,0.85-0.25,0.85-0.68c0-0.91-1.84-0.77-1.84-1.88&#xA;			c0-0.76,0.62-1.04,1.25-1.04c0.2,0,0.61,0.04,0.95,0.17l-0.04,0.41c-0.25-0.11-0.59-0.18-0.85-0.18c-0.49,0-0.83,0.15-0.83,0.64&#xA;			c0,0.71,1.88,0.62,1.88,1.88c0,0.81-0.76,1.09-1.34,1.09c-0.37,0-0.74-0.04-1.07-0.18L107.76,65.33z"/>
		<path d="M114.12,65.77c-0.33,0.13-0.76,0.21-1.11,0.21c-1.27,0-1.74-0.86-1.74-2c0-1.17,0.65-2,1.62-2c1.08,0,1.52,0.87,1.52,1.9&#xA;			v0.24h-2.62c0,0.81,0.44,1.46,1.26,1.46c0.35,0,0.85-0.14,1.07-0.29V65.77z M113.89,63.7c0-0.67-0.27-1.33-0.98-1.33&#xA;			c-0.7,0-1.13,0.7-1.13,1.33H113.89z"/>
		<path d="M41.23,71.58c-0.33-0.17-0.8-0.23-1.17-0.23c-1.36,0-2.12,0.96-2.12,2.26c0,1.32,0.74,2.26,2.12,2.26&#xA;			c0.35,0,0.87-0.04,1.17-0.23l0.03,0.45c-0.29,0.17-0.87,0.22-1.2,0.22c-1.65,0-2.64-1.09-2.64-2.71c0-1.59,1.02-2.71,2.64-2.71&#xA;			c0.31,0,0.93,0.05,1.2,0.2L41.23,71.58z"/>
		<path d="M44.66,72.32c1.24,0,1.79,0.96,1.79,2c0,1.04-0.55,2-1.79,2c-1.24,0-1.79-0.96-1.79-2&#xA;			C42.87,73.28,43.42,72.32,44.66,72.32z M44.66,75.92c0.83,0,1.27-0.71,1.27-1.6c0-0.89-0.44-1.6-1.27-1.6&#xA;			c-0.83,0-1.27,0.71-1.27,1.6C43.39,75.21,43.83,75.92,44.66,75.92z"/>
		<path d="M47.91,73.31c0-0.29,0-0.59-0.03-0.9h0.46v0.68h0.01c0.16-0.35,0.44-0.77,1.24-0.77c0.95,0,1.31,0.63,1.31,1.47v2.45&#xA;			h-0.47v-2.33c0-0.72-0.26-1.19-0.91-1.19c-0.86,0-1.13,0.76-1.13,1.4v2.12h-0.47V73.31z"/>
		<path d="M52.98,72.81h-0.77v-0.41h0.77v-0.28c0-0.8,0.03-1.61,1.01-1.61c0.15,0,0.35,0.02,0.44,0.08L54.41,71&#xA;			c-0.1-0.05-0.24-0.08-0.38-0.08c-0.65,0-0.58,0.7-0.58,1.16v0.33h0.86v0.41h-0.86v3.42h-0.47V72.81z"/>
		<path d="M58.3,76.12c-0.33,0.13-0.76,0.21-1.11,0.21c-1.27,0-1.74-0.86-1.74-2c0-1.17,0.65-2,1.62-2c1.08,0,1.52,0.87,1.52,1.9&#xA;			v0.24h-2.62c0,0.81,0.44,1.46,1.26,1.46c0.35,0,0.85-0.14,1.07-0.29V76.12z M58.07,74.05c0-0.67-0.27-1.33-0.98-1.33&#xA;			c-0.7,0-1.13,0.7-1.13,1.33H58.07z"/>
		<path d="M63.1,76.24h-0.47v-0.61h-0.02c-0.26,0.49-0.65,0.7-1.19,0.7c-1.05,0-1.58-0.87-1.58-2c0-1.16,0.45-2,1.58-2&#xA;			c0.75,0,1.12,0.55,1.19,0.74h0.02v-2.45h0.47V76.24z M61.5,75.92c0.84,0,1.13-0.9,1.13-1.6c0-0.7-0.29-1.6-1.13-1.6&#xA;			c-0.9,0-1.13,0.86-1.13,1.6C60.36,75.07,60.59,75.92,61.5,75.92z"/>
		<path d="M67.39,76.12c-0.33,0.13-0.76,0.21-1.11,0.21c-1.27,0-1.74-0.86-1.74-2c0-1.17,0.65-2,1.61-2c1.08,0,1.52,0.87,1.52,1.9&#xA;			v0.24h-2.62c0,0.81,0.44,1.46,1.26,1.46c0.34,0,0.85-0.14,1.07-0.29V76.12z M67.16,74.05c0-0.67-0.27-1.33-0.98-1.33&#xA;			c-0.7,0-1.12,0.7-1.12,1.33H67.16z"/>
		<path d="M69.15,73.26c0-0.42,0-0.58-0.03-0.86h0.47v0.74h0.02c0.17-0.43,0.49-0.83,0.98-0.83c0.11,0,0.25,0.02,0.33,0.04v0.5&#xA;			c-0.1-0.03-0.22-0.04-0.34-0.04c-0.75,0-0.95,0.84-0.95,1.53v1.89h-0.47V73.26z"/>
		<path d="M74.43,75.62h-0.02c-0.21,0.46-0.74,0.71-1.22,0.71c-1.09,0-1.26-0.74-1.26-1.08c0-1.28,1.37-1.34,2.36-1.34h0.09v-0.2&#xA;			c0-0.65-0.23-0.98-0.87-0.98c-0.4,0-0.77,0.09-1.13,0.32v-0.46c0.29-0.14,0.79-0.26,1.13-0.26c0.95,0,1.34,0.43,1.34,1.43v1.69&#xA;			c0,0.31,0,0.54,0.04,0.8h-0.46V75.62z M74.39,74.31h-0.14c-0.82,0-1.79,0.08-1.79,0.92c0,0.5,0.36,0.69,0.79,0.69&#xA;			c1.11,0,1.13-0.97,1.13-1.38V74.31z"/>
		<path d="M76.21,75.84l2.3-3.03H76.3v-0.41h2.76v0.41l-2.3,3.02h2.3v0.41h-2.85V75.84z"/>
		<path d="M80.95,71.54h-0.47v-0.63h0.47V71.54z M80.48,72.41h0.47v3.83h-0.47V72.41z"/>
		<path d="M84.22,72.32c1.24,0,1.79,0.96,1.79,2c0,1.04-0.55,2-1.79,2c-1.24,0-1.79-0.96-1.79-2&#xA;			C82.43,73.28,82.98,72.32,84.22,72.32z M84.22,75.92c0.83,0,1.27-0.71,1.27-1.6c0-0.89-0.44-1.6-1.27-1.6&#xA;			c-0.83,0-1.27,0.71-1.27,1.6C82.95,75.21,83.39,75.92,84.22,75.92z"/>
		<path d="M87.48,73.31c0-0.29,0-0.59-0.03-0.9h0.46v0.68h0.02c0.16-0.35,0.44-0.77,1.24-0.77c0.95,0,1.31,0.63,1.31,1.47v2.45H90&#xA;			v-2.33c0-0.72-0.26-1.19-0.91-1.19c-0.86,0-1.13,0.76-1.13,1.4v2.12h-0.47V73.31z"/>
		<path d="M94.8,76.12c-0.33,0.13-0.76,0.21-1.11,0.21c-1.27,0-1.74-0.86-1.74-2c0-1.17,0.65-2,1.61-2c1.08,0,1.52,0.87,1.52,1.9&#xA;			v0.24h-2.62c0,0.81,0.44,1.46,1.26,1.46c0.34,0,0.85-0.14,1.07-0.29V76.12z M94.56,74.05c0-0.67-0.27-1.33-0.98-1.33&#xA;			c-0.7,0-1.12,0.7-1.12,1.33H94.56z"/>
		<path d="M99.13,75.57c0.31,0.2,0.67,0.31,1.16,0.31c0.65,0,1.18-0.33,1.18-1.07c0-1.03-2.4-1.16-2.4-2.53&#xA;			c0-0.84,0.74-1.37,1.66-1.37c0.25,0,0.67,0.04,1.03,0.17l-0.08,0.47c-0.23-0.13-0.6-0.2-0.95-0.2c-0.54,0-1.13,0.23-1.13,0.9&#xA;			c0,1.05,2.4,1.06,2.4,2.59c0,1.06-0.91,1.48-1.72,1.48c-0.51,0-0.91-0.1-1.19-0.22L99.13,75.57z"/>
		<path d="M104.88,76.24h-0.56l-1.3-3.83h0.52l1.06,3.31h0.01l1.11-3.31h0.5L104.88,76.24z"/>
		<path d="M107.93,71.54h-0.47v-0.63h0.47V71.54z M107.46,72.41h0.47v3.83h-0.47V72.41z"/>
		<path d="M109.36,75.84l2.3-3.03h-2.21v-0.41h2.76v0.41l-2.31,3.02h2.31v0.41h-2.85V75.84z"/>
		<path d="M113.27,75.84l2.3-3.03h-2.21v-0.41h2.76v0.41l-2.3,3.02h2.3v0.41h-2.85V75.84z"/>
		<path d="M120.11,76.12c-0.33,0.13-0.76,0.21-1.11,0.21c-1.27,0-1.74-0.86-1.74-2c0-1.17,0.65-2,1.62-2c1.08,0,1.52,0.87,1.52,1.9&#xA;			v0.24h-2.62c0,0.81,0.44,1.46,1.26,1.46c0.35,0,0.85-0.14,1.07-0.29V76.12z M119.88,74.05c0-0.67-0.27-1.33-0.98-1.33&#xA;			c-0.7,0-1.13,0.7-1.13,1.33H119.88z"/>
		<path d="M121.87,73.26c0-0.42,0-0.58-0.03-0.86h0.47v0.74h0.02c0.17-0.43,0.49-0.83,0.98-0.83c0.11,0,0.25,0.02,0.33,0.04v0.5&#xA;			c-0.1-0.03-0.22-0.04-0.34-0.04c-0.75,0-0.95,0.84-0.95,1.53v1.89h-0.47V73.26z"/>
		<path d="M127.14,75.62h-0.02c-0.21,0.46-0.74,0.71-1.22,0.71c-1.09,0-1.26-0.74-1.26-1.08c0-1.28,1.37-1.34,2.36-1.34h0.09v-0.2&#xA;			c0-0.65-0.23-0.98-0.87-0.98c-0.4,0-0.77,0.09-1.13,0.32v-0.46c0.29-0.14,0.79-0.26,1.13-0.26c0.95,0,1.34,0.43,1.34,1.43v1.69&#xA;			c0,0.31,0,0.54,0.04,0.8h-0.46V75.62z M127.1,74.31h-0.13c-0.82,0-1.79,0.08-1.79,0.92c0,0.5,0.36,0.69,0.8,0.69&#xA;			c1.11,0,1.13-0.97,1.13-1.38V74.31z"/>
		<path d="M41.23,81.93c-0.33-0.17-0.8-0.23-1.17-0.23c-1.36,0-2.12,0.96-2.12,2.26c0,1.32,0.74,2.26,2.12,2.26&#xA;			c0.35,0,0.87-0.04,1.17-0.23l0.03,0.45c-0.29,0.17-0.87,0.22-1.2,0.22c-1.65,0-2.64-1.09-2.64-2.71c0-1.59,1.02-2.71,2.64-2.71&#xA;			c0.31,0,0.93,0.05,1.2,0.2L41.23,81.93z"/>
		<path d="M44.66,82.67c1.24,0,1.79,0.96,1.79,2c0,1.04-0.55,2-1.79,2c-1.24,0-1.79-0.96-1.79-2&#xA;			C42.87,83.63,43.42,82.67,44.66,82.67z M44.66,86.27c0.83,0,1.27-0.71,1.27-1.6c0-0.89-0.44-1.6-1.27-1.6&#xA;			c-0.83,0-1.27,0.71-1.27,1.6C43.39,85.56,43.83,86.27,44.66,86.27z"/>
		<path d="M47.91,83.66c0-0.29,0-0.59-0.03-0.9h0.46v0.68h0.01c0.16-0.35,0.44-0.77,1.24-0.77c0.95,0,1.31,0.63,1.31,1.47v2.45&#xA;			h-0.47v-2.33c0-0.72-0.26-1.19-0.91-1.19c-0.86,0-1.13,0.76-1.13,1.4v2.12h-0.47V83.66z"/>
		<path d="M52.98,83.16h-0.77v-0.41h0.77v-0.28c0-0.8,0.03-1.61,1.01-1.61c0.15,0,0.35,0.02,0.44,0.08l-0.03,0.41&#xA;			c-0.1-0.05-0.24-0.08-0.38-0.08c-0.65,0-0.58,0.7-0.58,1.16v0.33h0.86v0.41h-0.86v3.42h-0.47V83.16z"/>
		<path d="M58.3,86.47c-0.33,0.13-0.76,0.21-1.11,0.21c-1.27,0-1.74-0.86-1.74-2c0-1.17,0.65-2,1.62-2c1.08,0,1.52,0.87,1.52,1.9&#xA;			v0.24h-2.62c0,0.81,0.44,1.46,1.26,1.46c0.35,0,0.85-0.14,1.07-0.29V86.47z M58.07,84.4c0-0.67-0.27-1.33-0.98-1.33&#xA;			c-0.7,0-1.13,0.7-1.13,1.33H58.07z"/>
		<path d="M63.1,86.59h-0.47v-0.61h-0.02c-0.26,0.49-0.65,0.7-1.19,0.7c-1.05,0-1.58-0.87-1.58-2c0-1.16,0.45-2,1.58-2&#xA;			c0.75,0,1.12,0.55,1.19,0.74h0.02v-2.45h0.47V86.59z M61.5,86.27c0.84,0,1.13-0.9,1.13-1.6c0-0.7-0.29-1.6-1.13-1.6&#xA;			c-0.9,0-1.13,0.86-1.13,1.6C60.36,85.42,60.59,86.27,61.5,86.27z"/>
		<path d="M67.39,86.47c-0.33,0.13-0.76,0.21-1.11,0.21c-1.27,0-1.74-0.86-1.74-2c0-1.17,0.65-2,1.61-2c1.08,0,1.52,0.87,1.52,1.9&#xA;			v0.24h-2.62c0,0.81,0.44,1.46,1.26,1.46c0.34,0,0.85-0.14,1.07-0.29V86.47z M67.16,84.4c0-0.67-0.27-1.33-0.98-1.33&#xA;			c-0.7,0-1.12,0.7-1.12,1.33H67.16z"/>
		<path d="M69.15,83.61c0-0.42,0-0.58-0.03-0.86h0.47v0.74h0.02c0.17-0.43,0.49-0.83,0.98-0.83c0.11,0,0.25,0.02,0.33,0.04v0.5&#xA;			c-0.1-0.03-0.22-0.04-0.34-0.04c-0.75,0-0.95,0.84-0.95,1.53v1.89h-0.47V83.61z"/>
		<path d="M74.43,85.97h-0.02c-0.21,0.46-0.74,0.71-1.22,0.71c-1.09,0-1.26-0.74-1.26-1.08c0-1.28,1.37-1.34,2.36-1.34h0.09v-0.2&#xA;			c0-0.65-0.23-0.98-0.87-0.98c-0.4,0-0.77,0.09-1.13,0.32v-0.46c0.29-0.14,0.79-0.26,1.13-0.26c0.95,0,1.34,0.43,1.34,1.43v1.69&#xA;			c0,0.31,0,0.54,0.04,0.8h-0.46V85.97z M74.39,84.66h-0.14c-0.82,0-1.79,0.08-1.79,0.92c0,0.5,0.36,0.69,0.79,0.69&#xA;			c1.11,0,1.13-0.97,1.13-1.38V84.66z"/>
		<path d="M76.21,86.19l2.3-3.03H76.3v-0.41h2.76v0.41l-2.3,3.02h2.3v0.41h-2.85V86.19z"/>
		<path d="M80.95,81.89h-0.47v-0.63h0.47V81.89z M80.48,82.76h0.47v3.83h-0.47V82.76z"/>
		<path d="M85.71,85.69c0,0.29,0,0.59,0.03,0.9h-0.46V85.9h-0.01c-0.16,0.35-0.44,0.77-1.24,0.77c-0.95,0-1.31-0.63-1.31-1.47v-2.45&#xA;			h0.47v2.33c0,0.72,0.25,1.19,0.91,1.19c0.86,0,1.13-0.76,1.13-1.4v-2.12h0.47V85.69z"/>
		<path d="M87.48,83.66c0-0.29,0-0.59-0.03-0.9h0.46v0.68h0.02c0.16-0.35,0.44-0.77,1.24-0.77c0.95,0,1.31,0.63,1.31,1.47v2.45H90&#xA;			v-2.33c0-0.72-0.26-1.19-0.91-1.19c-0.86,0-1.13,0.76-1.13,1.4v2.12h-0.47V83.66z"/>
		<path d="M94.6,86.03c0.29,0.14,0.63,0.24,1,0.24c0.45,0,0.85-0.25,0.85-0.68c0-0.91-1.84-0.77-1.84-1.88&#xA;			c0-0.76,0.62-1.04,1.25-1.04c0.2,0,0.61,0.04,0.95,0.17l-0.04,0.41c-0.25-0.11-0.59-0.18-0.85-0.18c-0.49,0-0.83,0.15-0.83,0.64&#xA;			c0,0.71,1.88,0.62,1.88,1.88c0,0.81-0.76,1.09-1.34,1.09c-0.37,0-0.74-0.04-1.07-0.18L94.6,86.03z"/>
		<path d="M99.72,86.59h-0.56l-1.3-3.83h0.52l1.06,3.31h0.02l1.11-3.31h0.5L99.72,86.59z"/>
		<path d="M102.78,81.89h-0.47v-0.63h0.47V81.89z M102.31,82.76h0.47v3.83h-0.47V82.76z"/>
		<path d="M104.21,86.19l2.3-3.03h-2.21v-0.41h2.76v0.41l-2.31,3.02h2.31v0.41h-2.85V86.19z"/>
		<path d="M108.47,83.61c0-0.42,0-0.58-0.03-0.86h0.47v0.74h0.01c0.17-0.43,0.5-0.83,0.98-0.83c0.11,0,0.25,0.02,0.33,0.04v0.5&#xA;			c-0.1-0.03-0.22-0.04-0.35-0.04c-0.75,0-0.95,0.84-0.95,1.53v1.89h-0.47V83.61z"/>
		<path d="M113.75,85.97h-0.01c-0.21,0.46-0.74,0.71-1.22,0.71c-1.09,0-1.26-0.74-1.26-1.08c0-1.28,1.37-1.34,2.36-1.34h0.09v-0.2&#xA;			c0-0.65-0.23-0.98-0.87-0.98c-0.4,0-0.77,0.09-1.13,0.32v-0.46c0.29-0.14,0.79-0.26,1.13-0.26c0.95,0,1.34,0.43,1.34,1.43v1.69&#xA;			c0,0.31,0,0.54,0.04,0.8h-0.47V85.97z M113.71,84.66h-0.13c-0.82,0-1.79,0.08-1.79,0.92c0,0.5,0.36,0.69,0.8,0.69&#xA;			c1.11,0,1.13-0.97,1.13-1.38V84.66z"/>
		<path d="M37.49,101.44c0.31,0.2,0.67,0.31,1.16,0.31c0.64,0,1.18-0.33,1.18-1.07c0-1.03-2.4-1.16-2.4-2.53&#xA;			c0-0.84,0.74-1.37,1.66-1.37c0.25,0,0.67,0.04,1.03,0.17l-0.08,0.47c-0.23-0.13-0.6-0.2-0.95-0.2c-0.54,0-1.13,0.23-1.13,0.9&#xA;			c0,1.05,2.4,1.06,2.4,2.59c0,1.06-0.91,1.48-1.72,1.48c-0.51,0-0.91-0.1-1.19-0.22L37.49,101.44z"/>
		<path d="M45.85,102.11h-0.57l-1.04-3.31h-0.01l-1.04,3.31H42.6l-1.23-3.83h0.52l1.01,3.31h0.02l1.07-3.31h0.57l1.01,3.31h0.01&#xA;			l1.06-3.31h0.47L45.85,102.11z"/>
		<path d="M48.8,97.41h-0.47v-0.63h0.47V97.41z M48.33,98.28h0.47v3.83h-0.47V98.28z"/>
		<path d="M50.29,101.56c0.29,0.14,0.63,0.24,1,0.24c0.45,0,0.85-0.25,0.85-0.68c0-0.91-1.84-0.77-1.84-1.88&#xA;			c0-0.76,0.62-1.04,1.25-1.04c0.2,0,0.61,0.04,0.95,0.17l-0.04,0.41c-0.25-0.11-0.59-0.18-0.85-0.18c-0.49,0-0.83,0.15-0.83,0.64&#xA;			c0,0.71,1.88,0.62,1.88,1.88c0,0.81-0.76,1.09-1.34,1.09c-0.37,0-0.74-0.04-1.07-0.18L50.29,101.56z"/>
		<path d="M53.79,101.56c0.29,0.14,0.63,0.24,1,0.24c0.45,0,0.85-0.25,0.85-0.68c0-0.91-1.84-0.77-1.84-1.88&#xA;			c0-0.76,0.62-1.04,1.25-1.04c0.2,0,0.61,0.04,0.95,0.17l-0.05,0.41c-0.25-0.11-0.59-0.18-0.85-0.18c-0.49,0-0.83,0.15-0.83,0.64&#xA;			c0,0.71,1.88,0.62,1.88,1.88c0,0.81-0.76,1.09-1.34,1.09c-0.37,0-0.73-0.04-1.07-0.18L53.79,101.56z"/>
		<path d="M63.91,97.46c-0.33-0.17-0.8-0.23-1.17-0.23c-1.36,0-2.12,0.96-2.12,2.26c0,1.32,0.74,2.26,2.12,2.26&#xA;			c0.35,0,0.87-0.04,1.17-0.23l0.03,0.45c-0.29,0.17-0.87,0.22-1.2,0.22c-1.65,0-2.64-1.09-2.64-2.71c0-1.59,1.02-2.71,2.64-2.71&#xA;			c0.31,0,0.93,0.05,1.2,0.2L63.91,97.46z"/>
		<path d="M67.34,98.19c1.24,0,1.79,0.96,1.79,2c0,1.04-0.55,2-1.79,2c-1.24,0-1.79-0.96-1.79-2C65.55,99.15,66.1,98.19,67.34,98.19&#xA;			z M67.34,101.8c0.83,0,1.27-0.71,1.27-1.6c0-0.89-0.44-1.6-1.27-1.6c-0.83,0-1.27,0.71-1.27,1.6&#xA;			C66.07,101.08,66.51,101.8,67.34,101.8z"/>
		<path d="M70.6,99.18c0-0.29,0-0.59-0.03-0.9h0.46v0.68h0.02c0.16-0.35,0.44-0.77,1.24-0.77c0.95,0,1.31,0.63,1.31,1.47v2.45h-0.47&#xA;			v-2.33c0-0.72-0.26-1.19-0.91-1.19c-0.86,0-1.13,0.76-1.13,1.4v2.12H70.6V99.18z"/>
		<path d="M75.68,98.69H74.9v-0.41h0.77v-0.28c0-0.8,0.03-1.61,1.01-1.61c0.15,0,0.35,0.02,0.44,0.08l-0.03,0.41&#xA;			c-0.1-0.05-0.24-0.08-0.38-0.08c-0.64,0-0.58,0.7-0.58,1.16v0.33h0.86v0.41h-0.86v3.42h-0.47V98.69z"/>
		<path d="M81,101.99c-0.33,0.13-0.76,0.21-1.11,0.21c-1.27,0-1.74-0.86-1.74-2c0-1.17,0.65-2,1.61-2c1.08,0,1.52,0.87,1.52,1.9&#xA;			v0.24h-2.62c0,0.81,0.44,1.46,1.26,1.46c0.35,0,0.85-0.14,1.07-0.29V101.99z M80.77,99.93c0-0.67-0.27-1.33-0.97-1.33&#xA;			c-0.7,0-1.13,0.7-1.13,1.33H80.77z"/>
		<path d="M85.8,102.11h-0.47v-0.61h-0.01c-0.26,0.49-0.65,0.7-1.19,0.7c-1.05,0-1.58-0.87-1.58-2c0-1.16,0.45-2,1.58-2&#xA;			c0.75,0,1.13,0.55,1.19,0.74h0.01v-2.45h0.47V102.11z M84.2,101.8c0.84,0,1.13-0.9,1.13-1.6c0-0.7-0.29-1.6-1.13-1.6&#xA;			c-0.9,0-1.13,0.86-1.13,1.6C83.06,100.94,83.3,101.8,84.2,101.8z"/>
		<path d="M90.09,101.99c-0.33,0.13-0.76,0.21-1.11,0.21c-1.27,0-1.74-0.86-1.74-2c0-1.17,0.65-2,1.61-2c1.08,0,1.52,0.87,1.52,1.9&#xA;			v0.24h-2.62c0,0.81,0.44,1.46,1.26,1.46c0.35,0,0.85-0.14,1.07-0.29V101.99z M89.86,99.93c0-0.67-0.27-1.33-0.98-1.33&#xA;			c-0.7,0-1.13,0.7-1.13,1.33H89.86z"/>
		<path d="M91.86,99.14c0-0.42,0-0.58-0.03-0.86h0.47v0.74h0.01c0.17-0.43,0.5-0.83,0.98-0.83c0.11,0,0.25,0.02,0.33,0.04v0.5&#xA;			c-0.1-0.03-0.23-0.04-0.35-0.04c-0.75,0-0.95,0.84-0.95,1.53v1.89h-0.47V99.14z"/>
		<path d="M97.14,101.5h-0.01c-0.21,0.46-0.74,0.71-1.22,0.71c-1.09,0-1.26-0.74-1.26-1.08c0-1.28,1.37-1.34,2.36-1.34h0.09v-0.2&#xA;			c0-0.65-0.23-0.98-0.87-0.98c-0.4,0-0.77,0.09-1.12,0.32v-0.46c0.29-0.14,0.79-0.26,1.12-0.26c0.95,0,1.34,0.43,1.34,1.43v1.69&#xA;			c0,0.31,0,0.54,0.04,0.8h-0.47V101.5z M97.1,100.18h-0.13c-0.82,0-1.79,0.08-1.79,0.92c0,0.5,0.36,0.69,0.8,0.69&#xA;			c1.11,0,1.13-0.97,1.13-1.38V100.18z"/>
		<path d="M100.93,98.69h-0.87v2.48c0,0.35,0.13,0.63,0.51,0.63c0.18,0,0.3-0.04,0.44-0.09l0.03,0.39c-0.11,0.04-0.35,0.1-0.58,0.1&#xA;			c-0.84,0-0.87-0.58-0.87-1.28v-2.24h-0.75v-0.41h0.75v-0.92l0.47-0.17v1.09h0.87V98.69z"/>
		<path d="M102.84,97.41h-0.47v-0.63h0.47V97.41z M102.36,98.28h0.47v3.83h-0.47V98.28z"/>
		<path d="M106.1,98.19c1.24,0,1.79,0.96,1.79,2c0,1.04-0.55,2-1.79,2c-1.24,0-1.79-0.96-1.79-2&#xA;			C104.32,99.15,104.87,98.19,106.1,98.19z M106.1,101.8c0.83,0,1.27-0.71,1.27-1.6c0-0.89-0.44-1.6-1.27-1.6&#xA;			c-0.83,0-1.27,0.71-1.27,1.6C104.84,101.08,105.28,101.8,106.1,101.8z"/>
		<path d="M109.37,99.18c0-0.29,0-0.59-0.03-0.9h0.46v0.68h0.02c0.16-0.35,0.44-0.77,1.24-0.77c0.95,0,1.31,0.63,1.31,1.47v2.45&#xA;			h-0.47v-2.33c0-0.72-0.26-1.19-0.91-1.19c-0.86,0-1.13,0.76-1.13,1.4v2.12h-0.47V99.18z"/>
		<path d="M37.5,112.4h1.05v5.24H37.5V112.4z"/>
		<path d="M39.7,113.77h0.95v0.53h0.01c0.32-0.44,0.74-0.62,1.27-0.62c0.92,0,1.31,0.65,1.31,1.52v2.44h-1.01v-2.06&#xA;			c0-0.47-0.01-1.11-0.65-1.11c-0.73,0-0.89,0.79-0.89,1.28v1.89H39.7V113.77z"/>
		<path d="M44.39,113.77h0.95v0.53h0.01c0.32-0.44,0.74-0.62,1.27-0.62c0.92,0,1.31,0.65,1.31,1.52v2.44h-1.01v-2.06&#xA;			c0-0.47-0.01-1.11-0.65-1.11c-0.73,0-0.89,0.79-0.89,1.28v1.89h-1.01V113.77z"/>
		<path d="M50.86,113.68c1.15,0,2.03,0.77,2.03,2.05c0,1.11-0.74,2-2.03,2c-1.28,0-2.02-0.89-2.02-2&#xA;			C48.84,114.45,49.72,113.68,50.86,113.68z M50.86,116.95c0.77,0,0.98-0.69,0.98-1.34c0-0.59-0.32-1.15-0.98-1.15&#xA;			c-0.65,0-0.97,0.57-0.97,1.15C49.89,116.25,50.09,116.95,50.86,116.95z"/>
		<path d="M56.08,114.58c-0.31-0.1-0.53-0.17-0.9-0.17c-0.27,0-0.59,0.1-0.59,0.43c0,0.62,1.75,0.23,1.75,1.62&#xA;			c0,0.9-0.8,1.26-1.62,1.26c-0.38,0-0.77-0.07-1.14-0.17l0.06-0.83c0.32,0.16,0.65,0.25,0.99,0.25c0.25,0,0.66-0.1,0.66-0.47&#xA;			c0-0.76-1.75-0.24-1.75-1.64c0-0.83,0.73-1.2,1.52-1.2c0.47,0,0.78,0.08,1.1,0.14L56.08,114.58z"/>
		<path d="M60.78,117.64h-0.95v-0.53h-0.01c-0.31,0.38-0.74,0.62-1.27,0.62c-0.92,0-1.31-0.65-1.31-1.52v-2.44h1.01v2.06&#xA;			c0,0.47,0.01,1.11,0.65,1.11c0.73,0,0.89-0.79,0.89-1.28v-1.89h1.01V117.64z"/>
		<path d="M61.94,112.1h1.01v0.96h-1.01V112.1z M61.94,113.77h1.01v3.87h-1.01V113.77z"/>
		<path d="M66.42,114.58c-0.31-0.1-0.53-0.17-0.9-0.17c-0.27,0-0.59,0.1-0.59,0.43c0,0.62,1.75,0.23,1.75,1.62&#xA;			c0,0.9-0.8,1.26-1.62,1.26c-0.38,0-0.77-0.07-1.14-0.17l0.06-0.83c0.32,0.16,0.65,0.25,0.99,0.25c0.26,0,0.66-0.1,0.66-0.47&#xA;			c0-0.76-1.75-0.24-1.75-1.64c0-0.83,0.73-1.2,1.52-1.2c0.47,0,0.78,0.08,1.1,0.14L66.42,114.58z"/>
		<path d="M69.86,114.58c-0.31-0.1-0.53-0.17-0.9-0.17c-0.27,0-0.59,0.1-0.59,0.43c0,0.62,1.75,0.23,1.75,1.62&#xA;			c0,0.9-0.8,1.26-1.62,1.26c-0.38,0-0.77-0.07-1.14-0.17l0.06-0.83c0.32,0.16,0.65,0.25,0.99,0.25c0.25,0,0.66-0.1,0.66-0.47&#xA;			c0-0.76-1.75-0.24-1.75-1.64c0-0.83,0.73-1.2,1.52-1.2c0.47,0,0.78,0.08,1.1,0.14L69.86,114.58z"/>
		<path d="M74.1,117.42c-0.37,0.2-0.79,0.31-1.33,0.31c-1.28,0-2.02-0.74-2.02-2c0-1.12,0.59-2.04,1.79-2.04&#xA;			c1.43,0,1.84,0.98,1.84,2.33h-2.67c0.04,0.62,0.48,0.98,1.1,0.98c0.49,0,0.91-0.18,1.28-0.39V117.42z M73.43,115.32&#xA;			c-0.03-0.49-0.26-0.91-0.82-0.91s-0.85,0.39-0.89,0.91H73.43z"/>
		<path d="M76.29,115.27h3.75v0.69h-3.75V115.27z"/>
		<path d="M85.1,113.36c-0.33-0.14-0.7-0.22-1.07-0.22c-0.36,0-0.83,0.16-0.83,0.73c0,0.91,2.3,0.53,2.3,2.28&#xA;			c0,1.15-0.91,1.58-1.97,1.58c-0.57,0-0.83-0.08-1.34-0.2l0.1-0.95c0.36,0.2,0.77,0.32,1.19,0.32c0.4,0,0.93-0.2,0.93-0.68&#xA;			c0-1-2.3-0.59-2.3-2.32c0-1.17,0.91-1.6,1.83-1.6c0.45,0,0.87,0.06,1.25,0.19L85.1,113.36z"/>
		<path d="M86.04,113.77h1.07l0.86,2.86h0.01l0.78-2.86h1.17l0.84,2.86h0.02l0.8-2.86h0.96l-1.19,3.87h-1.19l-0.84-2.95h-0.02&#xA;			l-0.83,2.95h-1.15L86.04,113.77z"/>
		<path d="M93.28,112.1h1.01v0.96h-1.01V112.1z M93.28,113.77h1.01v3.87h-1.01V113.77z"/>
		<path d="M97.75,114.58c-0.31-0.1-0.53-0.17-0.9-0.17c-0.27,0-0.59,0.1-0.59,0.43c0,0.62,1.75,0.23,1.75,1.62&#xA;			c0,0.9-0.8,1.26-1.62,1.26c-0.38,0-0.77-0.07-1.14-0.17l0.06-0.83c0.31,0.16,0.65,0.25,0.99,0.25c0.26,0,0.66-0.1,0.66-0.47&#xA;			c0-0.76-1.75-0.24-1.75-1.64c0-0.83,0.73-1.2,1.52-1.2c0.47,0,0.78,0.08,1.1,0.14L97.75,114.58z"/>
		<path d="M101.19,114.58c-0.31-0.1-0.53-0.17-0.9-0.17c-0.27,0-0.59,0.1-0.59,0.43c0,0.62,1.75,0.23,1.75,1.62&#xA;			c0,0.9-0.8,1.26-1.62,1.26c-0.38,0-0.77-0.07-1.14-0.17l0.06-0.83c0.32,0.16,0.65,0.25,0.99,0.25c0.25,0,0.66-0.1,0.66-0.47&#xA;			c0-0.76-1.75-0.24-1.75-1.64c0-0.83,0.73-1.2,1.52-1.2c0.47,0,0.78,0.08,1.1,0.14L101.19,114.58z"/>
		<path d="M104.54,112.4h1.05v5.24h-1.05V112.4z"/>
		<path d="M106.73,113.77h0.95v0.53h0.02c0.31-0.44,0.74-0.62,1.27-0.62c0.92,0,1.31,0.65,1.31,1.52v2.44h-1.01v-2.06&#xA;			c0-0.47-0.01-1.11-0.65-1.11c-0.73,0-0.89,0.79-0.89,1.28v1.89h-1.01V113.77z"/>
		<path d="M111.43,113.77h0.95v0.53h0.01c0.32-0.44,0.74-0.62,1.27-0.62c0.92,0,1.31,0.65,1.31,1.52v2.44h-1.01v-2.06&#xA;			c0-0.47-0.01-1.11-0.65-1.11c-0.73,0-0.88,0.79-0.88,1.28v1.89h-1.01V113.77z"/>
		<path d="M117.9,113.68c1.15,0,2.03,0.77,2.03,2.05c0,1.11-0.74,2-2.03,2c-1.28,0-2.02-0.89-2.02-2&#xA;			C115.88,114.45,116.75,113.68,117.9,113.68z M117.9,116.95c0.77,0,0.98-0.69,0.98-1.34c0-0.59-0.32-1.15-0.98-1.15&#xA;			c-0.65,0-0.97,0.57-0.97,1.15C116.93,116.25,117.13,116.95,117.9,116.95z"/>
		<path d="M120.39,113.77h1.08l0.96,2.82h0.01l0.93-2.82h1.01l-1.43,3.87h-1.13L120.39,113.77z"/>
		<path d="M125.27,113.97c0.39-0.18,0.92-0.29,1.34-0.29c1.18,0,1.67,0.49,1.67,1.63v0.5c0,0.39,0.01,0.68,0.02,0.97&#xA;			c0.01,0.29,0.02,0.56,0.04,0.86h-0.89c-0.04-0.2-0.04-0.46-0.04-0.58h-0.01c-0.23,0.43-0.74,0.67-1.19,0.67&#xA;			c-0.68,0-1.35-0.41-1.35-1.15c0-0.58,0.28-0.92,0.66-1.1c0.38-0.19,0.88-0.23,1.3-0.23h0.56c0-0.62-0.28-0.83-0.87-0.83&#xA;			c-0.43,0-0.86,0.17-1.19,0.42L125.27,113.97z M126.45,116.99c0.31,0,0.55-0.14,0.71-0.35c0.17-0.22,0.21-0.5,0.21-0.8h-0.44&#xA;			c-0.45,0-1.12,0.08-1.12,0.67C125.81,116.85,126.09,116.99,126.45,116.99z"/>
		<path d="M129.71,114.51h-0.74v-0.74h0.74V113l1.01-0.32v1.1h0.89v0.74h-0.89v1.8c0,0.33,0.09,0.64,0.47,0.64&#xA;			c0.18,0,0.35-0.04,0.46-0.11l0.03,0.8c-0.21,0.06-0.44,0.09-0.74,0.09c-0.79,0-1.22-0.49-1.22-1.25V114.51z"/>
		<path d="M132.44,112.1h1.01v0.96h-1.01V112.1z M132.44,113.77h1.01v3.87h-1.01V113.77z"/>
		<path d="M136.38,113.68c1.15,0,2.03,0.77,2.03,2.05c0,1.11-0.74,2-2.03,2c-1.28,0-2.02-0.89-2.02-2&#xA;			C134.36,114.45,135.24,113.68,136.38,113.68z M136.38,116.95c0.77,0,0.98-0.69,0.98-1.34c0-0.59-0.32-1.15-0.98-1.15&#xA;			c-0.65,0-0.97,0.57-0.97,1.15C135.41,116.25,135.62,116.95,136.38,116.95z"/>
		<path d="M139.31,113.77h0.95v0.53h0.02c0.31-0.44,0.74-0.62,1.27-0.62c0.92,0,1.31,0.65,1.31,1.52v2.44h-1.01v-2.06&#xA;			c0-0.47-0.01-1.11-0.65-1.11c-0.73,0-0.89,0.79-0.89,1.28v1.89h-1.01V113.77z"/>
		<path d="M147.79,112.4h1.19l2.06,5.24h-1.16l-0.45-1.2h-2.12l-0.46,1.2h-1.09L147.79,112.4z M148.37,113.45h-0.02l-0.76,2.16h1.53&#xA;			L148.37,113.45z"/>
		<path d="M155.28,113.77v3.49c0,1.05-0.42,2.04-2.04,2.04c-0.4,0-0.86-0.06-1.34-0.26l0.08-0.86c0.31,0.17,0.81,0.34,1.12,0.34&#xA;			c1.11,0,1.16-0.83,1.16-1.5h-0.02c-0.19,0.33-0.64,0.62-1.2,0.62c-1.14,0-1.58-0.92-1.58-1.95c0-0.93,0.48-2,1.64-2&#xA;			c0.51,0,0.91,0.17,1.19,0.62h0.02v-0.53H155.28z M154.27,115.66c0-0.66-0.26-1.2-0.84-1.2c-0.68,0-0.9,0.63-0.9,1.22&#xA;			c0,0.53,0.28,1.17,0.86,1.17C154.01,116.86,154.27,116.31,154.27,115.66z"/>
		<path d="M159.52,117.42c-0.37,0.2-0.79,0.31-1.33,0.31c-1.28,0-2.02-0.74-2.02-2c0-1.12,0.59-2.04,1.79-2.04&#xA;			c1.43,0,1.84,0.98,1.84,2.33h-2.67c0.04,0.62,0.48,0.98,1.1,0.98c0.49,0,0.91-0.18,1.28-0.39V117.42z M158.84,115.32&#xA;			c-0.03-0.49-0.25-0.91-0.82-0.91c-0.56,0-0.85,0.39-0.89,0.91H158.84z"/>
		<path d="M160.7,113.77h0.95v0.53h0.01c0.32-0.44,0.74-0.62,1.27-0.62c0.92,0,1.31,0.65,1.31,1.52v2.44h-1.01v-2.06&#xA;			c0-0.47-0.01-1.11-0.65-1.11c-0.73,0-0.89,0.79-0.89,1.28v1.89h-1.01V113.77z"/>
		<path d="M167.91,114.6c-0.18-0.08-0.38-0.14-0.68-0.14c-0.62,0-1.02,0.5-1.02,1.22c0,0.71,0.34,1.26,1.04,1.26&#xA;			c0.29,0,0.6-0.11,0.77-0.18l0.04,0.83c-0.29,0.09-0.59,0.13-1.01,0.13c-1.27,0-1.91-0.86-1.91-2.04c0-1.12,0.66-2,1.87-2&#xA;			c0.41,0,0.7,0.04,0.98,0.13L167.91,114.6z"/>
		<path d="M170.45,116.59h0.02l0.93-2.82h1.02l-1.45,3.84c-0.32,0.86-0.56,1.7-1.61,1.7c-0.24,0-0.48-0.04-0.71-0.11l0.07-0.74&#xA;			c0.13,0.04,0.27,0.07,0.52,0.07c0.41,0,0.65-0.28,0.65-0.69l-1.48-4.06h1.11L170.45,116.59z"/>
	</g>
</g>
<g>
	<path d="M9.19,8.26h1.84v9.16H9.19V8.26z"/>
	<path d="M13.03,10.66h1.67v0.92h0.03c0.55-0.77,1.3-1.08,2.22-1.08c1.6,0,2.3,1.13,2.3,2.65v4.26h-1.76v-3.61&#xA;		c0-0.83-0.01-1.94-1.14-1.94c-1.27,0-1.55,1.38-1.55,2.24v3.31h-1.76V10.66z"/>
	<path d="M21.25,10.66h1.67v0.92h0.03c0.55-0.77,1.3-1.08,2.22-1.08c1.6,0,2.3,1.13,2.3,2.65v4.26H25.7v-3.61&#xA;		c0-0.83-0.01-1.94-1.14-1.94c-1.27,0-1.55,1.38-1.55,2.24v3.31h-1.76V10.66z"/>
	<path d="M32.56,10.5c2.01,0,3.54,1.35,3.54,3.58c0,1.94-1.3,3.49-3.54,3.49c-2.23,0-3.53-1.55-3.53-3.49&#xA;		C29.03,11.85,30.57,10.5,32.56,10.5z M32.56,16.21c1.35,0,1.71-1.21,1.71-2.34c0-1.04-0.55-2.01-1.71-2.01&#xA;		c-1.14,0-1.69,1-1.69,2.01C30.87,14.99,31.23,16.21,32.56,16.21z"/>
	<path d="M36.93,10.66h1.89l1.68,4.92h0.03l1.63-4.92h1.76l-2.49,6.76h-1.98L36.93,10.66z"/>
	<path d="M45.48,11.01c0.68-0.31,1.6-0.51,2.35-0.51c2.06,0,2.91,0.85,2.91,2.85v0.87c0,0.68,0.01,1.19,0.03,1.69&#xA;		c0.01,0.51,0.04,0.98,0.08,1.51H49.3c-0.07-0.35-0.07-0.8-0.08-1.01h-0.03c-0.41,0.75-1.29,1.17-2.09,1.17&#xA;		c-1.19,0-2.36-0.72-2.36-2.01c0-1.01,0.49-1.6,1.16-1.93s1.54-0.39,2.27-0.39h0.97c0-1.09-0.49-1.46-1.52-1.46&#xA;		c-0.75,0-1.5,0.29-2.09,0.74L45.48,11.01z M47.54,16.29c0.54,0,0.96-0.24,1.23-0.6c0.29-0.38,0.37-0.87,0.37-1.39h-0.76&#xA;		c-0.79,0-1.96,0.13-1.96,1.17C46.42,16.04,46.91,16.29,47.54,16.29z"/>
	<path d="M53.25,11.94h-1.3v-1.29h1.3V9.3l1.76-0.56v1.92h1.56v1.29h-1.56v3.15c0,0.58,0.16,1.12,0.83,1.12&#xA;		c0.32,0,0.62-0.07,0.8-0.18l0.05,1.39c-0.37,0.11-0.77,0.16-1.3,0.16c-1.38,0-2.14-0.85-2.14-2.19V11.94z"/>
	<path d="M58.01,7.74h1.76v1.68h-1.76V7.74z M58.01,10.66h1.76v6.76h-1.76V10.66z"/>
	<path d="M64.92,10.5c2.01,0,3.54,1.35,3.54,3.58c0,1.94-1.3,3.49-3.54,3.49c-2.23,0-3.53-1.55-3.53-3.49&#xA;		C61.39,11.85,62.92,10.5,64.92,10.5z M64.92,16.21c1.35,0,1.71-1.21,1.71-2.34c0-1.04-0.55-2.01-1.71-2.01&#xA;		c-1.14,0-1.69,1-1.69,2.01C63.22,14.99,63.58,16.21,64.92,16.21z"/>
	<path d="M70.04,10.66h1.67v0.92h0.03c0.55-0.77,1.3-1.08,2.22-1.08c1.6,0,2.3,1.13,2.3,2.65v4.26h-1.76v-3.61&#xA;		c0-0.83-0.01-1.94-1.14-1.94c-1.27,0-1.55,1.38-1.55,2.24v3.31h-1.76V10.66z"/>
	<path d="M86.48,12.11c-0.31-0.14-0.66-0.25-1.19-0.25c-1.09,0-1.78,0.87-1.78,2.14c0,1.25,0.59,2.21,1.82,2.21&#xA;		c0.5,0,1.05-0.18,1.35-0.32l0.08,1.46c-0.51,0.16-1.04,0.22-1.76,0.22c-2.22,0-3.33-1.51-3.33-3.57c0-1.96,1.16-3.5,3.27-3.5&#xA;		c0.71,0,1.22,0.08,1.71,0.22L86.48,12.11z"/>
	<path d="M88.12,7.57h1.76v4h0.03c0.45-0.66,1.21-1.08,2.13-1.08c1.6,0,2.3,1.13,2.3,2.65v4.26h-1.76v-3.61&#xA;		c0-0.83-0.01-1.94-1.14-1.94c-1.27,0-1.55,1.38-1.55,2.24v3.31h-1.76V7.57z"/>
	<path d="M101.76,17.03c-0.64,0.35-1.38,0.54-2.32,0.54c-2.23,0-3.53-1.29-3.53-3.5c0-1.96,1.04-3.57,3.14-3.57&#xA;		c2.51,0,3.21,1.72,3.21,4.08h-4.67c0.08,1.09,0.84,1.71,1.93,1.71c0.85,0,1.59-0.31,2.24-0.68V17.03z M100.58,13.37&#xA;		c-0.05-0.85-0.45-1.59-1.43-1.59c-0.98,0-1.48,0.68-1.56,1.59H100.58z"/>
	<path d="M108.28,16.64h-0.03c-0.62,0.75-1.23,0.93-1.98,0.93c-2.11,0-2.87-1.71-2.87-3.56c0-1.86,0.76-3.52,2.87-3.52&#xA;		c1,0,1.64,0.42,2.06,1.12h0.03v-0.96h1.68v9.51h-1.76V16.64z M105.24,14.02c0,0.93,0.33,2.19,1.48,2.19c1.17,0,1.55-1.23,1.55-2.19&#xA;		c0-0.95-0.45-2.15-1.58-2.15C105.55,11.86,105.24,13.11,105.24,14.02z"/>
	<path d="M118.25,17.41h-1.67V16.5h-0.03c-0.54,0.66-1.3,1.08-2.22,1.08c-1.6,0-2.3-1.13-2.3-2.65v-4.26h1.76v3.61&#xA;		c0,0.83,0.01,1.94,1.14,1.94c1.27,0,1.55-1.38,1.55-2.24v-3.31h1.76V17.41z"/>
	<path d="M125.68,17.03c-0.64,0.35-1.38,0.54-2.32,0.54c-2.23,0-3.53-1.29-3.53-3.5c0-1.96,1.04-3.57,3.14-3.57&#xA;		c2.51,0,3.21,1.72,3.21,4.08h-4.67c0.08,1.09,0.84,1.71,1.93,1.71c0.85,0,1.59-0.31,2.24-0.68V17.03z M124.5,13.37&#xA;		c-0.05-0.85-0.45-1.59-1.43-1.59c-0.98,0-1.48,0.68-1.56,1.59H124.5z"/>
	<path d="M13.2,28.07c-0.54-0.18-0.93-0.29-1.57-0.29c-0.47,0-1.04,0.17-1.04,0.75c0,1.08,3.06,0.39,3.06,2.83&#xA;		c0,1.57-1.4,2.2-2.83,2.2c-0.67,0-1.35-0.12-2-0.29l0.11-1.44c0.55,0.28,1.13,0.45,1.73,0.45c0.45,0,1.16-0.17,1.16-0.83&#xA;		c0-1.33-3.06-0.42-3.06-2.86c0-1.46,1.27-2.1,2.65-2.1c0.83,0,1.37,0.13,1.92,0.25L13.2,28.07z"/>
	<path d="M21.42,33.41h-1.67V32.5h-0.03c-0.54,0.66-1.3,1.08-2.22,1.08c-1.6,0-2.3-1.13-2.3-2.65v-4.26h1.76v3.61&#xA;		c0,0.83,0.01,1.94,1.14,1.94c1.27,0,1.55-1.38,1.55-2.24v-3.31h1.76V33.41z"/>
	<path d="M23.43,26.66h1.68v0.96h0.03c0.39-0.66,1.06-1.12,2.1-1.12c2.07,0,2.83,1.65,2.83,3.52c0,1.85-0.76,3.56-2.87,3.56&#xA;		c-0.75,0-1.36-0.18-1.98-0.93h-0.03v3.53h-1.76V26.66z M25.2,30.02c0,0.96,0.38,2.19,1.55,2.19c1.15,0,1.48-1.26,1.48-2.19&#xA;		c0-0.91-0.31-2.15-1.46-2.15C25.65,27.86,25.2,29.07,25.2,30.02z"/>
	<path d="M31.64,26.66h1.68v0.96h0.03c0.39-0.66,1.06-1.12,2.1-1.12c2.07,0,2.83,1.65,2.83,3.52c0,1.85-0.76,3.56-2.87,3.56&#xA;		c-0.75,0-1.37-0.18-1.98-0.93H33.4v3.53h-1.76V26.66z M33.42,30.02c0,0.96,0.38,2.19,1.55,2.19c1.16,0,1.48-1.26,1.48-2.19&#xA;		c0-0.91-0.32-2.15-1.46-2.15C33.86,27.86,33.42,29.07,33.42,30.02z"/>
	<path d="M42.96,26.5c2.01,0,3.54,1.35,3.54,3.58c0,1.94-1.3,3.49-3.54,3.49c-2.23,0-3.53-1.55-3.53-3.49&#xA;		C39.43,27.85,40.96,26.5,42.96,26.5z M42.96,32.21c1.35,0,1.71-1.21,1.71-2.34c0-1.04-0.55-2.01-1.71-2.01&#xA;		c-1.14,0-1.69,1-1.69,2.01C41.27,30.99,41.62,32.21,42.96,32.21z"/>
	<path d="M48.12,26.66h1.56v1.54h0.03c0.08-0.63,0.8-1.69,1.85-1.69c0.17,0,0.35,0,0.54,0.05v1.77c-0.16-0.09-0.47-0.14-0.79-0.14&#xA;		c-1.43,0-1.43,1.79-1.43,2.76v2.48h-1.76V26.66z"/>
	<path d="M53.96,27.94h-1.3v-1.29h1.3V25.3l1.76-0.56v1.92h1.56v1.29h-1.56v3.15c0,0.58,0.16,1.12,0.83,1.12&#xA;		c0.32,0,0.62-0.07,0.8-0.18l0.05,1.39c-0.37,0.11-0.77,0.16-1.3,0.16c-1.38,0-2.14-0.85-2.14-2.19V27.94z"/>
	<path d="M64.1,33.03c-0.64,0.35-1.38,0.54-2.32,0.54c-2.23,0-3.53-1.29-3.53-3.5c0-1.96,1.04-3.57,3.14-3.57&#xA;		c2.51,0,3.21,1.72,3.21,4.08h-4.67c0.08,1.09,0.84,1.71,1.93,1.71c0.85,0,1.59-0.31,2.24-0.68V33.03z M62.92,29.37&#xA;		c-0.05-0.85-0.45-1.59-1.43-1.59s-1.48,0.68-1.56,1.59H62.92z"/>
	<path d="M70.68,32.65h-0.03c-0.52,0.66-1.25,0.92-2.07,0.92c-2.07,0-2.83-1.71-2.83-3.56c0-1.86,0.76-3.52,2.83-3.52&#xA;		c0.88,0,1.5,0.3,2.02,0.95h0.03v-3.87h1.76v9.84h-1.71V32.65z M69.06,32.21c1.17,0,1.55-1.23,1.55-2.19c0-0.95-0.45-2.15-1.58-2.15&#xA;		c-1.14,0-1.46,1.25-1.46,2.15C67.58,30.95,67.91,32.21,69.06,32.21z"/>
	<path d="M78.24,23.57H80v3.95h0.03c0.49-0.64,1.1-1.02,2.02-1.02c2.07,0,2.83,1.65,2.83,3.52c0,1.85-0.76,3.56-2.83,3.56&#xA;		c-0.75,0-1.56-0.26-2.07-0.98h-0.03v0.83h-1.71V23.57z M81.56,32.21c1.15,0,1.48-1.26,1.48-2.19c0-0.91-0.31-2.15-1.46-2.15&#xA;		c-1.13,0-1.57,1.21-1.57,2.15C80.01,30.97,80.39,32.21,81.56,32.21z"/>
	<path d="M89.26,31.59h0.03l1.63-4.93h1.78l-2.53,6.71c-0.56,1.5-0.97,2.97-2.81,2.97c-0.42,0-0.84-0.07-1.25-0.18l0.12-1.3&#xA;		c0.22,0.08,0.47,0.12,0.91,0.12c0.71,0,1.14-0.49,1.14-1.21l-2.58-7.1h1.94L89.26,31.59z"/>
</g>
</svg>