<?xml version="1.0" encoding="UTF-8" standalone="no"?>
<!-- Created with Inkscape (http://www.inkscape.org/) -->

<svg
   version="1.1"
   id="svg2"
   xml:space="preserve"
   width="1466.0291"
   height="110.34653"
   viewBox="0 0 1466.029 110.34653"
   sodipodi:docname="arema-h-sm.svg"
   inkscape:version="1.2.2 (b0a8486541, 2022-12-01)"
   xmlns:inkscape="http://www.inkscape.org/namespaces/inkscape"
   xmlns:sodipodi="http://sodipodi.sourceforge.net/DTD/sodipodi-0.dtd"
   xmlns="http://www.w3.org/2000/svg"
   xmlns:svg="http://www.w3.org/2000/svg"><defs
     id="defs6"><clipPath
       clipPathUnits="userSpaceOnUse"
       id="clipPath56"><path
         d="M 0,311.811 H 2494.488 V 0 H 0 Z"
         id="path54" /></clipPath></defs><sodipodi:namedview
     id="namedview4"
     pagecolor="#ffffff"
     bordercolor="#000000"
     borderopacity="0.25"
     inkscape:pageshadow="2"
     inkscape:pageopacity="0.0"
     inkscape:pagecheckerboard="0"
     showgrid="false"
     inkscape:zoom="0.39837801"
     inkscape:cx="1513.6378"
     inkscape:cy="58.9892"
     inkscape:window-width="1876"
     inkscape:window-height="1131"
     inkscape:window-x="0"
     inkscape:window-y="0"
     inkscape:window-maximized="1"
     inkscape:current-layer="g52"
     inkscape:showpageshadow="2"
     inkscape:deskcolor="#d1d1d1" /><g
     id="g8"
     inkscape:groupmode="layer"
     inkscape:label="arema-h"
     transform="matrix(1.3333333,0,0,-1.3333333,-151.18106,265.28533)"><g
       id="g10"
       transform="translate(137.2568,197.7916)"><path
         d="m 0,0 -23.871,-80.466 h 10.311 l 6.836,24.767 h 30.483 l 6.948,-24.767 H 41.466 L 17.931,0 Z m 6.277,-8.966 h 4.482 L 21.293,-46.733 H -4.146 Z"
         style="fill:#1d1d1b;fill-opacity:1;fill-rule:nonzero;stroke:none"
         id="path12" /></g><g
       id="g14"
       transform="translate(274.2123,197.7912)"><path
         d="m 0,0 h 10.086 v -71.276 h 33.509 v -9.19 H 0 Z"
         style="fill:#1d1d1b;fill-opacity:1;fill-rule:nonzero;stroke:none"
         id="path16" /></g><g
       id="g18"
       transform="translate(386.2839,142.0926)"><path
         d="m 0,0 h -30.483 l -6.836,-24.767 H -47.63 l 23.871,80.466 H -5.828 L 17.707,-24.767 H 6.948 Z M -2.466,8.966 -13,46.733 h -4.483 L -27.905,8.966 Z"
         style="fill:#1d1d1b;fill-opacity:1;fill-rule:nonzero;stroke:none"
         id="path20" /></g><g
       id="g26"
       transform="translate(428.5103,198.4252)"><path
         d="M 0,0 27.69,-12.924 55.382,0 Z"
         style="fill:#1d1d1b;fill-opacity:1;fill-rule:nonzero;stroke:none"
         id="path28" /></g><g
       id="g30"
       transform="translate(456.2008,172.5773)"><path
         d="M 0,0 27.691,-12.924 H -27.691 Z"
         style="fill:#1d1d1b;fill-opacity:1;fill-rule:nonzero;stroke:none"
         id="path32" /></g><g
       id="g34"
       transform="translate(428.5103,198.4252)"><path
         d="m 0,0 v -38.772 l 12.924,19.386 z"
         style="fill:#1d1d1b;fill-opacity:1;fill-rule:nonzero;stroke:none"
         id="path36" /></g><g
       id="g38"
       transform="translate(455.8705,130.1873)"><path
         d="M 0,0 27.691,-12.924 H -27.691 Z"
         style="fill:#1d1d1b;fill-opacity:1;fill-rule:nonzero;stroke:none"
         id="path40" /></g><g
       id="g42"
       transform="translate(455.8705,143.1114)"><path
         d="M 0,0 -27.691,12.924 H 27.691 Z"
         style="fill:#1d1d1b;fill-opacity:1;fill-rule:nonzero;stroke:none"
         id="path44" /></g><g
       id="g46"
       transform="translate(470.6372,136.6493)"><path
         d="M 0,0 12.924,19.386 V -19.386 Z"
         style="fill:#1d1d1b;fill-opacity:1;fill-rule:nonzero;stroke:none"
         id="path48" /></g><g
       id="g50"><g
         id="g52"
         clip-path="url(#clipPath56)"><g
           id="g82"
           transform="translate(968.9242,197.7064)"><path
             d="M 0,0 H 22.078 L 38.44,-71.5 h 4.034 L 58.836,0 H 80.914 V -80.466 H 71.5 v 71.5 h -5.043 l -17.035,-71.5 H 31.043 l -16.81,71.5 H 9.19 v -71.5 H 0 Z"
             style="fill:#1d1d1b;fill-opacity:1;fill-rule:nonzero;stroke:none"
             id="path84" /></g><g
           id="g86"
           transform="translate(1179.3986,188.5168)"><path
             d="M 0,0 H -23.423 V 9.19 H 33.509 V 0 H 10.086 V -71.276 H 0 Z"
             style="fill:#1d1d1b;fill-opacity:1;fill-rule:nonzero;stroke:none"
             id="path88" /></g><g
           id="g100"
           transform="translate(1094.0382,117.802)"><path
             d="m 0,0 h -27.054 l 13.527,27.054 z"
             style="fill:#1d1d1b;fill-opacity:1;fill-rule:nonzero;stroke:none"
             id="path102" /></g><g
           id="g104"
           transform="translate(1121.0922,117.802)"><path
             d="m 0,0 h -27.054 l 13.527,27.054 z"
             style="fill:#1d1d1b;fill-opacity:1;fill-rule:nonzero;stroke:none"
             id="path106" /></g><g
           id="g108"
           transform="translate(1148.1462,117.802)"><path
             d="m 0,0 h -27.054 l 13.527,27.054 z"
             style="fill:#1d1d1b;fill-opacity:1;fill-rule:nonzero;stroke:none"
             id="path110" /></g><g
           id="g112"
           transform="translate(1107.5653,144.856)"><path
             d="m 0,0 h -27.054 l 13.527,27.054 z"
             style="fill:#1d1d1b;fill-opacity:1;fill-rule:nonzero;stroke:none"
             id="path114" /></g><g
           id="g116"
           transform="translate(1134.6191,144.856)"><path
             d="m 0,0 h -27.054 l 13.527,27.054 z"
             style="fill:#1d1d1b;fill-opacity:1;fill-rule:nonzero;stroke:none"
             id="path118" /></g><g
           id="g120"
           transform="translate(1121.0922,171.91)"><path
             d="m 0,0 h -27.054 l 13.527,27.054 z"
             style="fill:#1d1d1b;fill-opacity:1;fill-rule:nonzero;stroke:none"
             id="path122" /></g><path
           d="m 821.706,198.055 h 16.232 v -3.246 h -16.232 z"
           style="fill:#1d1d1b;fill-opacity:1;fill-rule:nonzero;stroke:none"
           id="path268" /><path
           d="m 821.706,191.562 h 16.232 v -3.246 h -16.232 z"
           style="fill:#1d1d1b;fill-opacity:1;fill-rule:nonzero;stroke:none"
           id="path270" /><g
           id="g280"
           transform="translate(640.3104,197.791)"><path
             d="m 0,0 h 45.276 v -8.966 h -35.19 v -25.439 h 31.828 v -8.966 H 10.086 V -71.5 H 46.06 v -8.966 H 0 Z"
             style="fill:#1d1d1b;fill-opacity:1;fill-rule:nonzero;stroke:none"
             id="path282" /></g><g
           id="g284"
           transform="translate(777.2621,158.9031)"><path
             d="m 0,0 v -41.578 h -8.854 v 14.233 c -4.594,-9.414 -14.008,-15.354 -24.543,-15.354 -18.939,0 -33.845,18.268 -33.845,41.354 0,23.31 14.906,41.354 34.293,41.354 15.914,0 29.923,-11.543 32.501,-26.561 h -11.768 c -0.448,11.207 -7.508,17.483 -20.733,17.483 -15.241,0 -22.861,-8.517 -22.861,-25.664 V -8.069 c 0,-16.026 8.517,-25.552 22.974,-25.552 14.008,0 22.638,9.302 22.974,24.656 H -32.164 V 0 Z"
             style="fill:#1d1d1b;fill-opacity:1;fill-rule:nonzero;stroke:none"
             id="path286" /></g><g
           id="g288"
           transform="translate(882.2781,197.791)"><path
             d="m 0,0 h 20.397 l 26.672,-71.5 h 4.035 V 0 h 9.301 v -80.466 h -19.5 l -26.672,71.5 H 9.19 v -71.5 H 0 Z"
             style="fill:#1d1d1b;fill-opacity:1;fill-rule:nonzero;stroke:none"
             id="path290" /></g><path
           d="m 814.491,133.125 h -1.804 v -16.232 h 1.804 z"
           style="fill:#1d1d1b;fill-opacity:1;fill-rule:nonzero;stroke:none"
           id="path304" /><path
           d="m 818.098,133.125 h -1.804 v -16.232 h 1.804 z"
           style="fill:#1d1d1b;fill-opacity:1;fill-rule:nonzero;stroke:none"
           id="path306" /><path
           d="m 821.706,133.125 h -1.804 v -16.232 h 1.804 z"
           style="fill:#1d1d1b;fill-opacity:1;fill-rule:nonzero;stroke:none"
           id="path308" /><path
           d="m 807.277,133.125 h -1.804 v -16.232 h 1.804 z"
           style="fill:#1d1d1b;fill-opacity:1;fill-rule:nonzero;stroke:none"
           id="path310" /><path
           d="m 810.884,133.125 h -1.804 v -16.232 h 1.804 z"
           style="fill:#1d1d1b;fill-opacity:1;fill-rule:nonzero;stroke:none"
           id="path312" /><path
           d="m 814.491,133.125 h -1.804 v -16.232 h 1.804 z"
           style="fill:#1d1d1b;fill-opacity:1;fill-rule:nonzero;stroke:none"
           id="path314" /><path
           d="m 846.956,133.125 h -1.804 v -16.232 h 1.804 z"
           style="fill:#1d1d1b;fill-opacity:1;fill-rule:nonzero;stroke:none"
           id="path316" /><path
           d="m 850.563,133.125 h -1.804 v -16.232 h 1.804 z"
           style="fill:#1d1d1b;fill-opacity:1;fill-rule:nonzero;stroke:none"
           id="path318" /><path
           d="m 854.17,133.125 h -1.804 v -16.232 h 1.804 z"
           style="fill:#1d1d1b;fill-opacity:1;fill-rule:nonzero;stroke:none"
           id="path320" /><path
           d="m 839.742,133.125 h -1.804 v -16.232 h 1.804 z"
           style="fill:#1d1d1b;fill-opacity:1;fill-rule:nonzero;stroke:none"
           id="path322" /><path
           d="m 843.349,133.125 h -1.804 v -16.232 h 1.804 z"
           style="fill:#1d1d1b;fill-opacity:1;fill-rule:nonzero;stroke:none"
           id="path324" /><path
           d="m 846.956,133.125 h -1.804 v -16.232 h 1.804 z"
           style="fill:#1d1d1b;fill-opacity:1;fill-rule:nonzero;stroke:none"
           id="path326" /><path
           d="m 814.491,165.59 h -1.804 v -16.232 h 1.804 z"
           style="fill:#1d1d1b;fill-opacity:1;fill-rule:nonzero;stroke:none"
           id="path328" /><path
           d="m 818.098,165.59 h -1.804 v -16.232 h 1.804 z"
           style="fill:#1d1d1b;fill-opacity:1;fill-rule:nonzero;stroke:none"
           id="path330" /><path
           d="m 821.706,165.59 h -1.804 v -16.232 h 1.804 z"
           style="fill:#1d1d1b;fill-opacity:1;fill-rule:nonzero;stroke:none"
           id="path332" /><path
           d="m 807.277,165.59 h -1.804 v -16.232 h 1.804 z"
           style="fill:#1d1d1b;fill-opacity:1;fill-rule:nonzero;stroke:none"
           id="path334" /><path
           d="m 810.884,165.59 h -1.804 v -16.232 h 1.804 z"
           style="fill:#1d1d1b;fill-opacity:1;fill-rule:nonzero;stroke:none"
           id="path336" /><path
           d="m 814.491,165.59 h -1.804 v -16.232 h 1.804 z"
           style="fill:#1d1d1b;fill-opacity:1;fill-rule:nonzero;stroke:none"
           id="path338" /><path
           d="m 830.724,149.2 h -1.804 v -16.232 h 1.804 z"
           style="fill:#1d1d1b;fill-opacity:1;fill-rule:nonzero;stroke:none"
           id="path340" /><path
           d="m 834.331,149.2 h -1.804 v -16.232 h 1.804 z"
           style="fill:#1d1d1b;fill-opacity:1;fill-rule:nonzero;stroke:none"
           id="path342" /><path
           d="m 837.938,149.2 h -1.804 v -16.232 h 1.804 z"
           style="fill:#1d1d1b;fill-opacity:1;fill-rule:nonzero;stroke:none"
           id="path344" /><path
           d="m 823.509,149.2 h -1.804 v -16.232 h 1.804 z"
           style="fill:#1d1d1b;fill-opacity:1;fill-rule:nonzero;stroke:none"
           id="path346" /><path
           d="m 827.116,149.2 h -1.804 v -16.232 h 1.804 z"
           style="fill:#1d1d1b;fill-opacity:1;fill-rule:nonzero;stroke:none"
           id="path348" /><path
           d="m 830.724,149.2 h -1.804 v -16.232 h 1.804 z"
           style="fill:#1d1d1b;fill-opacity:1;fill-rule:nonzero;stroke:none"
           id="path350" /><path
           d="m 821.706,116.893 h 16.232 v 3.246 h -16.232 z"
           style="fill:#1d1d1b;fill-opacity:1;fill-rule:nonzero;stroke:none"
           id="path352" /><path
           d="m 821.706,123.386 h 16.232 v 3.246 h -16.232 z"
           style="fill:#1d1d1b;fill-opacity:1;fill-rule:nonzero;stroke:none"
           id="path354" /><path
           d="m 821.706,129.879 h 16.232 v 3.246 h -16.232 z"
           style="fill:#1d1d1b;fill-opacity:1;fill-rule:nonzero;stroke:none"
           id="path356" /><path
           d="m 805.473,133.125 h 16.232 v 3.246 h -16.232 z"
           style="fill:#1d1d1b;fill-opacity:1;fill-rule:nonzero;stroke:none"
           id="path358" /><path
           d="m 805.473,139.618 h 16.232 v 3.246 h -16.232 z"
           style="fill:#1d1d1b;fill-opacity:1;fill-rule:nonzero;stroke:none"
           id="path360" /><path
           d="m 805.473,146.111 h 16.232 v 3.246 h -16.232 z"
           style="fill:#1d1d1b;fill-opacity:1;fill-rule:nonzero;stroke:none"
           id="path362" /><path
           d="m 814.491,181.822 h -1.804 v 16.232 h 1.804 z"
           style="fill:#1d1d1b;fill-opacity:1;fill-rule:nonzero;stroke:none"
           id="path364" /><path
           d="m 818.098,181.822 h -1.804 v 16.232 h 1.804 z"
           style="fill:#1d1d1b;fill-opacity:1;fill-rule:nonzero;stroke:none"
           id="path366" /><path
           d="m 821.706,181.822 h -1.804 v 16.232 h 1.804 z"
           style="fill:#1d1d1b;fill-opacity:1;fill-rule:nonzero;stroke:none"
           id="path368" /><path
           d="m 807.277,181.822 h -1.804 v 16.232 h 1.804 z"
           style="fill:#1d1d1b;fill-opacity:1;fill-rule:nonzero;stroke:none"
           id="path370" /><path
           d="m 810.884,181.822 h -1.804 v 16.232 h 1.804 z"
           style="fill:#1d1d1b;fill-opacity:1;fill-rule:nonzero;stroke:none"
           id="path372" /><path
           d="m 814.491,181.822 h -1.804 v 16.232 h 1.804 z"
           style="fill:#1d1d1b;fill-opacity:1;fill-rule:nonzero;stroke:none"
           id="path374" /><path
           d="m 846.956,181.822 h -1.804 v 16.232 h 1.804 z"
           style="fill:#1d1d1b;fill-opacity:1;fill-rule:nonzero;stroke:none"
           id="path376" /><path
           d="m 850.563,181.822 h -1.804 v 16.232 h 1.804 z"
           style="fill:#1d1d1b;fill-opacity:1;fill-rule:nonzero;stroke:none"
           id="path378" /><path
           d="m 854.17,181.822 h -1.804 v 16.232 h 1.804 z"
           style="fill:#1d1d1b;fill-opacity:1;fill-rule:nonzero;stroke:none"
           id="path380" /><path
           d="m 839.742,181.822 h -1.804 v 16.232 h 1.804 z"
           style="fill:#1d1d1b;fill-opacity:1;fill-rule:nonzero;stroke:none"
           id="path382" /><path
           d="m 843.349,181.822 h -1.804 v 16.232 h 1.804 z"
           style="fill:#1d1d1b;fill-opacity:1;fill-rule:nonzero;stroke:none"
           id="path384" /><path
           d="m 846.956,181.822 h -1.804 v 16.232 h 1.804 z"
           style="fill:#1d1d1b;fill-opacity:1;fill-rule:nonzero;stroke:none"
           id="path386" /><path
           d="m 814.491,149.358 h -1.804 v 16.232 h 1.804 z"
           style="fill:#1d1d1b;fill-opacity:1;fill-rule:nonzero;stroke:none"
           id="path388" /><path
           d="m 818.098,149.358 h -1.804 v 16.232 h 1.804 z"
           style="fill:#1d1d1b;fill-opacity:1;fill-rule:nonzero;stroke:none"
           id="path390" /><path
           d="m 821.706,149.358 h -1.804 v 16.232 h 1.804 z"
           style="fill:#1d1d1b;fill-opacity:1;fill-rule:nonzero;stroke:none"
           id="path392" /><path
           d="m 807.277,149.358 h -1.804 v 16.232 h 1.804 z"
           style="fill:#1d1d1b;fill-opacity:1;fill-rule:nonzero;stroke:none"
           id="path394" /><path
           d="m 810.884,149.358 h -1.804 v 16.232 h 1.804 z"
           style="fill:#1d1d1b;fill-opacity:1;fill-rule:nonzero;stroke:none"
           id="path396" /><path
           d="m 814.491,149.358 h -1.804 v 16.232 h 1.804 z"
           style="fill:#1d1d1b;fill-opacity:1;fill-rule:nonzero;stroke:none"
           id="path398" /><path
           d="m 830.724,165.748 h -1.804 v 16.232 h 1.804 z"
           style="fill:#1d1d1b;fill-opacity:1;fill-rule:nonzero;stroke:none"
           id="path400" /><path
           d="m 834.331,165.748 h -1.804 v 16.232 h 1.804 z"
           style="fill:#1d1d1b;fill-opacity:1;fill-rule:nonzero;stroke:none"
           id="path402" /><path
           d="m 837.938,165.748 h -1.804 v 16.232 h 1.804 z"
           style="fill:#1d1d1b;fill-opacity:1;fill-rule:nonzero;stroke:none"
           id="path404" /><path
           d="m 823.509,165.748 h -1.804 v 16.232 h 1.804 z"
           style="fill:#1d1d1b;fill-opacity:1;fill-rule:nonzero;stroke:none"
           id="path406" /><path
           d="m 827.116,165.748 h -1.804 v 16.232 h 1.804 z"
           style="fill:#1d1d1b;fill-opacity:1;fill-rule:nonzero;stroke:none"
           id="path408" /><path
           d="m 830.724,165.748 h -1.804 v 16.232 h 1.804 z"
           style="fill:#1d1d1b;fill-opacity:1;fill-rule:nonzero;stroke:none"
           id="path410" /><path
           d="m 821.706,185.069 h 16.232 v -3.246 h -16.232 z"
           style="fill:#1d1d1b;fill-opacity:1;fill-rule:nonzero;stroke:none"
           id="path412" /><path
           d="m 805.473,181.822 h 16.232 v -3.246 h -16.232 z"
           style="fill:#1d1d1b;fill-opacity:1;fill-rule:nonzero;stroke:none"
           id="path414" /><g
           id="g416"
           transform="translate(805.4734,172.0826)"><path
             d="M 0,0 V 3.246 L 16.232,3.247 V 0 Z"
             style="fill:#1d1d1b;fill-opacity:1;fill-rule:nonzero;stroke:none"
             id="path418" /></g><path
           d="m 805.473,168.836 h 16.232 v -3.246 h -16.232 z"
           style="fill:#1d1d1b;fill-opacity:1;fill-rule:nonzero;stroke:none"
           id="path420" /><path
           d="m 584.681,116.893 h -25.508 v 25.508 h 25.508 z"
           style="fill:#1d1d1b;fill-opacity:1;fill-rule:nonzero;stroke:none"
           id="path722" /><path
           d="m 584.681,144.72 h -25.508 v 25.508 h 25.508 z"
           style="fill:#1d1d1b;fill-opacity:1;fill-rule:nonzero;stroke:none"
           id="path724" /><path
           d="m 584.681,172.547 h -25.508 v 25.508 h 25.508 z"
           style="fill:#1d1d1b;fill-opacity:1;fill-rule:nonzero;stroke:none"
           id="path726" /><g
           id="g728"
           transform="translate(612.5082,116.8925)"><path
             d="M 0,0 H -25.508 V 25.508 Z"
             style="fill:#1d1d1b;fill-opacity:1;fill-rule:nonzero;stroke:none"
             id="path730" /></g><g
           id="g732"
           transform="translate(587.0002,144.7195)"><path
             d="M 0,0 V 0 25.508 H 25.508 C 25.508,11.42 14.088,0 0,0"
             style="fill:#1d1d1b;fill-opacity:1;fill-rule:nonzero;stroke:none"
             id="path734" /></g><g
           id="g736"
           transform="translate(612.5082,172.5465)"><path
             d="M 0,0 H -25.508 V 25.508 C -11.42,25.508 0,14.088 0,0"
             style="fill:#1d1d1b;fill-opacity:1;fill-rule:nonzero;stroke:none"
             id="path738" /></g><g
           id="g740"
           transform="translate(226.4099,167.9895)"><path
             d="M 0,0 5.073,-10.145 H 0 Z"
             style="fill:#1d1d1b;fill-opacity:1;fill-rule:nonzero;stroke:none"
             id="path742" /></g><g
           id="g744"
           transform="translate(226.4099,167.9895)"><path
             d="M 0,0 5.073,10.145 H 0 Z"
             style="fill:#1d1d1b;fill-opacity:1;fill-rule:nonzero;stroke:none"
             id="path746" /></g><g
           id="g748"
           transform="translate(216.2648,167.9895)"><path
             d="M 0,0 -5.073,10.145 H 0 Z"
             style="fill:#1d1d1b;fill-opacity:1;fill-rule:nonzero;stroke:none"
             id="path750" /></g><g
           id="g752"
           transform="translate(216.2648,167.9895)"><path
             d="M 0,0 -5.073,-10.145 H 0 Z"
             style="fill:#1d1d1b;fill-opacity:1;fill-rule:nonzero;stroke:none"
             id="path754" /></g><g
           id="g756"
           transform="translate(226.4099,147.6991)"><path
             d="M 0,0 5.073,-10.145 H 0 Z"
             style="fill:#1d1d1b;fill-opacity:1;fill-rule:nonzero;stroke:none"
             id="path758" /></g><g
           id="g760"
           transform="translate(226.4099,147.6991)"><path
             d="M 0,0 5.073,10.145 H 0 Z"
             style="fill:#1d1d1b;fill-opacity:1;fill-rule:nonzero;stroke:none"
             id="path762" /></g><g
           id="g764"
           transform="translate(216.2648,147.6991)"><path
             d="M 0,0 -5.073,10.145 H 0 Z"
             style="fill:#1d1d1b;fill-opacity:1;fill-rule:nonzero;stroke:none"
             id="path766" /></g><g
           id="g768"
           transform="translate(216.2648,147.6991)"><path
             d="M 0,0 -5.073,-10.145 H 0 Z"
             style="fill:#1d1d1b;fill-opacity:1;fill-rule:nonzero;stroke:none"
             id="path770" /></g><g
           id="g772"
           transform="translate(226.4099,127.4086)"><path
             d="M 0,0 5.073,-10.145 H 0 Z"
             style="fill:#1d1d1b;fill-opacity:1;fill-rule:nonzero;stroke:none"
             id="path774" /></g><g
           id="g776"
           transform="translate(226.4099,127.4086)"><path
             d="M 0,0 5.073,10.145 H 0 Z"
             style="fill:#1d1d1b;fill-opacity:1;fill-rule:nonzero;stroke:none"
             id="path778" /></g><g
           id="g780"
           transform="translate(216.2648,127.4086)"><path
             d="M 0,0 -5.073,10.145 H 0 Z"
             style="fill:#1d1d1b;fill-opacity:1;fill-rule:nonzero;stroke:none"
             id="path782" /></g><g
           id="g784"
           transform="translate(216.2648,127.4086)"><path
             d="M 0,0 -5.073,-10.145 H 0 Z"
             style="fill:#1d1d1b;fill-opacity:1;fill-rule:nonzero;stroke:none"
             id="path786" /></g><g
           id="g788"
           transform="translate(216.2648,167.9895)"><path
             d="M 0,0 5.073,-10.145 H 0 Z"
             style="fill:#1d1d1b;fill-opacity:1;fill-rule:nonzero;stroke:none"
             id="path790" /></g><g
           id="g792"
           transform="translate(226.4099,167.9895)"><path
             d="M 0,0 -5.073,10.145 H 0 Z"
             style="fill:#1d1d1b;fill-opacity:1;fill-rule:nonzero;stroke:none"
             id="path794" /></g><g
           id="g796"
           transform="translate(216.2648,167.9895)"><path
             d="M 0,0 5.073,10.145 H 0 Z"
             style="fill:#1d1d1b;fill-opacity:1;fill-rule:nonzero;stroke:none"
             id="path798" /></g><g
           id="g800"
           transform="translate(226.4099,167.9895)"><path
             d="M 0,0 -5.073,-10.145 H 0 Z"
             style="fill:#1d1d1b;fill-opacity:1;fill-rule:nonzero;stroke:none"
             id="path802" /></g><g
           id="g804"
           transform="translate(226.4099,188.2801)"><path
             d="M 0,0 5.073,-10.145 H 0 Z"
             style="fill:#1d1d1b;fill-opacity:1;fill-rule:nonzero;stroke:none"
             id="path806" /></g><g
           id="g808"
           transform="translate(226.4099,198.4252)"><path
             d="M 0,0 V -10.145 L 5.072,0 Z"
             style="fill:#1d1d1b;fill-opacity:1;fill-rule:nonzero;stroke:none"
             id="path810" /></g><g
           id="g812"
           transform="translate(221.3375,198.4252)"><path
             d="M 0,0 5.072,-10.145 V 0 Z"
             style="fill:#1d1d1b;fill-opacity:1;fill-rule:nonzero;stroke:none"
             id="path814" /></g><g
           id="g816"
           transform="translate(226.4099,188.2801)"><path
             d="M 0,0 -5.073,-10.145 H 0 Z"
             style="fill:#1d1d1b;fill-opacity:1;fill-rule:nonzero;stroke:none"
             id="path818" /></g><g
           id="g820"
           transform="translate(216.2648,188.2801)"><path
             d="M 0,0 5.073,-10.145 H 0 Z"
             style="fill:#1d1d1b;fill-opacity:1;fill-rule:nonzero;stroke:none"
             id="path822" /></g><g
           id="g824"
           transform="translate(216.2651,198.4252)"><path
             d="M 0,0 V -10.145 L 5.072,0 Z"
             style="fill:#1d1d1b;fill-opacity:1;fill-rule:nonzero;stroke:none"
             id="path826" /></g><g
           id="g828"
           transform="translate(211.1918,198.4252)"><path
             d="M 0,0 5.073,-10.145 V 0 Z"
             style="fill:#1d1d1b;fill-opacity:1;fill-rule:nonzero;stroke:none"
             id="path830" /></g><g
           id="g832"
           transform="translate(216.2648,188.2801)"><path
             d="M 0,0 -5.073,-10.145 H 0 Z"
             style="fill:#1d1d1b;fill-opacity:1;fill-rule:nonzero;stroke:none"
             id="path834" /></g><g
           id="g836"
           transform="translate(246.7002,188.2801)"><path
             d="M 0,0 5.073,-10.145 H 0 Z"
             style="fill:#1d1d1b;fill-opacity:1;fill-rule:nonzero;stroke:none"
             id="path838" /></g><g
           id="g840"
           transform="translate(246.7004,198.4252)"><path
             d="M 0,0 V -10.145 L 5.072,0 Z"
             style="fill:#1d1d1b;fill-opacity:1;fill-rule:nonzero;stroke:none"
             id="path842" /></g><g
           id="g844"
           transform="translate(241.628,198.4252)"><path
             d="M 0,0 5.072,-10.145 V 0 Z"
             style="fill:#1d1d1b;fill-opacity:1;fill-rule:nonzero;stroke:none"
             id="path846" /></g><g
           id="g848"
           transform="translate(246.7002,188.2801)"><path
             d="M 0,0 -5.073,-10.145 H 0 Z"
             style="fill:#1d1d1b;fill-opacity:1;fill-rule:nonzero;stroke:none"
             id="path850" /></g><g
           id="g852"
           transform="translate(236.5551,188.2801)"><path
             d="M 0,0 5.073,-10.145 H 0 Z"
             style="fill:#1d1d1b;fill-opacity:1;fill-rule:nonzero;stroke:none"
             id="path854" /></g><g
           id="g856"
           transform="translate(236.5547,198.4252)"><path
             d="M 0,0 V -10.145 L 5.073,0 Z"
             style="fill:#1d1d1b;fill-opacity:1;fill-rule:nonzero;stroke:none"
             id="path858" /></g><g
           id="g860"
           transform="translate(231.4823,198.4252)"><path
             d="M 0,0 5.072,-10.145 V 0 Z"
             style="fill:#1d1d1b;fill-opacity:1;fill-rule:nonzero;stroke:none"
             id="path862" /></g><g
           id="g864"
           transform="translate(236.5551,188.2801)"><path
             d="M 0,0 -5.073,-10.145 H 0 Z"
             style="fill:#1d1d1b;fill-opacity:1;fill-rule:nonzero;stroke:none"
             id="path866" /></g><g
           id="g868"
           transform="translate(195.9745,188.2801)"><path
             d="M 0,0 5.073,-10.145 H 0 Z"
             style="fill:#1d1d1b;fill-opacity:1;fill-rule:nonzero;stroke:none"
             id="path870" /></g><g
           id="g872"
           transform="translate(195.9746,198.4252)"><path
             d="M 0,0 V -10.145 L 5.072,0 Z"
             style="fill:#1d1d1b;fill-opacity:1;fill-rule:nonzero;stroke:none"
             id="path874" /></g><g
           id="g876"
           transform="translate(190.9022,198.4252)"><path
             d="M 0,0 5.072,-10.145 V 0 Z"
             style="fill:#1d1d1b;fill-opacity:1;fill-rule:nonzero;stroke:none"
             id="path878" /></g><g
           id="g880"
           transform="translate(195.9745,188.2801)"><path
             d="M 0,0 -5.073,-10.145 H 0 Z"
             style="fill:#1d1d1b;fill-opacity:1;fill-rule:nonzero;stroke:none"
             id="path882" /></g><g
           id="g884"
           transform="translate(206.1196,188.2801)"><path
             d="M 0,0 5.073,-10.145 H 0 Z"
             style="fill:#1d1d1b;fill-opacity:1;fill-rule:nonzero;stroke:none"
             id="path886" /></g><g
           id="g888"
           transform="translate(206.1194,198.4252)"><path
             d="M 0,0 V -10.145 L 5.072,0 Z"
             style="fill:#1d1d1b;fill-opacity:1;fill-rule:nonzero;stroke:none"
             id="path890" /></g><g
           id="g892"
           transform="translate(201.047,198.4252)"><path
             d="M 0,0 5.072,-10.145 V 0 Z"
             style="fill:#1d1d1b;fill-opacity:1;fill-rule:nonzero;stroke:none"
             id="path894" /></g><g
           id="g896"
           transform="translate(206.1196,188.2801)"><path
             d="M 0,0 -5.073,-10.145 H 0 Z"
             style="fill:#1d1d1b;fill-opacity:1;fill-rule:nonzero;stroke:none"
             id="path898" /></g><g
           id="g900"
           transform="translate(216.2648,147.6991)"><path
             d="M 0,0 5.073,-10.145 H 0 Z"
             style="fill:#1d1d1b;fill-opacity:1;fill-rule:nonzero;stroke:none"
             id="path902" /></g><g
           id="g904"
           transform="translate(226.4099,147.6991)"><path
             d="M 0,0 -5.073,10.145 H 0 Z"
             style="fill:#1d1d1b;fill-opacity:1;fill-rule:nonzero;stroke:none"
             id="path906" /></g><g
           id="g908"
           transform="translate(216.2648,147.6991)"><path
             d="M 0,0 5.073,10.145 H 0 Z"
             style="fill:#1d1d1b;fill-opacity:1;fill-rule:nonzero;stroke:none"
             id="path910" /></g><g
           id="g912"
           transform="translate(226.4099,147.6991)"><path
             d="M 0,0 -5.073,-10.145 H 0 Z"
             style="fill:#1d1d1b;fill-opacity:1;fill-rule:nonzero;stroke:none"
             id="path914" /></g><g
           id="g916"
           transform="translate(216.2648,127.4086)"><path
             d="M 0,0 5.073,-10.145 H 0 Z"
             style="fill:#1d1d1b;fill-opacity:1;fill-rule:nonzero;stroke:none"
             id="path918" /></g><g
           id="g920"
           transform="translate(226.4099,127.4086)"><path
             d="M 0,0 -5.073,-10.145 H 0 Z"
             style="fill:#1d1d1b;fill-opacity:1;fill-rule:nonzero;stroke:none"
             id="path922" /></g><g
           id="g924"
           transform="translate(226.4099,127.4086)"><path
             d="M 0,0 -5.073,10.145 H 0 Z"
             style="fill:#1d1d1b;fill-opacity:1;fill-rule:nonzero;stroke:none"
             id="path926" /></g><g
           id="g928"
           transform="translate(216.2648,127.4086)"><path
             d="M 0,0 5.073,10.145 H 0 Z"
             style="fill:#1d1d1b;fill-opacity:1;fill-rule:nonzero;stroke:none"
             id="path930" /></g></g></g></g></svg>
